<svg width="334" height="179" viewBox="0 0 334 179" fill="none" xmlns="http://www.w3.org/2000/svg">
<path d="M-22.6225 4.93414C-22.2716 -2.91987 -15.9162 -9.17041 -8.05744 -9.39055L319.984 -18.5794C328.274 -18.8116 335.179 -12.2735 335.399 -3.98381L342.591 266.602C342.815 275.039 336.036 282 327.596 282H-19.3149C-27.862 282 -34.6814 274.869 -34.3 266.331L-22.6225 4.93414Z" fill="url(#paint0_linear_1925_243)"/>
<path d="M-81.8746 111.715C-66.2893 88.5766 317.477 132.29 296.257 119.164C275.037 106.039 350.409 127.588 237.942 133.789C125.474 139.991 -55.9471 147.652 -83.6881 122.54C-85.4857 120.913 -87.1082 119.548 -88.5664 118.412C-106.277 104.621 -99.7624 124.623 -88.5664 118.412C-86.4583 117.243 -84.1842 115.144 -81.8746 111.715Z" fill="url(#paint1_linear_1925_243)"/>
<path d="M-100.843 92.9424C-105.146 91.8387 -103.031 90.9642 -95.8751 90.3041C-104.291 81.7811 -134.093 61.6585 -82.4514 68.9808C23.8339 45.7835 222.829 51.653 208.556 81.8026C281.571 80.1396 323.804 80.6236 282.309 98.6327C175.253 90.1688 -52.5777 86.3103 -95.8751 90.3041C-92.7203 93.4991 -92.5708 95.064 -100.843 92.9424Z" fill="url(#paint2_linear_1925_243)"/>
<path d="M357.522 158.708C358.835 145.465 -191.107 148.238 -61.7517 159.142C-127.027 167.089 -67.5729 166.792 -38.8749 171.685C44.3757 199.78 326.015 140.763 352.89 176.562C379.765 212.362 356.21 171.95 357.522 158.708Z" fill="url(#paint3_linear_1925_243)"/>
<path d="M438.009 158.006C438.565 157.331 438.477 157.025 438.179 156.938C438.09 156.911 438.009 156.987 438.009 157.076V158.006C437.351 158.805 435.792 160.119 432.61 162.196C426.314 166.307 420.129 163.949 417.776 162.228C417.747 162.207 417.713 162.196 417.676 162.196H398.499C398.447 162.196 398.397 162.172 398.366 162.132L385.027 144.682C384.996 144.642 384.947 144.618 384.895 144.618H370.66C370.61 144.618 370.562 144.595 370.531 144.557L356.204 127.064C356.19 127.047 356.173 127.033 356.153 127.023L341.806 119.467C341.792 119.459 341.779 119.45 341.768 119.439L335.915 113.72C335.909 113.714 335.903 113.708 335.896 113.703L328.174 108.243C328.132 108.213 328.107 108.166 328.107 108.116V105.941C328.107 105.854 328.034 105.783 327.943 105.783H323.532C323.469 105.783 323.411 105.748 323.384 105.693L321.407 101.684C321.395 101.66 321.377 101.639 321.353 101.623L318.552 99.7225C318.524 99.7037 318.491 99.6936 318.457 99.6936H317.234C317.143 99.6936 317.069 99.6231 317.069 99.5361V97.5788C317.069 97.5353 317.051 97.4937 317.018 97.4639L313.215 94.0431C313.155 93.9891 313.063 93.9861 312.999 94.0359L303.301 101.624C303.282 101.639 303.26 101.65 303.236 101.655L285.65 105.779C285.64 105.782 285.63 105.785 285.62 105.789L261.589 116.437C261.545 116.457 261.494 116.457 261.45 116.437C260.087 115.827 256.842 115.023 254.2 116.468C251.519 117.935 244.955 122.115 241.984 124.037C241.969 124.047 241.956 124.059 241.945 124.073L236.696 130.813C236.687 130.824 236.677 130.834 236.666 130.843L218.341 144.606C218.331 144.614 218.32 144.62 218.308 144.625L212.374 147.24C212.343 147.253 212.318 147.274 212.301 147.302C211.487 148.617 209.602 151.167 208.368 151.167C207.156 151.167 205.393 150.083 204.596 149.494C204.553 149.462 204.498 149.452 204.447 149.468C203.753 149.684 202.135 150.284 200.569 151.167C198.944 152.082 196.471 150.415 195.423 149.455C195.414 149.447 195.404 149.44 195.393 149.434L191.667 147.315C191.608 147.282 191.536 147.286 191.483 147.326L175.395 159.307C175.381 159.318 175.365 159.327 175.345 159.333L170.955 160.696C170.942 160.701 170.929 160.707 170.916 160.715L156.098 170.098C156.071 170.115 156.039 170.124 156.006 170.124C155.973 170.124 151.465 170.124 151.465 170.124C151.412 170.124 151.36 170.097 151.33 170.052L150.105 168.243C150.076 168.198 150.023 168.171 149.967 168.171C149.912 168.171 143.161 168.171 143.161 168.171C143.121 168.171 143.082 168.157 143.052 168.131L137.865 163.73C137.835 163.704 137.796 163.69 137.756 163.69H136.206C136.164 163.69 136.121 163.706 136.092 163.733L131.337 168.064C131.271 168.123 131.17 168.122 131.107 168.06L126.744 163.77C126.694 163.722 126.619 163.709 126.556 163.737L122.114 165.7C122.038 165.733 121.95 165.707 121.907 165.639L120.663 163.69C120.062 162.694 118.479 160.703 116.942 160.703C115.022 160.703 117.783 159.324 112.264 159.324C107.923 159.324 105.703 157.696 105.096 156.84C105.076 156.811 105.066 156.778 105.069 156.743C105.076 156.328 104.738 155.828 103.264 156.796C101.733 157.806 92.3428 163.171 87.8149 165.743C87.7952 165.753 87.7821 165.767 87.769 165.783L85.9006 168.132C85.8776 168.157 85.8513 168.176 85.8185 168.186L79.534 170.117C79.5176 170.122 79.5012 170.124 79.4848 170.124H75.9846C75.9386 170.124 75.8927 170.144 75.8598 170.178L73.6632 172.599C73.5877 172.681 73.453 172.668 73.3972 172.573L72.3334 170.775C72.248 170.626 71.7292 170.649 71.611 170.777C71.1349 171.29 70.0809 172.002 67.9926 172.767C64.7913 173.939 62.4797 175.428 61.6786 176.063C61.6457 176.086 61.6096 176.099 61.5735 176.099H54.6717H53.0333C53.007 176.099 52.9807 176.093 52.9577 176.081L50.0092 174.612C49.9994 174.608 49.9895 174.602 49.9829 174.596L47.6747 172.827C47.6254 172.79 47.5598 172.782 47.5039 172.807L43.4652 174.575C43.4193 174.594 43.37 174.594 43.3273 174.574L33.4375 170.124L28.3811 168.254C28.2727 168.214 28.1577 168.29 28.1577 168.4V169.066C28.1577 169.145 28.0954 169.213 28.0133 169.223L20.6847 170.114C20.6321 170.12 20.5829 170.151 20.5598 170.197L19.2531 172.592C19.2071 172.682 19.0823 172.704 19.0035 172.639L11.0345 166.13C11.0115 166.112 10.9951 166.09 10.9852 166.065C10.6832 165.311 9.59644 163.429 7.52124 161.622C5.41656 159.79 0.990417 159.556 -0.976379 159.668C-0.992798 159.668 -1.00256 159.667 -1.01898 159.665L-8.91797 151.167L-21.1531 156.743C-21.1531 143.951 -28.1371 156.657 -28.1568 156.743C-54.3259 159.929 -68.2244 180.115 -33.71 168.06C-36.3007 168.06 -40.5156 175.447 -40.5156 176.099L-21.1531 297.845C-21.1531 297.932 71.5191 298.002 71.611 298.002H530.445C530.536 298.002 438.009 297.932 438.009 297.845V158.006Z" fill="url(#paint4_linear_1925_243)"/>
<path d="M195.875 203.283C204.726 209.364 197.048 217.999 197.048 202.945C197.048 214.544 210.322 215.324 197.863 207.682L195.875 203.283C207.709 211.413 183.846 190.681 180.714 193.081C174.515 197.828 168.426 195.105 166.11 193.117C166.081 193.093 166.048 193.081 166.012 193.081H147.133C147.081 193.081 147.033 193.053 147.002 193.006L133.87 172.853C133.84 172.806 133.791 172.778 133.74 172.778H119.726C119.677 172.778 119.63 172.752 119.6 172.709L105.494 152.505C105.481 152.486 105.464 152.47 105.445 152.458L91.3209 143.731C91.3073 143.723 91.2944 143.712 91.2834 143.699L85.5217 137.094C85.5155 137.087 85.5091 137.081 85.502 137.075L77.9009 130.768C77.8595 130.734 77.835 130.68 77.835 130.622V128.109C77.835 128.009 77.7626 127.927 77.6735 127.927H73.3308C73.2685 127.927 73.2116 127.887 73.1848 127.823L71.2388 123.194C71.2269 123.165 71.2088 123.141 71.1858 123.123L68.4277 120.928C68.4006 120.906 68.368 120.895 68.3344 120.895H67.1301C67.0406 120.895 66.9686 120.813 66.9686 120.713V118.452C66.9686 118.402 66.9498 118.354 66.9172 118.319L63.1735 114.369C63.1147 114.306 63.0239 114.303 62.9612 114.36L53.4135 123.125C53.3948 123.142 53.3731 123.154 53.3498 123.16L36.0375 127.923C36.0271 127.926 36.0175 127.93 36.0081 127.935L12.3503 140.232C12.3063 140.255 12.2569 140.255 12.2133 140.232C10.8714 139.528 7.67682 138.598 5.07602 140.268C2.43678 141.962 -4.02596 146.79 -6.94978 149.009C-6.96497 149.021 -6.97723 149.034 -6.98822 149.051L-12.1559 156.836C-12.1646 156.848 -12.1747 156.86 -12.186 156.87L-30.2258 172.765C-30.2355 172.774 -30.2452 172.781 -30.2581 172.787L-36.1019 175.806C-36.131 175.822 -36.1536 175.846 -36.173 175.878C-36.9741 177.397 -38.8284 180.342 -40.043 180.342C-41.2382 180.342 -42.973 179.09 -43.7579 178.41C-43.7999 178.374 -43.8549 178.362 -43.9033 178.38C-44.5882 178.63 -46.1808 179.323 -47.7217 180.342C-49.3207 181.399 -51.7565 179.474 -52.787 178.366C-52.7967 178.356 -52.8063 178.348 -52.816 178.341L-56.4857 175.893C-56.5439 175.855 -56.615 175.86 -56.6667 175.906L-72.5021 189.744C-72.5183 189.757 -72.5344 189.766 -72.5538 189.773L-76.8761 191.348C-76.889 191.353 -76.9019 191.36 -76.9149 191.369L-91.5033 202.206C-91.5292 202.226 -91.5583 202.237 -91.5906 202.237H-96.0615C-96.1164 202.237 -96.1681 202.205 -96.1971 202.154L-97.4021 200.064C-97.4312 200.012 -97.4828 199.981 -97.5345 199.981H-104.238C-104.276 199.981 -104.315 199.964 -104.344 199.935L-109.451 194.851C-109.48 194.822 -109.519 194.806 -109.558 194.806H-111.086C-111.128 194.806 -111.167 194.824 -111.196 194.856L-115.877 199.857C-115.941 199.926 -116.042 199.924 -116.103 199.852L-120.403 194.897C-120.448 194.843 -120.522 194.827 -120.583 194.859L-124.957 197.127C-125.032 197.165 -125.119 197.135 -125.161 197.056L-126.385 194.806C-126.976 193.656 -128.537 191.356 -130.048 191.356C-131.938 191.356 -129.221 189.763 -134.655 189.763C-138.926 189.763 -141.116 187.883 -141.71 186.895C-141.733 186.861 -141.739 186.822 -141.739 186.782C-141.73 186.304 -142.066 185.725 -143.513 186.844C-145.021 188.01 -154.264 194.206 -158.725 197.177C-158.741 197.188 -158.757 197.204 -158.77 197.222L-160.608 199.935C-160.631 199.965 -160.657 199.987 -160.689 199.998L-166.875 202.228C-166.891 202.234 -166.907 202.237 -166.927 202.237H-170.37C-170.416 202.237 -170.461 202.259 -170.493 202.299L-172.658 205.095C-172.729 205.189 -172.864 205.174 -172.919 205.065L-173.963 202.987C-174.05 202.816 -174.56 202.843 -174.677 202.99C-175.145 203.583 -176.182 204.405 -178.24 205.289C-181.393 206.642 -183.663 208.362 -184.455 209.095C-184.484 209.122 -184.52 209.137 -184.558 209.137H-191.349H-192.964C-192.99 209.137 -193.015 209.13 -193.038 209.116L-195.942 207.42C-195.952 207.415 -195.962 207.408 -195.968 207.401L-198.242 205.358C-198.288 205.316 -198.355 205.307 -198.41 205.335L-202.384 207.377C-202.429 207.399 -202.477 207.398 -202.519 207.376L-212.256 202.237L-217.234 200.076C-217.34 200.03 -217.454 200.118 -217.454 200.246V201.015C-217.454 201.106 -217.515 201.184 -217.596 201.195L-224.812 202.225C-224.864 202.232 -224.909 202.268 -224.935 202.321L-226.218 205.087C-226.266 205.19 -226.389 205.217 -226.466 205.141L-234.313 197.623C-234.332 197.603 -234.349 197.578 -234.358 197.549C-234.655 196.678 -235.725 194.505 -237.769 192.417C-239.84 190.301 -244.198 190.031 -246.136 190.16C-246.149 190.161 -246.162 190.16 -246.175 190.157L-253.007 188.702L-259.103 187.538C-259.193 187.521 -259.277 187.59 -259.3 187.689C-259.504 188.613 -260.424 190.161 -262.808 190.161C-265.36 190.161 -266 191.665 -266 192.417V349.744C-266 349.844 -265.926 349.926 -265.838 349.926H185.867C185.957 349.926 186.029 349.844 186.029 349.744L195.875 203.283Z" fill="url(#paint5_linear_1925_243)"/>
<path d="M116.5 251.155C116.5 301.553 65.1215 309.42 119.5 257.62C93.6216 282.272 112.278 262.593 112.278 262.593L116.5 251.155C92.1999 301.553 121.146 243.982 123.5 245.187C128.151 247.569 177.749 207.194 179.496 206.196C179.523 206.18 179.555 206.172 179.588 206.172H193.75C193.798 206.172 193.844 206.155 193.873 206.125L203.723 196.019C203.752 195.99 203.797 195.972 203.846 195.972H214.346C214.393 195.972 214.437 195.956 214.466 195.928L225.053 185.791C225.065 185.778 225.081 185.768 225.099 185.761L235.704 181.38C235.717 181.375 235.729 181.368 235.739 181.36L240.064 178.045C240.07 178.041 240.076 178.037 240.083 178.033L245.781 174.873C245.82 174.851 245.842 174.817 245.842 174.781V173.553C245.842 173.49 245.911 173.439 245.995 173.439H249.208C249.267 173.439 249.32 173.413 249.346 173.373L250.796 171.066C250.808 171.048 250.825 171.033 250.846 171.021L252.904 169.926C252.93 169.913 252.961 169.905 252.992 169.905H253.856C253.941 169.905 254.009 169.854 254.009 169.79V168.688C254.009 168.657 254.026 168.626 254.057 168.604L256.841 166.64C256.896 166.601 256.982 166.599 257.041 166.635L264.19 171.022C264.208 171.033 264.228 171.041 264.25 171.045L277.25 173.436C277.26 173.438 277.269 173.44 277.278 173.443L295.041 179.616C295.081 179.63 295.13 179.63 295.169 179.616C296.187 179.262 298.574 178.803 300.522 179.639C302.503 180.489 307.355 182.912 309.553 184.028C309.568 184.035 309.58 184.044 309.589 184.054L313.469 187.96C313.475 187.968 313.485 187.975 313.497 187.982L327.048 195.964C327.057 195.969 327.066 195.974 327.078 195.978L331.455 197.49C331.486 197.5 331.507 197.516 331.522 197.536C332.129 198.301 333.519 199.772 334.43 199.772C335.32 199.772 336.609 199.152 337.207 198.809C337.246 198.786 337.298 198.779 337.344 198.79C337.865 198.919 339.051 199.265 340.197 199.772C341.398 200.303 343.226 199.338 344.004 198.781C344.01 198.775 344.019 198.77 344.031 198.765L346.765 197.545C346.82 197.521 346.887 197.524 346.939 197.553L358.817 204.493C358.832 204.501 358.847 204.508 358.866 204.512L362.102 205.301C362.118 205.304 362.13 205.309 362.139 205.314L373.09 210.753C373.118 210.766 373.145 210.772 373.176 210.772H376.507C376.559 210.772 376.608 210.753 376.635 210.72L377.522 209.691C377.549 209.659 377.598 209.639 377.65 209.639H382.658C382.694 209.639 382.731 209.629 382.758 209.61L386.577 207.068C386.605 207.049 386.641 207.039 386.678 207.039H387.803C387.842 207.039 387.879 207.05 387.909 207.07L391.393 209.561C391.454 209.604 391.552 209.603 391.61 209.558L394.801 207.097C394.847 207.062 394.917 207.052 394.975 207.073L398.215 208.196C398.285 208.221 398.37 208.202 398.41 208.152L399.315 207.039C399.76 206.461 400.93 205.306 402.067 205.306C403.487 205.306 401.445 204.506 405.53 204.506C408.724 204.506 410.37 203.569 410.827 203.071C410.845 203.05 410.851 203.025 410.851 203C410.851 202.761 411.11 202.483 412.186 203.039C413.32 203.624 420.257 206.735 423.61 208.228C423.628 208.235 423.641 208.245 423.653 208.257L425.027 209.61C425.046 209.629 425.073 209.643 425.1 209.65L429.736 210.767C429.752 210.771 429.77 210.772 429.785 210.772H432.355C432.397 210.772 432.44 210.787 432.47 210.812L434.058 212.184C434.125 212.243 434.253 212.234 434.305 212.165L434.997 211.246C435.076 211.138 435.589 211.144 435.704 211.231C436.098 211.521 436.869 211.9 438.283 212.306C440.639 212.982 442.343 213.841 442.943 214.213C442.971 214.23 443.007 214.239 443.041 214.239H448.134H449.341C449.365 214.239 449.39 214.235 449.411 214.226L451.584 213.377C451.593 213.374 451.599 213.37 451.609 213.365L453.297 212.349C453.343 212.323 453.404 212.317 453.456 212.335L456.415 213.35C456.455 213.364 456.501 213.364 456.543 213.35L463.846 210.772L467.543 209.699C467.644 209.67 467.751 209.726 467.751 209.806V210.138C467.751 210.196 467.808 210.244 467.885 210.252L473.264 210.765C473.313 210.769 473.359 210.792 473.38 210.825L474.319 212.178C474.365 212.243 474.48 212.26 474.554 212.212L480.415 208.458C480.433 208.446 480.448 208.43 480.457 208.411C480.686 207.97 481.491 206.883 483.018 205.839C484.575 204.777 487.843 204.64 489.303 204.705C489.315 204.705 489.327 204.705 489.339 204.703L494.469 203.972L499.02 203.392C499.105 203.381 499.184 203.424 499.205 203.486C499.376 203.953 500.071 204.706 501.836 204.706C503.753 204.706 504.235 205.461 504.235 205.839V284.858C504.235 284.922 504.164 284.973 504.082 284.973H164.688C164.603 284.973 164.535 284.922 164.535 284.858L116.5 251.155Z" fill="url(#paint6_linear_1925_243)"/>
<defs>
<linearGradient id="paint0_linear_1925_243" x1="154" y1="-92" x2="154" y2="282" gradientUnits="userSpaceOnUse">
<stop offset="0.1875" stop-color="#5F9892"/>
<stop offset="0.514423" stop-color="#BE7852"/>
<stop offset="0.985577" stop-color="#E3AA01"/>
</linearGradient>
<linearGradient id="paint1_linear_1925_243" x1="145.298" y1="265.27" x2="127.436" y2="-3.13506" gradientUnits="userSpaceOnUse">
<stop offset="0.456731" stop-color="#F2C35E"/>
<stop offset="1" stop-color="#D7F6FF"/>
</linearGradient>
<linearGradient id="paint2_linear_1925_243" x1="145.298" y1="265.27" x2="127.436" y2="-3.13506" gradientUnits="userSpaceOnUse">
<stop offset="0.456731" stop-color="#F2C35E"/>
<stop offset="1" stop-color="#D7F6FF"/>
</linearGradient>
<linearGradient id="paint3_linear_1925_243" x1="145.298" y1="265.27" x2="127.436" y2="-3.13506" gradientUnits="userSpaceOnUse">
<stop offset="0.456731" stop-color="#F2C35E"/>
<stop offset="1" stop-color="#D7F6FF"/>
</linearGradient>
<linearGradient id="paint4_linear_1925_243" x1="184.712" y1="301.859" x2="184.712" y2="97.805" gradientUnits="userSpaceOnUse">
<stop offset="0.471154" stop-color="#016C98"/>
<stop offset="0.677885" stop-color="#336995"/>
<stop offset="0.841346" stop-color="#606693"/>
<stop offset="1" stop-color="#AA618F"/>
</linearGradient>
<linearGradient id="paint5_linear_1925_243" x1="-52.7782" y1="333.518" x2="-52.7782" y2="97.9112" gradientUnits="userSpaceOnUse">
<stop stop-color="#003845"/>
<stop offset="0.514423" stop-color="#004150"/>
<stop offset="0.913462" stop-color="#605073"/>
<stop offset="1" stop-color="#B05D8F"/>
</linearGradient>
<linearGradient id="paint6_linear_1925_243" x1="172.888" y1="124.827" x2="273.576" y2="224.846" gradientUnits="userSpaceOnUse">
<stop offset="0.0695881" stop-color="#1F9CCE"/>
<stop offset="0.566829" stop-color="#104F68"/>
</linearGradient>
</defs>
</svg>
