<svg width="288" height="1088" viewBox="0 0 288 1088" fill="none" xmlns="http://www.w3.org/2000/svg">
<g clip-path="url(#clip0_1365_122)" filter="url(#filter0_d_1365_122)">
<rect width="280" height="1080" transform="translate(4)" fill="white"/>
<path d="M4 0H284V1080H4V0Z" fill="url(#paint0_linear_1365_122)"/>
<path d="M-42.6536 838.448C-18.8915 801.191 413.654 856.573 392.4 836.53C371.146 816.487 452.874 847.921 321.384 861.839C189.893 875.757 -21.6331 894.493 -47.441 855.679C-49.1133 853.164 -50.6486 851.059 -52.0511 849.311C-69.0848 828.084 -66.5319 859.567 -52.0511 849.311C-49.3245 847.38 -46.1749 843.969 -42.6536 838.448Z" fill="url(#paint1_linear_1365_122)"/>
<path d="M-59.9019 809.368C-64.5994 807.774 -61.9377 806.311 -53.5056 805.004C-61.11 791.795 -90.5404 760.968 -32.6926 770.704C95.882 730.06 324.348 732.141 300.358 780.469C385.136 775.181 433.814 774.415 381.391 804.479C259.799 794.945 -2.48505 797.099 -53.5056 805.004C-50.655 809.956 -50.8714 812.432 -59.9019 809.368Z" fill="url(#paint2_linear_1365_122)"/>
<path d="M453.354 897.011C458.164 875.965 -177.947 900.33 -31.1976 912.925C-108.595 927.896 -39.8258 925.266 -7.88424 931.984C81.3197 973.511 421.413 869.699 443.562 925.492C465.711 981.284 448.545 918.057 453.354 897.011Z" fill="url(#paint3_linear_1365_122)"/>
<g opacity="0.9">
<path d="M412.486 920.818C413.012 919.923 412.929 919.517 412.647 919.402C412.562 919.367 412.486 919.466 412.486 919.585V920.818C411.863 921.875 410.387 923.617 407.375 926.37C401.414 931.817 395.558 928.693 393.331 926.412C393.303 926.384 393.271 926.37 393.237 926.37H375.081C375.032 926.37 374.985 926.338 374.956 926.285L362.327 903.161C362.298 903.107 362.252 903.075 362.202 903.075H348.726C348.679 903.075 348.633 903.046 348.604 902.996L335.04 879.814C335.027 879.792 335.011 879.774 334.993 879.76L321.41 869.747C321.397 869.737 321.385 869.724 321.374 869.71L315.833 862.131C315.827 862.123 315.821 862.116 315.814 862.109L308.505 854.874C308.465 854.834 308.441 854.772 308.441 854.706V851.822C308.441 851.707 308.372 851.614 308.286 851.614H304.11C304.05 851.614 303.995 851.567 303.969 851.494L302.098 846.182C302.087 846.15 302.069 846.122 302.047 846.101L299.395 843.583C299.368 843.558 299.337 843.544 299.305 843.544H298.147C298.061 843.544 297.991 843.451 297.991 843.336V840.742C297.991 840.684 297.974 840.629 297.942 840.59L294.342 836.056C294.286 835.985 294.198 835.981 294.138 836.047L284.956 846.103C284.938 846.122 284.917 846.136 284.895 846.144L268.246 851.609C268.237 851.612 268.227 851.617 268.218 851.622L245.468 865.732C245.426 865.758 245.378 865.758 245.336 865.732C244.045 864.924 240.974 863.857 238.472 865.773C235.935 867.717 229.72 873.257 226.908 875.803C226.893 875.816 226.881 875.832 226.871 875.85L221.901 884.783C221.893 884.797 221.883 884.811 221.873 884.822L204.525 903.06C204.515 903.07 204.505 903.079 204.494 903.085L198.875 906.55C198.846 906.568 198.823 906.596 198.807 906.633C198.036 908.375 196.251 911.754 195.083 911.754C193.935 911.754 192.266 910.317 191.512 909.538C191.472 909.495 191.419 909.482 191.37 909.503C190.714 909.789 189.182 910.585 187.699 911.754C186.161 912.967 183.82 910.758 182.828 909.486C182.819 909.475 182.81 909.466 182.8 909.458L179.272 906.65C179.216 906.606 179.148 906.612 179.098 906.664L163.867 922.541C163.854 922.556 163.839 922.568 163.82 922.575L159.664 924.382C159.652 924.388 159.639 924.396 159.627 924.406L145.598 936.841C145.573 936.864 145.542 936.876 145.511 936.876C145.48 936.876 141.212 936.876 141.212 936.876C141.162 936.876 141.113 936.84 141.085 936.781L139.925 934.383C139.897 934.323 139.848 934.287 139.795 934.287C139.742 934.287 133.351 934.287 133.351 934.287C133.314 934.287 133.276 934.269 133.248 934.235L128.337 928.402C128.309 928.368 128.272 928.35 128.234 928.35H126.767C126.727 928.35 126.686 928.37 126.658 928.407L122.157 934.146C122.095 934.224 121.999 934.222 121.94 934.14L117.808 928.455C117.762 928.392 117.69 928.374 117.631 928.411L113.426 931.013C113.354 931.057 113.27 931.022 113.23 930.932L112.052 928.35C111.483 927.03 109.984 924.391 108.53 924.391C106.711 924.391 109.325 922.564 104.1 922.564C99.9907 922.564 97.8894 920.406 97.3143 919.273C97.2956 919.234 97.2863 919.19 97.2894 919.143C97.2956 918.594 96.9755 917.93 95.5798 919.214C94.1312 920.552 85.241 927.662 80.9544 931.07C80.9357 931.084 80.9233 931.101 80.9109 931.122L79.1421 934.235C79.1204 934.269 79.0955 934.294 79.0644 934.308L73.1148 936.866C73.0993 936.872 73.0837 936.876 73.0682 936.876H69.7546C69.7111 936.876 69.6675 936.902 69.6364 936.947L67.5569 940.155C67.4854 940.264 67.3579 940.246 67.3051 940.121L66.2979 937.738C66.2171 937.541 65.726 937.572 65.6141 937.74C65.1633 938.421 64.1655 939.364 62.1885 940.378C59.1577 941.931 56.9694 943.904 56.2109 944.745C56.1798 944.776 56.1457 944.793 56.1115 944.793H49.5775H48.0264C48.0015 944.793 47.9766 944.785 47.9549 944.769L45.1635 942.823C45.1542 942.817 45.1448 942.809 45.1386 942.801L42.9533 940.457C42.9067 940.409 42.8445 940.398 42.7917 940.431L38.9682 942.773C38.9247 942.799 38.8781 942.799 38.8377 942.773L29.4749 936.876L24.6879 934.397C24.5854 934.344 24.4765 934.445 24.4765 934.591V935.474C24.4765 935.579 24.4175 935.668 24.3397 935.681L17.4017 936.862C17.352 936.871 17.3053 936.912 17.2835 936.973L16.0464 940.146C16.0029 940.265 15.8847 940.295 15.8101 940.208L8.26583 931.582C8.24407 931.559 8.2285 931.53 8.21917 931.497C7.93319 930.497 6.90434 928.004 4.93979 925.609C2.94726 923.181 -1.24301 922.871 -3.10499 923.019C-3.12053 923.02 -3.12981 923.019 -3.14535 923.016L-10.6234 911.754L-22.2065 919.143C-22.2065 902.193 -28.8182 919.03 -28.8369 919.143C-53.6114 923.366 -66.7692 950.114 -34.0942 934.14C-36.5467 934.14 -40.5371 943.93 -40.5371 944.793L-22.2065 1106.13C-22.2065 1106.24 65.527 1106.33 65.6141 1106.33H499.996C500.082 1106.33 412.486 1106.24 412.486 1106.13V920.818Z" fill="url(#paint4_linear_1365_122)"/>
<path d="M183.261 980.816C191.64 988.875 184.371 1000.32 184.371 980.369C184.371 995.739 196.938 996.772 185.143 986.646L183.261 980.816C194.464 991.59 171.873 964.117 168.907 967.297C163.039 973.588 157.275 969.979 155.082 967.345C155.055 967.313 155.023 967.297 154.989 967.297H137.116C137.067 967.297 137.021 967.26 136.993 967.198L124.56 940.491C124.532 940.43 124.486 940.393 124.437 940.393H111.17C111.123 940.393 111.079 940.359 111.05 940.301L97.6967 913.528C97.6841 913.502 97.6682 913.481 97.6502 913.465L84.2786 901.901C84.2658 901.89 84.2535 901.875 84.2431 901.858L78.7884 893.105C78.7826 893.096 78.7765 893.088 78.7698 893.08L71.5737 884.723C71.5346 884.678 71.5114 884.606 71.5114 884.53V881.2C71.5114 881.067 71.4429 880.959 71.3585 880.959H67.2473C67.1882 880.959 67.1344 880.905 67.109 880.821L65.2667 874.686C65.2554 874.648 65.2383 874.616 65.2166 874.592L62.6055 871.683C62.5798 871.654 62.5489 871.639 62.5171 871.639H61.377C61.2923 871.639 61.2241 871.531 61.2241 871.398V868.403C61.2241 868.336 61.2063 868.272 61.1754 868.227L57.6312 862.991C57.5756 862.909 57.4896 862.904 57.4303 862.98L48.3914 874.594C48.3736 874.617 48.3531 874.633 48.3311 874.641L31.9413 880.953C31.9315 880.957 31.9224 880.962 31.9135 880.968L9.51646 897.264C9.47487 897.294 9.42806 897.294 9.38677 897.264C8.11637 896.331 5.09209 895.099 2.62989 897.312C0.131306 899.557 -5.98702 905.954 -8.75504 908.895C-8.76941 908.91 -8.78102 908.929 -8.79142 908.95L-13.6837 919.266C-13.692 919.283 -13.7015 919.299 -13.7122 919.312L-30.7906 940.376C-30.7998 940.387 -30.809 940.397 -30.8212 940.405L-36.3536 944.406C-36.3811 944.426 -36.4025 944.459 -36.4208 944.501C-37.1793 946.514 -38.9347 950.416 -40.0846 950.416C-41.2162 950.416 -42.8585 948.757 -43.6016 947.856C-43.6414 947.808 -43.6934 947.792 -43.7393 947.816C-44.3876 948.147 -45.8953 949.065 -47.3541 950.416C-48.8679 951.816 -51.1739 949.266 -52.1495 947.797C-52.1586 947.784 -52.1678 947.773 -52.1769 947.764L-55.6511 944.521C-55.7061 944.47 -55.7734 944.477 -55.8224 944.538L-70.814 962.874C-70.8292 962.892 -70.8445 962.905 -70.8629 962.914L-74.9548 965.001C-74.967 965.007 -74.9793 965.017 -74.9915 965.029L-88.8025 979.39C-88.827 979.416 -88.8546 979.43 -88.8852 979.43H-93.1178C-93.1697 979.43 -93.2187 979.388 -93.2462 979.32L-94.3869 976.55C-94.4145 976.482 -94.4634 976.441 -94.5123 976.441H-100.858C-100.895 976.441 -100.932 976.419 -100.959 976.38L-105.794 969.643C-105.822 969.604 -105.858 969.583 -105.895 969.583H-107.342C-107.381 969.583 -107.418 969.606 -107.446 969.649L-111.877 976.277C-111.938 976.368 -112.033 976.365 -112.091 976.27L-116.162 969.704C-116.204 969.631 -116.275 969.611 -116.333 969.654L-120.474 972.658C-120.544 972.709 -120.627 972.669 -120.666 972.565L-121.825 969.583C-122.385 968.059 -123.862 965.011 -125.294 965.011C-127.083 965.011 -124.511 962.901 -129.655 962.901C-133.698 962.901 -135.771 960.409 -136.334 959.099C-136.355 959.055 -136.361 959.004 -136.361 958.95C-136.352 958.316 -136.67 957.549 -138.04 959.032C-139.469 960.577 -148.218 968.788 -152.442 972.725C-152.457 972.74 -152.472 972.76 -152.484 972.785L-154.225 976.38C-154.246 976.419 -154.27 976.448 -154.301 976.464L-160.158 979.418C-160.173 979.426 -160.188 979.43 -160.207 979.43H-163.467C-163.509 979.43 -163.552 979.46 -163.583 979.512L-165.632 983.217C-165.699 983.343 -165.828 983.322 -165.88 983.178L-166.867 980.424C-166.95 980.198 -167.433 980.233 -167.543 980.428C-167.987 981.214 -168.968 982.303 -170.917 983.474C-173.901 985.268 -176.051 987.547 -176.801 988.519C-176.828 988.554 -176.862 988.574 -176.898 988.574H-183.327H-184.856C-184.88 988.574 -184.905 988.564 -184.926 988.546L-187.676 986.299C-187.685 986.291 -187.694 986.283 -187.7 986.273L-189.853 983.566C-189.896 983.51 -189.96 983.498 -190.012 983.535L-193.774 986.241C-193.817 986.271 -193.863 986.27 -193.902 986.24L-203.12 979.43L-207.833 976.567C-207.934 976.506 -208.041 976.622 -208.041 976.792V977.811C-208.041 977.932 -208.099 978.034 -208.175 978.05L-215.007 979.414C-215.056 979.424 -215.099 979.471 -215.123 979.541L-216.338 983.207C-216.383 983.344 -216.5 983.379 -216.573 983.278L-224.002 973.316C-224.02 973.289 -224.035 973.256 -224.044 973.218C-224.326 972.063 -225.338 969.184 -227.274 966.418C-229.234 963.614 -233.36 963.255 -235.195 963.427C-235.207 963.427 -235.219 963.426 -235.231 963.423L-241.7 961.494L-247.471 959.952C-247.556 959.93 -247.636 960.021 -247.657 960.152C-247.85 961.376 -248.721 963.428 -250.978 963.428C-253.394 963.428 -254 965.421 -254 966.418V1174.9C-254 1175.03 -253.93 1175.14 -253.847 1175.14H173.786C173.871 1175.14 173.939 1175.03 173.939 1174.9L183.261 980.816Z" fill="url(#paint5_linear_1365_122)"/>
<path d="M-176.167 916.567H-182.215C-182.365 916.567 -182.486 916.702 -182.486 916.87V1058.52C-182.486 1058.69 -182.365 1058.83 -182.215 1058.83H398.413C398.563 1058.83 398.686 1058.69 398.686 1058.52V932.698C398.686 932.553 398.593 932.429 398.467 932.401L374.711 927.219C374.685 927.214 374.662 927.205 374.638 927.192L347.275 911.394C347.205 911.353 347.122 911.349 347.049 911.382L320.824 923.278C320.758 923.308 320.681 923.307 320.615 923.276L306.637 916.592C306.604 916.576 306.574 916.551 306.547 916.52L293.881 894.299C293.848 894.258 290.3 896.96 290.25 896.946C281.421 908.288 275.727 906.437 274.063 908.288C266.718 916.452 251.316 929.634 248.68 925.156C248.59 925.002 248.404 924.932 248.264 925.028L229.787 937.785C229.72 937.83 229.644 937.842 229.571 937.822C225.823 936.838 217.919 944.845 209.013 947.655C200.607 950.307 181.594 961.082 180.666 962.944C180.589 963.098 180.702 963.341 180.649 963.507L171.853 991.182C171.81 991.317 171.687 991.4 171.56 991.38L159.829 989.564C159.792 989.558 159.756 989.561 159.719 989.572L147.223 993.422C147.18 993.435 147.136 993.436 147.094 993.426L131.08 989.563C131.059 989.558 131.039 989.55 131.02 989.539L121.399 984.359C121.349 984.332 121.293 984.323 121.238 984.333L110.987 986.176L90.8008 989.551C90.7831 989.554 90.7638 989.555 90.7458 989.554C85.9638 989.275 86.6534 989.713 78.0076 984.318C73.0116 981.2 64.8347 974.391 55.2969 974.35C55.241 974.349 55.1861 974.33 55.1402 974.294L47.378 968.154C47.3324 968.118 47.2774 968.098 47.2215 968.098H25.6817C25.6128 968.098 25.5466 968.127 25.4963 968.18L12.1264 982.208C12.0761 982.261 12.0099 982.29 11.941 982.29H-4.01208C-4.0447 982.29 -4.07732 982.297 -4.10794 982.31L-16.6808 987.634C-16.7717 987.673 -16.8745 987.654 -16.9494 987.585L-31.1909 974.419C-31.2395 974.374 -31.3007 974.349 -31.3636 974.349H-51.1756H-71.0697C-71.1722 974.349 -71.2657 974.285 -71.312 974.183L-76.8405 961.891C-76.8534 961.862 -76.8708 961.835 -76.8914 961.812L-94.4672 942.273C-94.4822 942.256 -94.4952 942.238 -94.5065 942.218C-97.4428 936.932 -101.352 931.15 -113.487 923.325C-125.552 915.546 -162.708 907.179 -164.814 910.243C-164.848 910.292 -164.884 910.331 -164.934 910.359L-176.046 916.536C-176.084 916.556 -176.125 916.567 -176.167 916.567Z" fill="url(#paint6_linear_1365_122)"/>
<path d="M-33.8835 1017.56C-34.2955 1017.07 -34.2526 1016.84 -34.0479 1016.76C-33.963 1016.72 -33.8835 1016.8 -33.8835 1016.88V1017.56C-33.3722 1018.18 -32.1597 1019.19 -29.6852 1020.78C-24.7972 1023.93 -19.995 1022.13 -18.159 1020.81C-18.1305 1020.79 -18.0972 1020.78 -18.0619 1020.78H-3.17707C-3.12613 1020.78 -3.07807 1020.76 -3.04796 1020.72L7.30542 1007.36C7.33553 1007.32 7.38359 1007.29 7.43452 1007.29H18.4709C18.5202 1007.29 18.5667 1007.27 18.5968 1007.24L29.7242 993.833C29.7376 993.817 29.754 993.804 29.7732 993.794L40.9191 988.002C40.9329 987.995 40.9454 987.986 40.9566 987.975L45.5025 983.593C45.5086 983.587 45.515 983.582 45.5217 983.577L51.5105 979.399C51.5515 979.37 51.5755 979.325 51.5755 979.277V977.654C51.5755 977.57 51.6473 977.502 51.7357 977.502H55.113C55.1748 977.502 55.2312 977.469 55.2578 977.416L56.7824 974.365C56.7942 974.342 56.8121 974.321 56.8346 974.306L58.998 972.859C59.0249 972.841 59.0572 972.831 59.0902 972.831H59.9988C60.0872 972.831 60.1589 972.763 60.1589 972.679V971.222C60.1589 971.18 60.1772 971.14 60.2096 971.111L63.1354 968.515C63.194 968.463 63.284 968.46 63.3462 968.508L70.8599 974.308C70.8785 974.322 70.8999 974.332 70.923 974.338L84.5873 977.499C84.5976 977.501 84.6072 977.505 84.6165 977.509L103.287 985.67C103.328 985.689 103.38 985.688 103.421 985.669C104.491 985.202 107 984.595 109.047 985.7C111.129 986.824 116.229 990.027 118.539 991.503C118.555 991.512 118.568 991.524 118.577 991.537L122.656 996.701C122.662 996.712 122.672 996.721 122.684 996.73L136.928 1007.28C136.937 1007.29 136.947 1007.3 136.96 1007.3L141.56 1009.3C141.592 1009.31 141.614 1009.33 141.63 1009.36C142.268 1010.37 143.729 1012.32 144.687 1012.32C145.622 1012.32 146.977 1011.5 147.605 1011.04C147.647 1011.01 147.701 1011 147.749 1011.02C148.297 1011.19 149.543 1011.65 150.748 1012.32C152.01 1013.02 153.932 1011.74 154.749 1011.01C154.756 1011 154.765 1010.99 154.778 1010.99L157.652 1009.37C157.709 1009.34 157.78 1009.35 157.834 1009.38L170.319 1018.56C170.335 1018.57 170.351 1018.58 170.37 1018.58L173.772 1019.63C173.788 1019.63 173.801 1019.64 173.811 1019.64L185.321 1026.84C185.35 1026.85 185.379 1026.86 185.411 1026.86H188.912C188.967 1026.86 189.018 1026.84 189.047 1026.79L189.979 1025.43C190.008 1025.39 190.059 1025.36 190.114 1025.36H195.377C195.416 1025.36 195.454 1025.35 195.483 1025.32L199.497 1021.96C199.526 1021.94 199.564 1021.93 199.603 1021.93H200.785C200.827 1021.93 200.865 1021.94 200.897 1021.97L204.559 1025.26C204.623 1025.32 204.725 1025.32 204.786 1025.26L208.14 1022C208.188 1021.96 208.262 1021.94 208.323 1021.97L211.728 1023.46C211.802 1023.49 211.892 1023.46 211.933 1023.4L212.885 1021.93C213.353 1021.16 214.583 1019.63 215.778 1019.63C217.271 1019.63 215.124 1018.58 219.417 1018.58C222.774 1018.58 224.504 1017.34 224.985 1016.68C225.004 1016.65 225.01 1016.62 225.01 1016.59C225.01 1016.27 225.283 1015.9 226.414 1016.64C227.605 1017.41 234.897 1021.52 238.421 1023.5C238.44 1023.51 238.453 1023.52 238.466 1023.54L239.91 1025.32C239.93 1025.35 239.958 1025.37 239.987 1025.38L244.86 1026.85C244.876 1026.86 244.895 1026.86 244.911 1026.86H247.612C247.657 1026.86 247.701 1026.88 247.734 1026.91L249.403 1028.73C249.473 1028.81 249.608 1028.79 249.662 1028.7L250.389 1027.49C250.473 1027.34 251.011 1027.35 251.133 1027.47C251.546 1027.85 252.356 1028.35 253.843 1028.89C256.319 1029.78 258.11 1030.92 258.741 1031.41C258.77 1031.43 258.808 1031.44 258.844 1031.44H264.197H265.465C265.491 1031.44 265.517 1031.44 265.539 1031.43L267.823 1030.31C267.833 1030.3 267.839 1030.3 267.849 1030.29L269.624 1028.95C269.672 1028.91 269.736 1028.9 269.79 1028.93L272.901 1030.27C272.943 1030.29 272.991 1030.29 273.036 1030.27L280.711 1026.86L284.597 1025.44C284.703 1025.4 284.815 1025.48 284.815 1025.58V1026.02C284.815 1026.1 284.876 1026.16 284.956 1026.17L290.61 1026.85C290.662 1026.86 290.71 1026.89 290.732 1026.93L291.719 1028.72C291.767 1028.81 291.889 1028.83 291.966 1028.77L298.126 1023.8C298.145 1023.79 298.161 1023.76 298.171 1023.74C298.411 1023.16 299.257 1021.72 300.862 1020.34C302.499 1018.93 305.933 1018.75 307.468 1018.84C307.481 1018.84 307.493 1018.84 307.506 1018.84L312.898 1017.87L317.681 1017.1C317.771 1017.09 317.854 1017.15 317.876 1017.23C318.056 1017.85 318.786 1018.84 320.641 1018.84C322.656 1018.84 323.162 1019.84 323.162 1020.34V1124.81C323.162 1124.89 323.088 1124.96 323.002 1124.96H-33.7233C-33.8117 1124.96 -33.8835 1124.89 -33.8835 1124.81V1017.56Z" fill="#104F68"/>
</g>
</g>
<defs>
<filter id="filter0_d_1365_122" x="0" y="0" width="288" height="1088" filterUnits="userSpaceOnUse" color-interpolation-filters="sRGB">
<feFlood flood-opacity="0" result="BackgroundImageFix"/>
<feColorMatrix in="SourceAlpha" type="matrix" values="0 0 0 0 0 0 0 0 0 0 0 0 0 0 0 0 0 0 127 0" result="hardAlpha"/>
<feOffset dy="4"/>
<feGaussianBlur stdDeviation="2"/>
<feComposite in2="hardAlpha" operator="out"/>
<feColorMatrix type="matrix" values="0 0 0 0 0 0 0 0 0 0 0 0 0 0 0 0 0 0 0.25 0"/>
<feBlend mode="normal" in2="BackgroundImageFix" result="effect1_dropShadow_1365_122"/>
<feBlend mode="normal" in="SourceGraphic" in2="effect1_dropShadow_1365_122" result="shape"/>
</filter>
<linearGradient id="paint0_linear_1365_122" x1="144" y1="0" x2="144" y2="1080" gradientUnits="userSpaceOnUse">
<stop offset="0.225962" stop-color="#5F9892"/>
<stop offset="0.802885" stop-color="#E3AA01"/>
</linearGradient>
<linearGradient id="paint1_linear_1365_122" x1="200.442" y1="703.605" x2="197.352" y2="1020.22" gradientUnits="userSpaceOnUse">
<stop offset="0.158654" stop-color="#5F9892"/>
<stop offset="1" stop-color="#1F3230"/>
</linearGradient>
<linearGradient id="paint2_linear_1365_122" x1="200.442" y1="703.605" x2="197.352" y2="1020.22" gradientUnits="userSpaceOnUse">
<stop offset="0.158654" stop-color="#5F9892"/>
<stop offset="1" stop-color="#1F3230"/>
</linearGradient>
<linearGradient id="paint3_linear_1365_122" x1="200.442" y1="703.605" x2="197.352" y2="1020.22" gradientUnits="userSpaceOnUse">
<stop offset="0.158654" stop-color="#5F9892"/>
<stop offset="1" stop-color="#1F3230"/>
</linearGradient>
<linearGradient id="paint4_linear_1365_122" x1="172.687" y1="1111.44" x2="172.687" y2="841.042" gradientUnits="userSpaceOnUse">
<stop stop-color="#016C98"/>
<stop offset="0.269231" stop-color="#336995"/>
<stop offset="0.634615" stop-color="#606693"/>
<stop offset="1" stop-color="#AA618F"/>
</linearGradient>
<linearGradient id="paint5_linear_1365_122" x1="-52.1411" y1="1153.4" x2="-52.1411" y2="841.183" gradientUnits="userSpaceOnUse">
<stop stop-color="#048DAC"/>
<stop offset="0.514423" stop-color="#004150"/>
<stop offset="0.913462" stop-color="#605073"/>
<stop offset="1" stop-color="#B05D8F"/>
</linearGradient>
<linearGradient id="paint6_linear_1365_122" x1="-182.486" y1="976.562" x2="398.686" y2="976.562" gradientUnits="userSpaceOnUse">
<stop stop-color="#B05D8F"/>
<stop offset="0.644231" stop-color="#01577A"/>
</linearGradient>
<clipPath id="clip0_1365_122">
<rect width="280" height="1080" fill="white" transform="translate(4)"/>
</clipPath>
</defs>
</svg>
