<svg width="280" height="1080" viewBox="0 0 280 1080" fill="none" xmlns="http://www.w3.org/2000/svg">
<g clip-path="url(#clip0_1365_122)">
<rect width="280" height="1080" fill="white"/>
<path d="M0 0H280V1080H0V0Z" fill="url(#paint0_linear_1365_122)"/>
<path d="M-24.6707 846.399C-26.027 847.405 -27.1453 848.489 -28.0104 849.656C-44.2118 871.518 -64.8916 846.21 -79.1977 823.944C-87.2334 818.795 -92.4846 813.51 -94.2828 808.191C-96.7543 807.741 -96.9821 807.358 -94.6119 807.064C-97.9478 793.479 -95.6176 796.758 -89.9031 806.343C-56.5384 800.524 43.5428 771.862 103.388 786.174C211.484 745.705 308.704 772.892 301.415 818.042C307.061 817.756 312.399 817.431 317.388 817.064C370.023 783.821 368.132 827.413 295.388 833.064C298.666 827.892 300.637 822.865 301.415 818.042C189.754 823.692 -42.5564 813.893 -88.3375 808.979C-85.7705 813.308 -82.6721 818.537 -79.1977 823.944C-66.8169 831.877 -47.8262 839.488 -24.6707 846.399C21.9601 811.825 349.875 870.329 338.085 848.652C325.952 826.345 385.644 861.454 271.185 876.567C193.588 886.812 57.9481 871.057 -24.6707 846.399Z" fill="url(#paint1_linear_1365_122)"/>
<path d="M103.388 915.064C91.3872 883.065 -136.318 886.701 -16.6121 901.064C-85.9204 917.485 -61.8741 1004.52 -36.9547 1012.06C26.1208 928.994 285.18 1003.28 405.388 915.064C525.596 826.844 115.388 947.064 103.388 915.064Z" fill="url(#paint2_linear_1365_122)"/>
<path d="M153.996 707.37C267.103 686.15 286.508 733.53 204.921 736.009C185.076 735.214 136.251 753.509 105.002 754.622C-3.79871 737.4 -84.6717 734.613 -135.114 738.714C-146.161 741.828 -156.23 744.943 -164.982 747.991C-220.368 737.574 -136.514 789.963 -184.907 768.567C-210.743 757.144 -192.892 743.411 -135.114 738.714C-29.3131 708.889 166.216 679.075 153.996 707.37Z" fill="url(#paint3_linear_1365_122)"/>
<path d="M423.469 933.565C424.109 932.737 424.007 932.361 423.664 932.254C423.561 932.221 423.469 932.314 423.469 932.424V933.565C422.711 934.545 420.916 936.158 417.253 938.708C410.005 943.754 402.884 940.86 400.175 938.747C400.142 938.722 400.103 938.708 400.061 938.708H377.983C377.923 938.708 377.867 938.679 377.831 938.63L362.475 917.21C362.439 917.16 362.382 917.131 362.322 917.131H345.935C345.877 917.131 345.822 917.104 345.786 917.057L329.292 895.584C329.277 895.564 329.257 895.547 329.235 895.534L312.718 886.259C312.702 886.25 312.687 886.238 312.674 886.225L305.936 879.205C305.929 879.198 305.922 879.191 305.914 879.185L297.025 872.482C296.976 872.446 296.948 872.388 296.948 872.327V869.656C296.948 869.549 296.863 869.463 296.759 869.463H291.68C291.608 869.463 291.541 869.42 291.51 869.352L289.234 864.432C289.22 864.401 289.199 864.376 289.172 864.356L285.947 862.024C285.915 862.001 285.877 861.988 285.838 861.988H284.429C284.325 861.988 284.24 861.902 284.24 861.795V859.392C284.24 859.339 284.219 859.288 284.181 859.251L279.803 855.052C279.734 854.986 279.628 854.982 279.554 855.044L268.389 864.358C268.367 864.376 268.342 864.389 268.315 864.396L248.07 869.458C248.058 869.461 248.046 869.465 248.035 869.471L220.37 882.54C220.319 882.564 220.261 882.564 220.21 882.54C218.641 881.791 214.905 880.804 211.864 882.579C208.778 884.379 201.22 889.51 197.801 891.869C197.783 891.881 197.769 891.895 197.756 891.913L191.713 900.187C191.703 900.2 191.691 900.213 191.678 900.223L170.582 917.117C170.571 917.126 170.558 917.134 170.545 917.14L163.713 920.349C163.678 920.366 163.649 920.392 163.629 920.426C162.692 922.04 160.522 925.17 159.101 925.17C157.706 925.17 155.676 923.839 154.759 923.117C154.71 923.078 154.646 923.065 154.587 923.085C153.789 923.35 151.926 924.087 150.123 925.17C148.252 926.293 145.405 924.247 144.199 923.069C144.188 923.059 144.177 923.05 144.165 923.043L139.875 920.442C139.807 920.401 139.724 920.407 139.663 920.455L121.142 935.162C121.126 935.176 121.107 935.186 121.085 935.193L116.031 936.867C116.016 936.872 116.001 936.88 115.986 936.889L98.9266 948.407C98.8963 948.428 98.8585 948.44 98.8207 948.44C98.7829 948.44 93.593 948.44 93.593 948.44C93.5326 948.44 93.472 948.406 93.438 948.351L92.0281 946.13C91.9941 946.075 91.9336 946.042 91.8694 946.042C91.8051 946.042 84.0334 946.042 84.0334 946.042C83.9881 946.042 83.9427 946.025 83.9087 945.993L77.9363 940.59C77.9023 940.559 77.857 940.542 77.8116 940.542H76.0274C75.9783 940.542 75.9292 940.561 75.8952 940.595L70.4218 945.911C70.3462 945.983 70.229 945.981 70.1572 945.906L65.1335 940.639C65.0768 940.581 64.9899 940.565 64.9181 940.599L59.8038 943.009C59.7169 943.05 59.6148 943.018 59.5656 942.934L58.1331 940.542C57.4413 939.32 55.6194 936.875 53.8503 936.875C51.639 936.875 54.818 935.183 48.4639 935.183C43.4668 935.183 40.9114 933.184 40.2122 932.134C40.1895 932.099 40.1781 932.057 40.1819 932.014C40.1895 931.506 39.8002 930.891 38.103 932.08C36.3415 933.319 25.5307 939.905 20.3181 943.062C20.2954 943.074 20.2804 943.091 20.2652 943.11L18.1144 945.994C18.0879 946.025 18.0577 946.048 18.0199 946.061L10.785 948.43C10.7661 948.436 10.7472 948.44 10.7283 948.44H6.69885C6.64594 948.44 6.59302 948.464 6.55524 948.506L4.02643 951.477C3.93951 951.578 3.78448 951.562 3.72021 951.446L2.49554 949.238C2.39722 949.056 1.79999 949.084 1.66388 949.24C1.11578 949.871 -0.0975952 950.744 -2.50165 951.683C-6.18713 953.122 -8.84821 954.95 -9.77057 955.729C-9.80835 955.758 -9.84991 955.773 -9.89148 955.773H-17.837H-19.7231C-19.7534 955.773 -19.7836 955.766 -19.8101 955.751L-23.2045 953.949C-23.2158 953.943 -23.2272 953.936 -23.2348 953.928L-25.8921 951.757C-25.9488 951.712 -26.0244 951.702 -26.0886 951.733L-30.7381 953.903C-30.791 953.926 -30.8477 953.926 -30.8969 953.902L-42.2822 948.44L-48.1032 946.143C-48.228 946.095 -48.3604 946.188 -48.3604 946.324V947.141C-48.3604 947.238 -48.4321 947.321 -48.5267 947.333L-56.9635 948.427C-57.024 948.435 -57.0807 948.473 -57.1072 948.529L-58.6116 951.468C-58.6645 951.579 -58.8082 951.606 -58.8989 951.526L-68.0729 943.536C-68.0994 943.515 -68.1183 943.488 -68.1296 943.457C-68.4774 942.532 -69.7285 940.222 -72.1175 938.004C-74.5405 935.755 -79.6359 935.467 -81.9001 935.605C-81.919 935.605 -81.9303 935.604 -81.9492 935.601L-91.0426 925.17L-105.128 932.014C-105.128 916.313 -113.168 931.909 -113.191 932.014C-143.317 935.925 -159.317 960.702 -119.584 945.906C-122.566 945.906 -127.419 954.974 -127.419 955.773L-105.128 1105.21C-105.128 1105.32 1.55804 1105.41 1.66388 1105.41H529.882C529.987 1105.41 423.469 1105.32 423.469 1105.21V933.565Z" fill="url(#paint4_linear_1365_122)"/>
<path d="M144.719 989.141C154.909 996.605 146.069 1007.2 146.069 988.726C146.069 1002.96 161.351 1003.92 147.009 994.541L144.719 989.141C158.343 999.12 130.872 973.672 127.265 976.617C120.13 982.445 113.12 979.102 110.453 976.663C110.421 976.633 110.382 976.617 110.341 976.617H88.6062C88.5467 976.617 88.4913 976.583 88.4564 976.526L73.3383 951.788C73.3033 951.731 73.2475 951.697 73.1884 951.697H57.0558C56.9985 951.697 56.9446 951.665 56.9097 951.612L40.6714 926.812C40.6562 926.789 40.6368 926.769 40.6149 926.754L24.3548 916.042C24.3391 916.032 24.3242 916.019 24.3116 916.003L17.6786 907.895C17.6715 907.887 17.6641 907.879 17.6559 907.872L8.90533 900.131C8.85773 900.089 8.8295 900.022 8.8295 899.952V896.867C8.8295 896.744 8.74619 896.644 8.64354 896.644H3.64423C3.57245 896.644 3.507 896.594 3.47614 896.516L1.23586 890.833C1.22209 890.799 1.20126 890.769 1.17487 890.746L-2.00031 888.052C-2.03154 888.026 -2.06911 888.011 -2.10779 888.011H-3.49417C-3.59718 888.011 -3.68011 887.911 -3.68011 887.788V885.013C-3.68011 884.952 -3.70169 884.893 -3.73926 884.85L-8.04909 880.001C-8.11678 879.924 -8.2213 879.92 -8.29344 879.991L-19.285 890.749C-19.3066 890.77 -19.3315 890.784 -19.3583 890.792L-39.2886 896.639C-39.3005 896.642 -39.3117 896.647 -39.3224 896.653L-66.5578 911.747C-66.6084 911.776 -66.6653 911.776 -66.7155 911.747C-68.2603 910.883 -71.9379 909.742 -74.932 911.792C-77.9704 913.871 -85.4104 919.797 -88.7764 922.521C-88.7939 922.535 -88.808 922.552 -88.8206 922.572L-94.7698 932.128C-94.7798 932.143 -94.7914 932.158 -94.8044 932.17L-115.572 951.681C-115.583 951.692 -115.594 951.701 -115.609 951.708L-122.337 955.414C-122.37 955.433 -122.396 955.463 -122.419 955.502C-123.341 957.366 -125.476 960.981 -126.874 960.981C-128.25 960.981 -130.247 959.444 -131.151 958.61C-131.199 958.565 -131.262 958.551 -131.318 958.573C-132.106 958.88 -133.94 959.73 -135.714 960.981C-137.555 962.278 -140.359 959.916 -141.545 958.555C-141.556 958.543 -141.567 958.533 -141.578 958.525L-145.803 955.521C-145.87 955.474 -145.952 955.48 -146.011 955.536L-164.242 972.521C-164.26 972.537 -164.279 972.549 -164.301 972.558L-169.277 974.491C-169.292 974.497 -169.307 974.506 -169.322 974.517L-186.116 987.819C-186.146 987.843 -186.179 987.856 -186.217 987.856H-191.363C-191.427 987.856 -191.486 987.818 -191.52 987.754L-192.907 985.189C-192.94 985.126 -193 985.087 -193.059 985.087H-200.776C-200.821 985.087 -200.865 985.067 -200.899 985.031L-206.778 978.791C-206.812 978.755 -206.856 978.735 -206.901 978.735H-208.66C-208.708 978.735 -208.753 978.757 -208.787 978.796L-214.175 984.936C-214.25 985.02 -214.365 985.017 -214.436 984.93L-219.385 978.848C-219.437 978.78 -219.523 978.761 -219.594 978.801L-224.629 981.584C-224.715 981.631 -224.815 981.594 -224.863 981.498L-226.273 978.735C-226.953 977.323 -228.75 974.5 -230.49 974.5C-232.666 974.5 -229.538 972.545 -235.793 972.545C-240.71 972.545 -243.231 970.238 -243.915 969.025C-243.941 968.983 -243.949 968.936 -243.949 968.886C-243.938 968.299 -244.324 967.589 -245.99 968.962C-247.727 970.393 -258.367 977.999 -263.503 981.646C-263.521 981.66 -263.54 981.679 -263.555 981.701L-265.671 985.032C-265.697 985.068 -265.727 985.094 -265.764 985.109L-272.885 987.845C-272.904 987.853 -272.923 987.856 -272.945 987.856H-276.909C-276.961 987.856 -277.014 987.884 -277.051 987.933L-279.542 991.365C-279.624 991.481 -279.78 991.462 -279.844 991.328L-281.045 988.777C-281.145 988.568 -281.733 988.6 -281.867 988.781C-282.406 989.509 -283.6 990.518 -285.969 991.603C-289.598 993.264 -292.213 995.375 -293.124 996.275C-293.157 996.308 -293.198 996.326 -293.243 996.326H-301.06H-302.919C-302.949 996.326 -302.979 996.317 -303.005 996.301L-306.348 994.219C-306.359 994.212 -306.371 994.204 -306.378 994.195L-308.996 991.688C-309.048 991.636 -309.126 991.624 -309.189 991.659L-313.764 994.166C-313.816 994.193 -313.872 994.192 -313.92 994.165L-325.129 987.856L-330.859 985.204C-330.982 985.148 -331.112 985.256 -331.112 985.412V986.357C-331.112 986.469 -331.183 986.564 -331.276 986.578L-339.584 987.841C-339.643 987.851 -339.696 987.895 -339.725 987.959L-341.202 991.355C-341.258 991.482 -341.399 991.514 -341.488 991.421L-350.521 982.193C-350.544 982.168 -350.562 982.138 -350.573 982.102C-350.916 981.033 -352.146 978.365 -354.501 975.803C-356.884 973.206 -361.901 972.874 -364.133 973.033C-364.147 973.034 -364.162 973.032 -364.177 973.029L-372.043 971.242L-379.06 969.815C-379.164 969.794 -379.261 969.878 -379.287 969.999C-379.521 971.133 -380.581 973.034 -383.326 973.034C-386.264 973.034 -387 974.88 -387 975.803V1168.92C-387 1169.04 -386.914 1169.14 -386.814 1169.14H133.198C133.301 1169.14 133.384 1169.04 133.384 1168.92L144.719 989.141Z" fill="url(#paint5_linear_1365_122)"/>
<path d="M-292.353 929.628H-299.708C-299.89 929.628 -300.038 929.753 -300.038 929.908V1061.12C-300.038 1061.27 -299.89 1061.4 -299.708 1061.4H406.35C406.533 1061.4 406.682 1061.27 406.682 1061.12V944.57C406.682 944.435 406.569 944.32 406.415 944.294L377.528 939.495C377.496 939.49 377.467 939.481 377.439 939.469L344.165 924.836C344.08 924.798 343.979 924.794 343.89 924.825L312 935.844C311.919 935.872 311.826 935.871 311.745 935.842L294.748 929.651C294.708 929.636 294.671 929.613 294.639 929.584L279.236 909.001C279.196 908.963 274.882 911.466 274.821 911.453C264.085 921.959 257.16 920.244 255.137 921.959C246.205 929.521 227.476 941.731 224.271 937.583C224.162 937.441 223.935 937.376 223.765 937.465L201.297 949.281C201.216 949.323 201.122 949.334 201.033 949.316C196.477 948.404 186.865 955.821 176.035 958.423C165.813 960.88 142.693 970.861 141.564 972.586C141.471 972.729 141.608 972.953 141.544 973.107L130.847 998.742C130.795 998.867 130.645 998.944 130.491 998.926L116.226 997.243C116.181 997.238 116.137 997.241 116.092 997.251L100.897 1000.82C100.845 1000.83 100.791 1000.83 100.74 1000.82L81.2668 997.243C81.2414 997.238 81.2167 997.23 81.1932 997.221L69.494 992.422C69.4328 992.397 69.3649 992.389 69.2985 992.398L56.8335 994.106L32.286 997.231C32.2646 997.234 32.2411 997.235 32.2192 997.234C26.4042 996.976 27.2427 997.382 16.7292 992.384C10.654 989.496 0.710632 983.189 -10.8875 983.151C-10.9554 983.15 -11.0222 983.132 -11.0781 983.099L-20.5171 977.411C-20.5726 977.378 -20.6394 977.36 -20.7073 977.36H-46.9003C-46.9841 977.36 -47.0646 977.387 -47.1257 977.436L-63.3839 990.43C-63.445 990.479 -63.5255 990.506 -63.6093 990.506H-83.0087C-83.0483 990.506 -83.088 990.512 -83.1252 990.524L-98.4141 995.456C-98.5246 995.492 -98.6496 995.474 -98.7407 995.41L-116.059 983.215C-116.118 983.173 -116.192 983.15 -116.269 983.15H-140.361H-164.552C-164.677 983.15 -164.791 983.091 -164.847 982.996L-171.57 971.61C-171.585 971.583 -171.607 971.559 -171.632 971.537L-193.004 953.439C-193.022 953.423 -193.038 953.406 -193.052 953.388C-196.623 948.492 -201.376 943.136 -216.133 935.887C-230.804 928.682 -275.987 920.932 -278.548 923.769C-278.589 923.815 -278.632 923.851 -278.693 923.877L-292.206 929.598C-292.252 929.618 -292.302 929.628 -292.353 929.628Z" fill="url(#paint6_linear_1365_122)"/>
<path d="M-119.333 1023.18C-119.834 1022.72 -119.782 1022.51 -119.533 1022.43C-119.43 1022.4 -119.333 1022.47 -119.333 1022.55V1023.18C-118.712 1023.75 -117.237 1024.68 -114.228 1026.16C-108.284 1029.08 -102.445 1027.41 -100.212 1026.19C-100.177 1026.17 -100.137 1026.16 -100.094 1026.16H-81.9936C-81.9317 1026.16 -81.8732 1026.14 -81.8366 1026.1L-69.2467 1013.73C-69.21 1013.69 -69.1516 1013.67 -69.0897 1013.67H-55.6692C-55.6092 1013.67 -55.5527 1013.65 -55.5161 1013.61L-41.9849 1001.2C-41.9686 1001.18 -41.9487 1001.17 -41.9253 1001.16L-28.3716 995.798C-28.3548 995.791 -28.3396 995.783 -28.326 995.773L-22.7981 991.713C-22.7907 991.708 -22.7829 991.703 -22.7747 991.699L-15.4922 987.829C-15.4423 987.802 -15.4131 987.76 -15.4131 987.716V986.213C-15.4131 986.135 -15.3259 986.072 -15.2183 986.072H-11.1115C-11.0363 986.072 -10.9678 986.041 -10.9355 985.992L-9.0815 983.166C-9.06709 983.145 -9.04529 983.126 -9.01802 983.112L-6.38729 981.771C-6.35457 981.754 -6.31522 981.745 -6.27509 981.745H-5.17028C-5.06276 981.745 -4.9755 981.682 -4.9755 981.605V980.255C-4.9755 980.216 -4.95329 980.179 -4.91394 980.152L-1.35605 977.747C-1.28476 977.699 -1.17532 977.696 -1.09974 977.741L8.03713 983.113C8.05973 983.126 8.08581 983.136 8.11386 983.141L24.73 986.069C24.7424 986.071 24.7541 986.074 24.7654 986.078L47.4689 993.637C47.5195 993.655 47.5818 993.655 47.6325 993.637C48.9336 993.204 51.9839 992.642 54.4733 993.665C57.0054 994.707 63.2073 997.674 66.016 999.041C66.0355 999.049 66.0511 999.06 66.0628 999.072L71.0219 1003.86C71.0297 1003.87 71.0414 1003.87 71.057 1003.88L88.377 1013.66C88.3887 1013.66 88.4004 1013.67 88.416 1013.67L94.0102 1015.53C94.0491 1015.54 94.0764 1015.56 94.0959 1015.58C94.8711 1016.52 96.6475 1018.32 97.8123 1018.32C98.9498 1018.32 100.598 1017.56 101.361 1017.14C101.412 1017.11 101.478 1017.1 101.537 1017.12C102.203 1017.28 103.718 1017.7 105.183 1018.32C106.718 1018.97 109.055 1017.79 110.049 1017.11C110.056 1017.1 110.068 1017.09 110.084 1017.09L113.578 1015.59C113.648 1015.56 113.734 1015.57 113.8 1015.6L128.981 1024.1C129.001 1024.11 129.02 1024.12 129.044 1024.13L133.181 1025.09C133.2 1025.1 133.216 1025.1 133.228 1025.11L147.225 1031.77C147.26 1031.78 147.295 1031.79 147.334 1031.79H151.592C151.658 1031.79 151.72 1031.77 151.755 1031.73L152.889 1030.47C152.924 1030.43 152.986 1030.4 153.053 1030.4H159.453C159.5 1030.4 159.547 1030.39 159.582 1030.37L164.463 1027.26C164.498 1027.23 164.545 1027.22 164.591 1027.22H166.029C166.08 1027.22 166.126 1027.23 166.165 1027.26L170.618 1030.31C170.696 1030.36 170.821 1030.36 170.895 1030.31L174.973 1027.29C175.032 1027.25 175.121 1027.24 175.195 1027.26L179.337 1028.64C179.426 1028.67 179.535 1028.64 179.586 1028.58L180.743 1027.22C181.312 1026.51 182.808 1025.1 184.261 1025.1C186.076 1025.1 183.466 1024.12 188.686 1024.12C192.769 1024.12 194.872 1022.97 195.457 1022.36C195.48 1022.34 195.488 1022.3 195.488 1022.27C195.488 1021.98 195.819 1021.64 197.194 1022.32C198.643 1023.04 207.51 1026.85 211.795 1028.68C211.818 1028.69 211.834 1028.7 211.85 1028.71L213.607 1030.37C213.63 1030.39 213.665 1030.41 213.7 1030.42L219.625 1031.79C219.645 1031.79 219.668 1031.79 219.688 1031.79H222.972C223.026 1031.79 223.081 1031.81 223.12 1031.84L225.149 1033.52C225.235 1033.59 225.399 1033.58 225.465 1033.5L226.349 1032.37C226.45 1032.24 227.105 1032.25 227.253 1032.35C227.756 1032.71 228.741 1033.17 230.549 1033.67C233.56 1034.5 235.738 1035.55 236.505 1036.01C236.54 1036.03 236.587 1036.04 236.63 1036.04H243.139H244.682C244.713 1036.04 244.744 1036.03 244.772 1036.02L247.549 1034.98C247.561 1034.98 247.569 1034.97 247.58 1034.97L249.739 1033.72C249.797 1033.69 249.875 1033.68 249.941 1033.71L253.724 1034.95C253.775 1034.97 253.833 1034.97 253.888 1034.95L263.221 1031.79L267.947 1030.48C268.075 1030.44 268.212 1030.51 268.212 1030.61V1031.02C268.212 1031.09 268.286 1031.15 268.383 1031.15L275.259 1031.78C275.321 1031.79 275.38 1031.82 275.407 1031.86L276.607 1033.51C276.665 1033.59 276.813 1033.61 276.907 1033.56L284.398 1028.96C284.422 1028.94 284.441 1028.92 284.453 1028.9C284.745 1028.36 285.773 1027.03 287.725 1025.75C289.716 1024.45 293.892 1024.28 295.758 1024.36C295.774 1024.36 295.789 1024.36 295.805 1024.36L302.361 1023.46L308.177 1022.75C308.286 1022.74 308.388 1022.79 308.415 1022.87C308.633 1023.44 309.521 1024.36 311.777 1024.36C314.227 1024.36 314.843 1025.29 314.843 1025.75V1122.52C314.843 1122.6 314.753 1122.66 314.648 1122.66H-119.139C-119.246 1122.66 -119.333 1122.6 -119.333 1122.52V1023.18Z" fill="#104F68"/>
</g>
<defs>
<linearGradient id="paint0_linear_1365_122" x1="140" y1="0" x2="140" y2="1080" gradientUnits="userSpaceOnUse">
<stop stop-color="#456E6A"/>
<stop offset="0.442308" stop-color="#568641"/>
<stop offset="1" stop-color="#456E6A"/>
</linearGradient>
<linearGradient id="paint1_linear_1365_122" x1="57.1554" y1="818.798" x2="279.339" y2="933.867" gradientUnits="userSpaceOnUse">
<stop offset="0.269231" stop-color="#F0D074"/>
<stop offset="0.841346" stop-color="#E3AA01"/>
</linearGradient>
<linearGradient id="paint2_linear_1365_122" x1="57.1554" y1="818.798" x2="279.339" y2="933.867" gradientUnits="userSpaceOnUse">
<stop offset="0.269231" stop-color="#F0D074"/>
<stop offset="0.841346" stop-color="#E3AA01"/>
</linearGradient>
<linearGradient id="paint3_linear_1365_122" x1="-82.6035" y1="764.665" x2="108.123" y2="863.442" gradientUnits="userSpaceOnUse">
<stop offset="0.567308" stop-color="#F0D074"/>
<stop offset="0.966346" stop-color="#E3AA01"/>
</linearGradient>
<linearGradient id="paint4_linear_1365_122" x1="131.868" y1="1110.14" x2="131.868" y2="859.67" gradientUnits="userSpaceOnUse">
<stop offset="0.471154" stop-color="#016C98"/>
<stop offset="0.677885" stop-color="#336995"/>
<stop offset="0.841346" stop-color="#606693"/>
<stop offset="1" stop-color="#AA618F"/>
</linearGradient>
<linearGradient id="paint5_linear_1365_122" x1="-141.535" y1="1149" x2="-141.535" y2="859.8" gradientUnits="userSpaceOnUse">
<stop stop-color="#003845"/>
<stop offset="0.514423" stop-color="#004150"/>
<stop offset="0.913462" stop-color="#605073"/>
<stop offset="1" stop-color="#B05D8F"/>
</linearGradient>
<linearGradient id="paint6_linear_1365_122" x1="-300.038" y1="985.2" x2="406.682" y2="985.2" gradientUnits="userSpaceOnUse">
<stop stop-color="#B05D8F"/>
<stop offset="0.644231" stop-color="#01577A"/>
</linearGradient>
<clipPath id="clip0_1365_122">
<rect width="280" height="1080" fill="white"/>
</clipPath>
</defs>
</svg>
