<svg width="373" height="374" viewBox="0 0 373 374" fill="none" xmlns="http://www.w3.org/2000/svg">
<g clip-path="url(#clip0_878_339)">
<path d="M326.756 85L321.156 79.4C320.711 79.7556 320.2 80.037 319.622 80.2444C319.044 80.4519 318.43 80.5556 317.778 80.5556C316.163 80.5556 314.796 79.9963 313.678 78.8778C312.559 77.7593 312 76.3926 312 74.7778C312 73.163 312.559 71.7963 313.678 70.6778C314.796 69.5593 316.163 69 317.778 69C319.393 69 320.759 69.5593 321.878 70.6778C322.996 71.7963 323.556 73.163 323.556 74.7778C323.556 75.4296 323.452 76.0444 323.244 76.6222C323.037 77.2 322.756 77.7111 322.4 78.1556L328 83.7556L326.756 85ZM317.778 78.7778C318.889 78.7778 319.833 78.3889 320.611 77.6111C321.389 76.8333 321.778 75.8889 321.778 74.7778C321.778 73.6667 321.389 72.7222 320.611 71.9444C319.833 71.1667 318.889 70.7778 317.778 70.7778C316.667 70.7778 315.722 71.1667 314.944 71.9444C314.167 72.7222 313.778 73.6667 313.778 74.7778C313.778 75.8889 314.167 76.8333 314.944 77.6111C315.722 78.3889 316.667 78.7778 317.778 78.7778Z" fill="#003845"/>
<path d="M-5 0H373V317H-5V0Z" fill="url(#paint0_linear_878_339)"/>
<path d="M-12.292 168.541C10.8481 131.07 417.744 177.634 398.089 158.14C378.434 138.647 454.906 168.273 330.612 184.666C206.318 201.059 6.44018 223.799 -17.1439 185.75C-18.6722 183.284 -20.0791 181.223 -21.3678 179.515C-35.2264 189.984 -37.0196 158.763 -21.3678 179.515C-18.7584 177.543 -15.7211 174.094 -12.292 168.541Z" fill="url(#paint1_linear_878_339)"/>
<path d="M-27.9927 139.993C-32.3923 138.502 -29.8532 136.996 -21.8745 135.534C-28.789 122.561 -55.9459 92.516 -1.57378 101.057C120.492 58.175 335.941 55.7811 312.37 104.253C392.436 97.3443 438.363 95.6329 388.331 126.519C273.832 119.423 26.4026 126.685 -21.8745 135.534C-19.2825 140.397 -19.535 142.86 -27.9927 139.993Z" fill="url(#paint2_linear_878_339)"/>
<path d="M454.4 217.024C459.347 196.025 -141.109 232.649 -2.94099 242.294C-76.2346 258.676 -11.3202 254.72 18.676 260.77C102.002 300.276 424.806 190.52 444.608 245.505C464.41 300.491 449.453 238.023 454.4 217.024Z" fill="url(#paint3_linear_878_339)"/>
<g clip-path="url(#clip1_878_339)">
<path d="M473.988 277.471C474.559 276.78 474.468 276.467 474.162 276.378C474.07 276.351 473.988 276.428 473.988 276.52V277.471C473.311 278.288 471.709 279.632 468.438 281.757C461.966 285.962 455.609 283.55 453.19 281.79C453.16 281.768 453.125 281.757 453.088 281.757H433.376C433.322 281.757 433.272 281.733 433.24 281.691L419.529 263.842C419.497 263.8 419.446 263.776 419.393 263.776H404.761C404.709 263.776 404.661 263.753 404.628 263.714L389.902 245.82C389.888 245.803 389.87 245.789 389.85 245.778L375.103 238.049C375.089 238.042 375.075 238.032 375.064 238.021L369.048 232.171C369.042 232.165 369.035 232.159 369.028 232.154L361.091 226.569C361.048 226.538 361.022 226.49 361.022 226.439V224.213C361.022 224.124 360.947 224.052 360.854 224.052H356.32C356.255 224.052 356.195 224.016 356.167 223.96L354.135 219.86C354.123 219.835 354.104 219.813 354.08 219.797L351.2 217.853C351.172 217.834 351.138 217.823 351.103 217.823H349.845C349.752 217.823 349.677 217.751 349.677 217.662V215.66C349.677 215.616 349.657 215.573 349.623 215.543L345.714 212.044C345.653 211.988 345.558 211.985 345.492 212.036L335.524 219.798C335.504 219.814 335.482 219.824 335.457 219.83L317.382 224.049C317.371 224.051 317.361 224.054 317.351 224.059L292.65 234.95C292.604 234.97 292.552 234.97 292.507 234.95C291.106 234.326 287.77 233.503 285.055 234.982C282.299 236.483 275.552 240.758 272.499 242.724C272.483 242.734 272.47 242.746 272.458 242.761L267.063 249.656C267.054 249.667 267.043 249.677 267.032 249.686L248.196 263.764C248.186 263.772 248.175 263.778 248.163 263.784L242.063 266.458C242.031 266.472 242.006 266.493 241.988 266.522C241.151 267.867 239.214 270.475 237.945 270.475C236.699 270.475 234.887 269.366 234.068 268.764C234.024 268.731 233.967 268.721 233.915 268.738C233.202 268.958 231.539 269.572 229.929 270.475C228.259 271.411 225.716 269.706 224.639 268.724C224.63 268.716 224.62 268.709 224.609 268.702L220.779 266.535C220.718 266.501 220.644 266.505 220.59 266.546L204.053 278.801C204.039 278.813 204.022 278.822 204.002 278.828L199.49 280.223C199.476 280.227 199.463 280.233 199.449 280.241L184.218 289.84C184.191 289.857 184.157 289.866 184.123 289.866C184.09 289.866 179.456 289.866 179.456 289.866C179.402 289.866 179.348 289.839 179.317 289.793L178.059 287.942C178.028 287.896 177.974 287.868 177.917 287.868C177.859 287.868 170.921 287.868 170.921 287.868C170.88 287.868 170.84 287.854 170.809 287.828L165.477 283.325C165.446 283.299 165.406 283.285 165.365 283.285H163.772C163.728 283.285 163.685 283.301 163.654 283.329L158.767 287.759C158.7 287.82 158.595 287.818 158.531 287.755L154.046 283.366C153.995 283.318 153.917 283.304 153.853 283.332L149.287 285.341C149.209 285.375 149.118 285.348 149.074 285.278L147.795 283.285C147.178 282.266 145.551 280.229 143.971 280.229C141.997 280.229 144.835 278.819 139.162 278.819C134.7 278.819 132.419 277.154 131.794 276.278C131.774 276.249 131.764 276.214 131.767 276.179C131.774 275.755 131.427 275.242 129.911 276.233C128.338 277.266 118.686 282.754 114.032 285.385C114.012 285.395 113.998 285.409 113.985 285.425L112.064 287.828C112.041 287.854 112.014 287.874 111.98 287.884L105.52 289.859C105.503 289.864 105.486 289.866 105.47 289.866H101.872C101.825 289.866 101.777 289.887 101.744 289.922L99.4857 292.398C99.4081 292.482 99.2697 292.468 99.2123 292.371L98.1188 290.532C98.0311 290.38 97.4978 290.403 97.3763 290.534C96.8869 291.059 95.8035 291.787 93.657 292.57C90.3664 293.769 87.9905 295.292 87.167 295.941C87.1332 295.965 87.0961 295.977 87.059 295.977H79.9648H78.2807C78.2537 295.977 78.2267 295.971 78.2031 295.959L75.1724 294.457C75.1622 294.452 75.1521 294.447 75.1453 294.44L72.7727 292.631C72.7221 292.593 72.6546 292.585 72.5972 292.61L68.446 294.419C68.3987 294.438 68.3481 294.438 68.3042 294.418L58.1387 289.866L52.9413 287.953C52.83 287.912 52.7118 287.99 52.7118 288.103V288.784C52.7118 288.865 52.6477 288.934 52.5633 288.944L45.0304 289.856C44.9764 289.862 44.9257 289.894 44.9021 289.941L43.5589 292.39C43.5116 292.482 43.3834 292.505 43.3024 292.438L35.1113 285.78C35.0876 285.762 35.0707 285.74 35.0606 285.714C34.7501 284.943 33.633 283.018 31.5001 281.17C29.3367 279.295 24.7872 279.056 22.7656 279.17C22.7487 279.171 22.7386 279.17 22.7217 279.168L14.6026 270.475L2.02637 276.179C2.02637 263.094 -5.15224 276.091 -5.17249 276.179C-32.071 279.438 -46.357 300.085 -10.8805 287.755C-13.5434 287.755 -17.8759 295.311 -17.8759 295.977L2.02637 420.511C2.02637 420.6 97.2818 420.672 97.3763 420.672H569C569.093 420.672 473.988 420.6 473.988 420.511V277.471Z" fill="url(#paint4_linear_878_339)"/>
<path d="M225.104 323.784C234.202 330.004 226.31 338.837 226.31 323.438C226.31 335.302 239.954 336.1 227.148 328.284L225.104 323.784C237.268 332.1 212.74 310.894 209.52 313.348C203.149 318.204 196.89 315.419 194.509 313.385C194.48 313.361 194.446 313.348 194.409 313.348H175.003C174.95 313.348 174.901 313.32 174.869 313.272L161.371 292.657C161.34 292.609 161.29 292.581 161.237 292.581H146.833C146.782 292.581 146.734 292.555 146.703 292.51L132.204 271.844C132.191 271.824 132.173 271.808 132.154 271.795L117.636 262.869C117.622 262.86 117.609 262.849 117.597 262.836L111.675 256.079C111.669 256.072 111.662 256.066 111.655 256.06L103.842 249.609C103.799 249.574 103.774 249.519 103.774 249.46V246.889C103.774 246.787 103.7 246.703 103.608 246.703H99.1442C99.0801 246.703 99.0217 246.662 98.9941 246.597L96.9939 241.861C96.9816 241.832 96.963 241.807 96.9394 241.789L94.1045 239.544C94.0766 239.521 94.043 239.51 94.0085 239.51H92.7707C92.6787 239.51 92.6046 239.426 92.6046 239.323V237.011C92.6046 236.96 92.5854 236.911 92.5518 236.875L88.7038 232.834C88.6433 232.77 88.55 232.767 88.4856 232.826L78.6717 241.791C78.6524 241.808 78.6302 241.82 78.6063 241.827L60.8113 246.699C60.8007 246.702 60.7908 246.706 60.7811 246.711L36.4638 259.29C36.4187 259.313 36.3679 259.313 36.323 259.29C34.9437 258.569 31.6601 257.619 28.9868 259.326C26.274 261.06 19.6312 265.998 16.6258 268.268C16.6102 268.279 16.5976 268.293 16.5863 268.31L11.2746 276.273C11.2656 276.286 11.2553 276.298 11.2437 276.308L-7.299 292.568C-7.30896 292.576 -7.31892 292.584 -7.3322 292.59L-13.3389 295.678C-13.3688 295.694 -13.392 295.719 -13.4119 295.752C-14.2354 297.305 -16.1413 300.318 -17.3898 300.318C-18.6184 300.318 -20.4015 299.037 -21.2083 298.342C-21.2515 298.304 -21.308 298.292 -21.3578 298.311C-22.0617 298.566 -23.6987 299.275 -25.2826 300.318C-26.9262 301.399 -29.4298 299.43 -30.489 298.296C-30.499 298.286 -30.5089 298.278 -30.5189 298.271L-34.2909 295.767C-34.3507 295.728 -34.4237 295.733 -34.4769 295.78L-50.7538 309.935C-50.7704 309.948 -50.787 309.958 -50.8069 309.965L-55.2496 311.576C-55.2629 311.581 -55.2762 311.588 -55.2895 311.597L-70.2846 322.683C-70.3112 322.703 -70.3411 322.714 -70.3743 322.714H-74.9698C-75.0262 322.714 -75.0794 322.682 -75.1093 322.629L-76.3478 320.491C-76.3777 320.438 -76.4308 320.406 -76.4839 320.406H-83.3739C-83.4137 320.406 -83.4535 320.389 -83.4834 320.359L-88.733 315.159C-88.7629 315.129 -88.8028 315.113 -88.8426 315.113H-90.4132C-90.4563 315.113 -90.4962 315.131 -90.5261 315.164L-95.3374 320.28C-95.4038 320.35 -95.5068 320.348 -95.5699 320.275L-99.9893 315.206C-100.036 315.15 -100.112 315.135 -100.175 315.167L-104.671 317.487C-104.748 317.526 -104.837 317.495 -104.88 317.415L-106.139 315.113C-106.746 313.936 -108.35 311.584 -109.904 311.584C-111.847 311.584 -109.054 309.955 -114.639 309.955C-119.029 309.955 -121.28 308.032 -121.891 307.021C-121.914 306.986 -121.921 306.946 -121.921 306.905C-121.911 306.416 -122.256 305.824 -123.744 306.968C-125.294 308.161 -134.794 314.499 -139.38 317.538C-139.396 317.55 -139.413 317.566 -139.426 317.585L-141.316 320.36C-141.339 320.39 -141.365 320.412 -141.399 320.424L-147.757 322.705C-147.774 322.711 -147.791 322.714 -147.81 322.714H-151.35C-151.397 322.714 -151.443 322.737 -151.476 322.777L-153.701 325.637C-153.774 325.734 -153.913 325.718 -153.97 325.607L-155.042 323.481C-155.132 323.306 -155.657 323.334 -155.776 323.484C-156.258 324.09 -157.324 324.932 -159.439 325.836C-162.679 327.22 -165.014 328.979 -165.827 329.729C-165.857 329.757 -165.894 329.772 -165.933 329.772H-172.913H-174.573C-174.6 329.772 -174.626 329.764 -174.65 329.751L-177.635 328.016C-177.645 328.01 -177.655 328.003 -177.661 327.996L-179.999 325.907C-180.045 325.863 -180.115 325.854 -180.172 325.883L-184.256 327.971C-184.302 327.994 -184.352 327.994 -184.395 327.971L-194.403 322.714L-199.52 320.504C-199.629 320.456 -199.746 320.546 -199.746 320.677V321.464C-199.746 321.557 -199.809 321.637 -199.892 321.648L-207.31 322.701C-207.363 322.709 -207.409 322.746 -207.436 322.799L-208.754 325.629C-208.804 325.735 -208.93 325.762 -209.01 325.684L-217.075 317.995C-217.095 317.974 -217.112 317.948 -217.121 317.918C-217.427 317.027 -218.526 314.805 -220.628 312.669C-222.756 310.505 -227.236 310.228 -229.228 310.361C-229.241 310.361 -229.254 310.36 -229.268 310.358L-236.29 308.869L-242.556 307.679C-242.649 307.661 -242.735 307.732 -242.759 307.833C-242.968 308.778 -243.914 310.362 -246.365 310.362C-248.988 310.362 -249.645 311.9 -249.645 312.669V473.598C-249.645 473.7 -249.569 473.784 -249.479 473.784H214.818C214.909 473.784 214.984 473.7 214.984 473.598L225.104 323.784Z" fill="url(#paint5_linear_878_339)"/>
<path d="M-165.139 274.19H-171.706C-171.868 274.19 -172 274.294 -172 274.423V383.767C-172 383.895 -171.868 384 -171.706 384H458.704C458.866 384 459 383.895 459 383.767V286.641C459 286.529 458.899 286.433 458.762 286.412L432.97 282.412C432.941 282.408 432.915 282.401 432.89 282.391L403.181 270.196C403.105 270.165 403.015 270.162 402.935 270.187L374.462 279.37C374.39 279.393 374.307 279.392 374.235 279.368L359.059 274.209C359.023 274.196 358.99 274.177 358.961 274.153L345.209 257.001C345.173 256.969 341.321 259.055 341.267 259.044C331.681 267.799 325.498 266.37 323.692 267.799C315.717 274.101 298.994 284.276 296.133 280.819C296.035 280.701 295.833 280.646 295.681 280.721L275.62 290.568C275.547 290.602 275.464 290.612 275.385 290.597C271.316 289.837 262.735 296.018 253.065 298.186C243.938 300.233 223.295 308.551 222.287 309.988C222.204 310.107 222.327 310.294 222.269 310.423L212.719 331.785C212.672 331.889 212.538 331.953 212.401 331.938L199.664 330.536C199.624 330.532 199.584 330.534 199.545 330.542L185.977 333.514C185.931 333.524 185.883 333.525 185.837 333.517L168.45 330.535C168.428 330.531 168.406 330.525 168.385 330.517L157.939 326.518C157.884 326.498 157.824 326.491 157.764 326.498L146.635 327.921L124.718 330.526C124.698 330.528 124.677 330.529 124.658 330.528C119.466 330.313 120.215 330.652 110.828 326.487C105.403 324.08 96.5252 318.824 86.1698 318.792C86.1091 318.792 86.0495 318.777 85.9996 318.749L77.5719 314.01C77.5224 313.982 77.4627 313.967 77.402 313.967H54.0155C53.9407 313.967 53.8688 313.989 53.8142 314.03L39.298 324.858C39.2434 324.899 39.1715 324.922 39.0967 324.922H21.7759C21.7405 324.922 21.705 324.927 21.6718 324.937L8.02098 329.047C7.92234 329.077 7.81069 329.062 7.72939 329.008L-7.73315 318.846C-7.78591 318.811 -7.85239 318.792 -7.92068 318.792H-29.4312H-51.031C-51.1423 318.792 -51.2438 318.742 -51.294 318.663L-57.2965 309.175C-57.3106 309.153 -57.3294 309.132 -57.3518 309.114L-76.4345 294.032C-76.4508 294.019 -76.4649 294.005 -76.4772 293.99C-79.6652 289.91 -83.9094 285.446 -97.0855 279.406C-110.185 273.402 -150.526 266.943 -152.812 269.308C-152.85 269.346 -152.888 269.376 -152.943 269.398L-165.008 274.165C-165.048 274.181 -165.093 274.19 -165.139 274.19Z" fill="#01577A"/>
<path d="M-10.6572 352.152C-11.1045 351.771 -11.0579 351.588 -10.8357 351.527C-10.7435 351.502 -10.6572 351.559 -10.6572 351.626V352.152C-10.1021 352.624 -8.78558 353.403 -6.09898 354.633C-0.791852 357.063 4.42205 355.675 6.41544 354.657C6.4464 354.641 6.48257 354.633 6.52083 354.633H22.6819C22.7372 354.633 22.7893 354.615 22.822 354.585L34.0631 344.271C34.0958 344.241 34.1479 344.223 34.2032 344.223H46.1858C46.2394 344.223 46.2898 344.207 46.3225 344.179L58.4039 333.833C58.4185 333.82 58.4362 333.81 58.4571 333.802L70.5587 329.332C70.5736 329.326 70.5872 329.319 70.5994 329.311L75.535 325.928C75.5416 325.924 75.5486 325.92 75.5559 325.916L82.0581 322.691C82.1026 322.669 82.1287 322.634 82.1287 322.597V321.344C82.1287 321.28 82.2066 321.227 82.3026 321.227H85.9694C86.0366 321.227 86.0978 321.201 86.1266 321.16L87.7819 318.806C87.7948 318.787 87.8143 318.772 87.8386 318.76L90.1875 317.643C90.2167 317.629 90.2518 317.621 90.2877 317.621H91.2741C91.3701 317.621 91.448 317.569 91.448 317.504V316.379C91.448 316.347 91.4679 316.316 91.503 316.294L94.6797 314.289C94.7433 314.249 94.841 314.247 94.9085 314.284L103.066 318.761C103.087 318.772 103.11 318.78 103.135 318.784L117.971 321.224C117.982 321.226 117.992 321.229 118.002 321.232L138.273 327.531C138.319 327.546 138.374 327.546 138.419 327.531C139.581 327.171 142.305 326.702 144.527 327.555C146.788 328.422 152.326 330.895 154.833 332.034C154.851 332.041 154.865 332.05 154.875 332.061L159.303 336.046C159.31 336.055 159.32 336.062 159.334 336.069L174.798 344.215C174.809 344.221 174.819 344.225 174.833 344.229L179.828 345.773C179.863 345.783 179.887 345.799 179.905 345.819C180.597 346.6 182.183 348.101 183.223 348.101C184.239 348.101 185.71 347.469 186.392 347.118C186.437 347.095 186.496 347.087 186.548 347.099C187.143 347.231 188.496 347.584 189.804 348.101C191.174 348.643 193.261 347.658 194.148 347.09C194.155 347.084 194.165 347.079 194.179 347.074L197.299 345.829C197.362 345.804 197.438 345.808 197.498 345.837L211.052 352.919C211.07 352.928 211.087 352.934 211.108 352.938L214.802 353.743C214.819 353.747 214.833 353.751 214.844 353.757L227.341 359.308C227.372 359.321 227.404 359.327 227.438 359.327H231.24C231.299 359.327 231.355 359.307 231.386 359.274L232.398 358.224C232.43 358.191 232.485 358.171 232.545 358.171H238.259C238.301 358.171 238.343 358.16 238.374 358.141L242.732 355.547C242.764 355.528 242.805 355.517 242.847 355.517H244.131C244.176 355.517 244.218 355.529 244.252 355.549L248.228 358.091C248.298 358.135 248.409 358.134 248.475 358.088L252.117 355.576C252.169 355.541 252.249 355.531 252.315 355.552L256.012 356.698C256.092 356.723 256.19 356.704 256.235 356.653L257.268 355.517C257.776 354.928 259.111 353.748 260.409 353.748C262.03 353.748 259.699 352.932 264.36 352.932C268.005 352.932 269.884 351.977 270.405 351.468C270.426 351.447 270.433 351.421 270.433 351.395C270.433 351.152 270.729 350.868 271.957 351.435C273.251 352.032 281.167 355.207 284.993 356.731C285.014 356.738 285.028 356.748 285.042 356.76L286.611 358.141C286.631 358.161 286.663 358.175 286.694 358.182L291.984 359.322C292.002 359.326 292.023 359.327 292.04 359.327H294.972C295.021 359.327 295.07 359.342 295.104 359.367L296.917 360.768C296.993 360.828 297.139 360.819 297.198 360.748L297.988 359.811C298.078 359.7 298.663 359.707 298.795 359.795C299.244 360.091 300.124 360.478 301.737 360.892C304.426 361.583 306.371 362.46 307.056 362.838C307.087 362.856 307.129 362.865 307.167 362.865H312.979H314.357C314.384 362.865 314.412 362.861 314.437 362.852L316.917 361.986C316.927 361.982 316.934 361.978 316.944 361.974L318.871 360.937C318.924 360.91 318.993 360.904 319.052 360.922L322.43 361.958C322.475 361.973 322.527 361.972 322.576 361.958L330.91 359.327L335.129 358.232C335.244 358.203 335.365 358.259 335.365 358.341V358.68C335.365 358.739 335.431 358.789 335.518 358.796L341.657 359.32C341.713 359.324 341.765 359.348 341.79 359.382L342.861 360.762C342.913 360.829 343.045 360.846 343.129 360.797L349.817 356.966C349.838 356.953 349.856 356.937 349.866 356.918C350.127 356.467 351.045 355.358 352.788 354.293C354.565 353.209 358.294 353.069 359.96 353.135C359.974 353.136 359.988 353.135 360.002 353.133L365.856 352.388L371.049 351.795C371.146 351.784 371.237 351.828 371.261 351.892C371.456 352.368 372.249 353.136 374.263 353.136C376.45 353.136 377 353.907 377 354.293V434.934C377 434.999 376.92 435.051 376.826 435.051H-10.4833C-10.5793 435.051 -10.6572 434.999 -10.6572 434.934V352.152Z" fill="#003845"/>
</g>
</g>
<defs>
<linearGradient id="paint0_linear_878_339" x1="184" y1="0" x2="184" y2="317" gradientUnits="userSpaceOnUse">
<stop stop-color="#01577A"/>
<stop offset="0.0865385" stop-color="#5F9892"/>
<stop offset="0.586538" stop-color="#E3AA01"/>
</linearGradient>
<linearGradient id="paint1_linear_878_339" x1="74.8761" y1="138.926" x2="355.286" y2="235.336" gradientUnits="userSpaceOnUse">
<stop offset="0.269231" stop-color="#F0D074"/>
<stop offset="0.841346" stop-color="#E3AA01"/>
</linearGradient>
<linearGradient id="paint2_linear_878_339" x1="74.8761" y1="138.926" x2="355.286" y2="235.336" gradientUnits="userSpaceOnUse">
<stop offset="0.269231" stop-color="#F0D074"/>
<stop offset="0.841346" stop-color="#E3AA01"/>
</linearGradient>
<linearGradient id="paint3_linear_878_339" x1="74.8761" y1="138.926" x2="355.286" y2="235.336" gradientUnits="userSpaceOnUse">
<stop offset="0.269231" stop-color="#F0D074"/>
<stop offset="0.841346" stop-color="#E3AA01"/>
</linearGradient>
<linearGradient id="paint4_linear_878_339" x1="213.63" y1="424.616" x2="213.63" y2="215.892" gradientUnits="userSpaceOnUse">
<stop stop-color="#005366"/>
<stop offset="1" stop-color="#016C98"/>
</linearGradient>
<linearGradient id="paint5_linear_878_339" x1="-30.48" y1="457" x2="-30.48" y2="216" gradientUnits="userSpaceOnUse">
<stop stop-color="#003845"/>
<stop offset="1" stop-color="#004B5C"/>
</linearGradient>
<clipPath id="clip0_878_339">
<path d="M-4 4.99999C-4 2.23857 -1.76142 0 1 0H368C370.761 0 373 2.23858 373 5V374H-4V4.99999Z" fill="white"/>
</clipPath>
<clipPath id="clip1_878_339">
<rect width="590" height="292" fill="white" transform="translate(-186 119)"/>
</clipPath>
</defs>
</svg>
