<svg width="377" height="374" viewBox="0 0 377 374" fill="none" xmlns="http://www.w3.org/2000/svg">
<g clip-path="url(#clip0_868_20)">
<path d="M330.756 85L325.156 79.4C324.711 79.7556 324.2 80.037 323.622 80.2444C323.044 80.4519 322.43 80.5556 321.778 80.5556C320.163 80.5556 318.796 79.9963 317.678 78.8778C316.559 77.7593 316 76.3926 316 74.7778C316 73.163 316.559 71.7963 317.678 70.6778C318.796 69.5593 320.163 69 321.778 69C323.393 69 324.759 69.5593 325.878 70.6778C326.996 71.7963 327.556 73.163 327.556 74.7778C327.556 75.4296 327.452 76.0444 327.244 76.6222C327.037 77.2 326.756 77.7111 326.4 78.1556L332 83.7556L330.756 85ZM321.778 78.7778C322.889 78.7778 323.833 78.3889 324.611 77.6111C325.389 76.8333 325.778 75.8889 325.778 74.7778C325.778 73.6667 325.389 72.7222 324.611 71.9444C323.833 71.1667 322.889 70.7778 321.778 70.7778C320.667 70.7778 319.722 71.1667 318.944 71.9444C318.167 72.7222 317.778 73.6667 317.778 74.7778C317.778 75.8889 318.167 76.8333 318.944 77.6111C319.722 78.3889 320.667 78.7778 321.778 78.7778Z" fill="#003845"/>
<path d="M-1 0H377V317H-1V0Z" fill="url(#paint0_linear_868_20)"/>
<path d="M-8.29199 168.541C14.8481 131.07 421.744 177.634 402.089 158.14C382.434 138.647 458.906 168.273 334.612 184.666C210.318 201.059 10.4402 223.799 -13.1439 185.75C-14.6722 183.284 -16.0791 181.223 -17.3678 179.515C-33.0196 158.763 -31.2264 189.984 -17.3678 179.515C-14.7584 177.543 -11.7211 174.094 -8.29199 168.541Z" fill="url(#paint1_linear_868_20)"/>
<path d="M-23.9927 139.993C-28.3923 138.502 -25.8532 136.996 -17.8745 135.534C-24.789 122.561 -51.9459 92.516 2.42622 101.057C124.492 58.175 339.941 55.7811 316.37 104.253C396.436 97.3443 442.363 95.6329 392.331 126.519C277.832 119.423 30.4026 126.685 -17.8745 135.534C-15.2825 140.397 -15.535 142.86 -23.9927 139.993Z" fill="url(#paint2_linear_868_20)"/>
<path d="M458.4 217.024C463.347 196.025 -137.109 232.649 1.05901 242.294C-72.2346 258.676 -7.32016 254.72 22.676 260.77C106.002 300.276 428.806 190.52 448.608 245.505C468.41 300.491 453.453 238.023 458.4 217.024Z" fill="url(#paint3_linear_868_20)"/>
<g clip-path="url(#clip1_868_20)">
<path d="M477.988 277.471C478.559 276.78 478.468 276.467 478.162 276.378C478.07 276.351 477.988 276.428 477.988 276.52V277.471C477.311 278.288 475.709 279.632 472.438 281.757C465.966 285.962 459.609 283.55 457.19 281.79C457.16 281.768 457.125 281.757 457.088 281.757H437.376C437.322 281.757 437.272 281.733 437.24 281.691L423.529 263.842C423.497 263.8 423.446 263.776 423.393 263.776H408.761C408.709 263.776 408.661 263.753 408.628 263.714L393.902 245.82C393.888 245.803 393.87 245.789 393.85 245.778L379.103 238.049C379.089 238.042 379.075 238.032 379.064 238.021L373.048 232.171C373.042 232.165 373.035 232.159 373.028 232.154L365.091 226.569C365.048 226.538 365.022 226.49 365.022 226.439V224.213C365.022 224.124 364.947 224.052 364.854 224.052H360.32C360.255 224.052 360.195 224.016 360.167 223.96L358.135 219.86C358.123 219.835 358.104 219.813 358.08 219.797L355.2 217.853C355.172 217.834 355.138 217.823 355.103 217.823H353.845C353.752 217.823 353.677 217.751 353.677 217.662V215.66C353.677 215.616 353.657 215.573 353.623 215.543L349.714 212.044C349.653 211.988 349.558 211.985 349.492 212.036L339.524 219.798C339.504 219.814 339.482 219.824 339.457 219.83L321.382 224.049C321.371 224.051 321.361 224.054 321.351 224.059L296.65 234.95C296.604 234.97 296.552 234.97 296.507 234.95C295.106 234.326 291.77 233.503 289.055 234.982C286.299 236.483 279.552 240.758 276.499 242.724C276.483 242.734 276.47 242.746 276.458 242.761L271.063 249.656C271.054 249.667 271.043 249.677 271.032 249.686L252.196 263.764C252.186 263.772 252.175 263.778 252.163 263.784L246.063 266.458C246.031 266.472 246.006 266.493 245.988 266.522C245.151 267.867 243.214 270.475 241.945 270.475C240.699 270.475 238.887 269.366 238.068 268.764C238.024 268.731 237.967 268.721 237.915 268.738C237.202 268.958 235.539 269.572 233.929 270.475C232.259 271.411 229.716 269.706 228.639 268.724C228.63 268.716 228.62 268.709 228.609 268.702L224.779 266.535C224.718 266.501 224.644 266.505 224.59 266.546L208.053 278.801C208.039 278.813 208.022 278.822 208.002 278.828L203.49 280.223C203.476 280.227 203.463 280.233 203.449 280.241L188.218 289.84C188.191 289.857 188.157 289.866 188.123 289.866C188.09 289.866 183.456 289.866 183.456 289.866C183.402 289.866 183.348 289.839 183.317 289.793L182.059 287.942C182.028 287.896 181.974 287.868 181.917 287.868C181.859 287.868 174.921 287.868 174.921 287.868C174.88 287.868 174.84 287.854 174.809 287.828L169.477 283.325C169.446 283.299 169.406 283.285 169.365 283.285H167.772C167.728 283.285 167.685 283.301 167.654 283.329L162.767 287.759C162.7 287.82 162.595 287.818 162.531 287.755L158.046 283.366C157.995 283.318 157.917 283.304 157.853 283.332L153.287 285.341C153.209 285.375 153.118 285.348 153.074 285.278L151.795 283.285C151.178 282.266 149.551 280.229 147.971 280.229C145.997 280.229 148.835 278.819 143.162 278.819C138.7 278.819 136.419 277.154 135.794 276.278C135.774 276.249 135.764 276.214 135.767 276.179C135.774 275.755 135.427 275.242 133.911 276.233C132.338 277.266 122.686 282.754 118.032 285.385C118.012 285.395 117.998 285.409 117.985 285.425L116.064 287.828C116.041 287.854 116.014 287.874 115.98 287.884L109.52 289.859C109.503 289.864 109.486 289.866 109.47 289.866H105.872C105.825 289.866 105.777 289.887 105.744 289.922L103.486 292.398C103.408 292.482 103.27 292.468 103.212 292.371L102.119 290.532C102.031 290.38 101.498 290.403 101.376 290.534C100.887 291.059 99.8035 291.787 97.657 292.57C94.3664 293.769 91.9904 295.292 91.167 295.941C91.1332 295.965 91.0961 295.977 91.059 295.977H83.9648H82.2807C82.2537 295.977 82.2267 295.971 82.2031 295.959L79.1724 294.457C79.1622 294.452 79.1521 294.447 79.1453 294.44L76.7727 292.631C76.7221 292.593 76.6546 292.585 76.5972 292.61L72.446 294.419C72.3987 294.438 72.3481 294.438 72.3042 294.418L62.1387 289.866L56.9413 287.953C56.83 287.912 56.7118 287.99 56.7118 288.103V288.784C56.7118 288.865 56.6476 288.934 56.5633 288.944L49.0304 289.856C48.9764 289.862 48.9257 289.894 48.9021 289.941L47.5589 292.39C47.5117 292.482 47.3834 292.505 47.3024 292.438L39.1113 285.78C39.0876 285.762 39.0707 285.74 39.0606 285.714C38.7501 284.943 37.6331 283.018 35.5001 281.17C33.3367 279.295 28.7872 279.056 26.7656 279.17C26.7487 279.171 26.7386 279.17 26.7217 279.168L18.6026 270.475L6.02637 276.179C6.02637 263.094 -1.15222 276.091 -1.17249 276.179C-28.071 279.438 -42.357 300.085 -6.88049 287.755C-9.54333 287.755 -13.8759 295.311 -13.8759 295.977L6.02637 420.511C6.02637 420.6 101.282 420.672 101.376 420.672H573C573.093 420.672 477.988 420.6 477.988 420.511V277.471Z" fill="url(#paint4_linear_868_20)"/>
<path d="M229.104 323.784C238.202 330.004 230.31 338.837 230.31 323.438C230.31 335.302 243.954 336.1 231.148 328.284L229.104 323.784C241.268 332.1 216.74 310.893 213.52 313.348C207.149 318.204 200.89 315.418 198.51 313.385C198.48 313.36 198.446 313.348 198.409 313.348H179.003C178.95 313.348 178.901 313.32 178.869 313.272L165.371 292.657C165.34 292.609 165.29 292.581 165.237 292.581H150.833C150.782 292.581 150.734 292.554 150.703 292.51L136.204 271.844C136.191 271.824 136.173 271.808 136.154 271.795L121.636 262.869C121.622 262.86 121.609 262.849 121.597 262.836L115.675 256.079C115.669 256.072 115.662 256.066 115.655 256.06L107.842 249.609C107.799 249.574 107.774 249.519 107.774 249.46V246.889C107.774 246.787 107.7 246.703 107.608 246.703H103.144C103.08 246.703 103.022 246.662 102.994 246.597L100.994 241.861C100.982 241.832 100.963 241.807 100.939 241.789L98.1045 239.544C98.0766 239.521 98.0431 239.509 98.0086 239.509H96.7707C96.6787 239.509 96.6047 239.426 96.6047 239.323V237.011C96.6047 236.96 96.5854 236.911 96.5519 236.875L92.7038 232.834C92.6434 232.77 92.5501 232.767 92.4857 232.826L82.6718 241.79C82.6525 241.808 82.6302 241.82 82.6063 241.827L64.8114 246.699C64.8008 246.702 64.7908 246.706 64.7812 246.711L40.4639 259.289C40.4187 259.313 40.3679 259.313 40.3231 259.289C38.9438 258.569 35.6602 257.619 32.9869 259.326C30.2741 261.059 23.6312 265.998 20.6259 268.268C20.6103 268.279 20.5977 268.293 20.5864 268.31L15.2747 276.273C15.2657 276.286 15.2554 276.298 15.2438 276.308L-3.29893 292.568C-3.3089 292.576 -3.31886 292.584 -3.33214 292.59L-9.33882 295.678C-9.3687 295.694 -9.39194 295.719 -9.41187 295.752C-10.2353 297.305 -12.1413 300.318 -13.3898 300.318C-14.6183 300.318 -16.4014 299.037 -17.2083 298.341C-17.2514 298.304 -17.3079 298.292 -17.3577 298.311C-18.0617 298.566 -19.6986 299.275 -21.2825 300.318C-22.9261 301.399 -25.4297 299.43 -26.489 298.296C-26.4989 298.286 -26.5089 298.278 -26.5188 298.271L-30.2908 295.767C-30.3506 295.728 -30.4237 295.733 -30.4768 295.78L-46.7537 309.934C-46.7703 309.948 -46.7869 309.958 -46.8068 309.965L-51.2496 311.576C-51.2628 311.581 -51.2762 311.588 -51.2894 311.597L-66.2845 322.683C-66.3111 322.703 -66.341 322.713 -66.3742 322.713H-70.9697C-71.0262 322.713 -71.0793 322.681 -71.1092 322.629L-72.3477 320.491C-72.3776 320.438 -72.4308 320.406 -72.4839 320.406H-79.3738C-79.4137 320.406 -79.4535 320.389 -79.4834 320.359L-84.7329 315.159C-84.7628 315.129 -84.8027 315.113 -84.8426 315.113H-86.4131C-86.4563 315.113 -86.4962 315.131 -86.526 315.164L-91.3373 320.28C-91.4037 320.35 -91.5067 320.348 -91.5698 320.275L-95.9893 315.206C-96.0358 315.15 -96.1122 315.135 -96.1753 315.167L-100.671 317.487C-100.747 317.526 -100.837 317.495 -100.88 317.415L-102.139 315.113C-102.746 313.936 -104.35 311.583 -105.904 311.583C-107.847 311.583 -105.054 309.955 -110.639 309.955C-115.029 309.955 -117.28 308.032 -117.891 307.02C-117.914 306.986 -117.921 306.946 -117.921 306.905C-117.911 306.416 -118.256 305.824 -119.744 306.968C-121.294 308.161 -130.794 314.499 -135.38 317.538C-135.396 317.55 -135.413 317.565 -135.426 317.584L-137.316 320.36C-137.339 320.39 -137.365 320.412 -137.399 320.424L-143.757 322.705C-143.774 322.71 -143.79 322.713 -143.81 322.713H-147.35C-147.396 322.713 -147.443 322.737 -147.476 322.777L-149.701 325.637C-149.774 325.734 -149.913 325.718 -149.97 325.607L-151.042 323.481C-151.132 323.306 -151.657 323.333 -151.776 323.484C-152.258 324.09 -153.323 324.931 -155.439 325.835C-158.679 327.22 -161.014 328.979 -161.827 329.729C-161.857 329.757 -161.894 329.772 -161.933 329.772H-168.913H-170.573C-170.6 329.772 -170.626 329.764 -170.65 329.751L-173.635 328.016C-173.645 328.01 -173.655 328.003 -173.661 327.996L-175.999 325.907C-176.045 325.863 -176.115 325.854 -176.171 325.883L-180.256 327.971C-180.302 327.994 -180.352 327.994 -180.395 327.971L-190.403 322.713L-195.52 320.504C-195.629 320.456 -195.746 320.546 -195.746 320.677V321.464C-195.746 321.557 -195.809 321.636 -195.892 321.648L-203.309 322.701C-203.363 322.709 -203.409 322.745 -203.436 322.799L-204.754 325.629C-204.804 325.735 -204.93 325.762 -205.01 325.684L-213.075 317.995C-213.095 317.974 -213.111 317.948 -213.121 317.918C-213.427 317.027 -214.526 314.804 -216.628 312.669C-218.756 310.505 -223.236 310.228 -225.228 310.361C-225.241 310.361 -225.254 310.36 -225.268 310.358L-232.29 308.869L-238.556 307.679C-238.649 307.661 -238.735 307.732 -238.759 307.833C-238.968 308.778 -239.914 310.362 -242.365 310.362C-244.988 310.362 -245.645 311.9 -245.645 312.669V473.598C-245.645 473.7 -245.569 473.784 -245.479 473.784H218.818C218.909 473.784 218.984 473.7 218.984 473.598L229.104 323.784Z" fill="url(#paint5_linear_868_20)"/>
<path d="M-161.139 274.19H-167.706C-167.868 274.19 -168 274.294 -168 274.423V383.767C-168 383.895 -167.868 384 -167.706 384H462.704C462.866 384 463 383.895 463 383.767V286.641C463 286.529 462.899 286.433 462.762 286.412L436.97 282.412C436.941 282.408 436.915 282.401 436.89 282.391L407.181 270.196C407.105 270.165 407.015 270.162 406.935 270.187L378.462 279.37C378.39 279.393 378.307 279.392 378.235 279.368L363.059 274.209C363.023 274.196 362.99 274.177 362.961 274.153L349.209 257.001C349.173 256.969 345.321 259.055 345.267 259.044C335.681 267.799 329.498 266.37 327.692 267.799C319.717 274.101 302.994 284.276 300.133 280.819C300.035 280.701 299.833 280.646 299.681 280.721L279.62 290.568C279.547 290.602 279.464 290.612 279.385 290.597C275.316 289.837 266.735 296.018 257.065 298.186C247.938 300.233 227.295 308.551 226.287 309.988C226.204 310.107 226.327 310.294 226.269 310.423L216.719 331.785C216.672 331.889 216.538 331.953 216.401 331.938L203.664 330.536C203.624 330.532 203.584 330.534 203.545 330.542L189.977 333.514C189.931 333.524 189.883 333.525 189.837 333.517L172.45 330.535C172.428 330.531 172.406 330.525 172.385 330.517L161.939 326.518C161.884 326.498 161.824 326.491 161.764 326.498L150.635 327.921L128.718 330.526C128.698 330.528 128.677 330.529 128.658 330.528C123.466 330.313 124.215 330.652 114.828 326.487C109.403 324.08 100.525 318.824 90.1698 318.792C90.1091 318.792 90.0495 318.777 89.9996 318.749L81.5719 314.01C81.5224 313.982 81.4627 313.967 81.402 313.967H58.0155C57.9407 313.967 57.8688 313.989 57.8142 314.03L43.298 324.858C43.2434 324.899 43.1715 324.922 43.0967 324.922H25.7759C25.7404 324.922 25.705 324.927 25.6718 324.937L12.021 329.047C11.9223 329.077 11.8107 329.062 11.7294 329.008L-3.73315 318.846C-3.7859 318.811 -3.85239 318.792 -3.92068 318.792H-25.4312H-47.031C-47.1423 318.792 -47.2438 318.742 -47.294 318.663L-53.2965 309.175C-53.3106 309.153 -53.3294 309.132 -53.3518 309.114L-72.4345 294.032C-72.4508 294.019 -72.4649 294.005 -72.4772 293.99C-75.6652 289.91 -79.9094 285.446 -93.0854 279.406C-106.185 273.402 -146.526 266.943 -148.812 269.308C-148.85 269.346 -148.888 269.376 -148.943 269.398L-161.008 274.165C-161.048 274.181 -161.093 274.19 -161.139 274.19Z" fill="#01577A"/>
<path d="M-6.65722 352.151C-7.10453 351.771 -7.05792 351.588 -6.83566 351.527C-6.74348 351.502 -6.65722 351.559 -6.65722 351.626V352.151C-6.10209 352.624 -4.78558 353.403 -2.09898 354.633C3.20815 357.063 8.42206 355.675 10.4154 354.657C10.4464 354.641 10.4826 354.633 10.5208 354.633H26.6819C26.7372 354.633 26.7893 354.615 26.822 354.585L38.0631 344.271C38.0958 344.241 38.1479 344.223 38.2032 344.223H50.1858C50.2394 344.223 50.2898 344.207 50.3225 344.179L62.4039 333.833C62.4185 333.82 62.4362 333.81 62.4571 333.802L74.5587 329.332C74.5736 329.326 74.5872 329.319 74.5994 329.311L79.535 325.928C79.5416 325.924 79.5486 325.92 79.5559 325.916L86.0581 322.691C86.1026 322.669 86.1287 322.634 86.1287 322.597V321.344C86.1287 321.28 86.2066 321.227 86.3026 321.227H89.9694C90.0366 321.227 90.0978 321.201 90.1266 321.16L91.7819 318.806C91.7948 318.787 91.8143 318.772 91.8386 318.76L94.1875 317.643C94.2167 317.629 94.2518 317.621 94.2877 317.621H95.2741C95.3701 317.621 95.448 317.569 95.448 317.504V316.379C95.448 316.347 95.4678 316.316 95.503 316.294L98.6797 314.289C98.7433 314.249 98.841 314.247 98.9085 314.284L107.066 318.761C107.087 318.772 107.11 318.78 107.135 318.784L121.971 321.224C121.982 321.226 121.992 321.229 122.002 321.232L142.273 327.531C142.319 327.546 142.374 327.546 142.419 327.531C143.581 327.171 146.305 326.702 148.527 327.554C150.788 328.422 156.326 330.895 158.833 332.034C158.851 332.041 158.865 332.05 158.875 332.061L163.303 336.046C163.31 336.055 163.32 336.062 163.334 336.069L178.798 344.215C178.809 344.22 178.819 344.225 178.833 344.229L183.828 345.773C183.863 345.783 183.887 345.799 183.905 345.819C184.597 346.6 186.183 348.101 187.223 348.101C188.239 348.101 189.71 347.469 190.392 347.118C190.437 347.095 190.496 347.087 190.548 347.099C191.143 347.231 192.496 347.584 193.804 348.101C195.174 348.643 197.261 347.658 198.148 347.09C198.155 347.084 198.165 347.079 198.179 347.074L201.299 345.829C201.362 345.804 201.438 345.807 201.498 345.837L215.052 352.919C215.07 352.928 215.087 352.934 215.108 352.938L218.802 353.743C218.819 353.747 218.833 353.751 218.844 353.757L231.341 359.308C231.372 359.321 231.404 359.327 231.438 359.327H235.24C235.299 359.327 235.355 359.307 235.386 359.274L236.398 358.224C236.43 358.191 236.485 358.171 236.545 358.171H242.259C242.301 358.171 242.343 358.16 242.374 358.141L246.732 355.547C246.764 355.528 246.805 355.517 246.847 355.517H248.131C248.176 355.517 248.218 355.529 248.252 355.549L252.228 358.091C252.298 358.135 252.409 358.134 252.475 358.088L256.117 355.576C256.169 355.541 256.249 355.531 256.315 355.552L260.012 356.698C260.092 356.723 260.19 356.704 260.235 356.653L261.268 355.517C261.776 354.928 263.111 353.748 264.409 353.748C266.03 353.748 263.699 352.932 268.36 352.932C272.005 352.932 273.884 351.977 274.405 351.468C274.426 351.446 274.433 351.421 274.433 351.395C274.433 351.152 274.729 350.868 275.957 351.435C277.251 352.032 285.167 355.207 288.993 356.731C289.014 356.738 289.028 356.748 289.042 356.76L290.611 358.141C290.631 358.161 290.663 358.175 290.694 358.182L295.984 359.322C296.002 359.326 296.023 359.327 296.04 359.327H298.972C299.021 359.327 299.07 359.342 299.104 359.367L300.917 360.768C300.993 360.828 301.139 360.819 301.198 360.748L301.988 359.811C302.078 359.7 302.663 359.707 302.795 359.795C303.244 360.091 304.124 360.478 305.737 360.892C308.426 361.583 310.371 362.459 311.056 362.838C311.087 362.856 311.129 362.865 311.167 362.865H316.979H318.357C318.384 362.865 318.412 362.861 318.437 362.852L320.917 361.986C320.927 361.982 320.934 361.978 320.944 361.973L322.871 360.937C322.924 360.909 322.993 360.904 323.052 360.922L326.43 361.958C326.475 361.973 326.527 361.972 326.576 361.958L334.91 359.327L339.129 358.232C339.243 358.202 339.365 358.259 339.365 358.341V358.68C339.365 358.739 339.431 358.788 339.518 358.796L345.657 359.32C345.713 359.324 345.765 359.348 345.79 359.381L346.861 360.762C346.913 360.829 347.045 360.846 347.129 360.797L353.817 356.966C353.838 356.953 353.856 356.937 353.866 356.918C354.127 356.467 355.045 355.358 356.788 354.293C358.565 353.209 362.294 353.069 363.96 353.135C363.974 353.136 363.988 353.135 364.002 353.133L369.856 352.388L375.049 351.795C375.146 351.784 375.237 351.828 375.261 351.891C375.456 352.368 376.249 353.136 378.263 353.136C380.45 353.136 381 353.907 381 354.293V434.934C381 434.999 380.92 435.051 380.826 435.051H-6.48331C-6.57931 435.051 -6.65722 434.999 -6.65722 434.934V352.151Z" fill="#003845"/>
</g>
</g>
<defs>
<linearGradient id="paint0_linear_868_20" x1="188" y1="0" x2="188" y2="317" gradientUnits="userSpaceOnUse">
<stop stop-color="#01577A"/>
<stop offset="0.0865385" stop-color="#5F9892"/>
<stop offset="0.586538" stop-color="#E3AA01"/>
</linearGradient>
<linearGradient id="paint1_linear_868_20" x1="78.8761" y1="138.926" x2="359.286" y2="235.336" gradientUnits="userSpaceOnUse">
<stop offset="0.269231" stop-color="#F0D074"/>
<stop offset="0.841346" stop-color="#E3AA01"/>
</linearGradient>
<linearGradient id="paint2_linear_868_20" x1="78.8761" y1="138.926" x2="359.286" y2="235.336" gradientUnits="userSpaceOnUse">
<stop offset="0.269231" stop-color="#F0D074"/>
<stop offset="0.841346" stop-color="#E3AA01"/>
</linearGradient>
<linearGradient id="paint3_linear_868_20" x1="78.8761" y1="138.926" x2="359.286" y2="235.336" gradientUnits="userSpaceOnUse">
<stop offset="0.269231" stop-color="#F0D074"/>
<stop offset="0.841346" stop-color="#E3AA01"/>
</linearGradient>
<linearGradient id="paint4_linear_868_20" x1="217.63" y1="424.616" x2="217.63" y2="215.892" gradientUnits="userSpaceOnUse">
<stop stop-color="#005366"/>
<stop offset="1" stop-color="#016C98"/>
</linearGradient>
<linearGradient id="paint5_linear_868_20" x1="-26.4799" y1="457" x2="-26.4799" y2="216" gradientUnits="userSpaceOnUse">
<stop stop-color="#003845"/>
<stop offset="1" stop-color="#004B5C"/>
</linearGradient>
<clipPath id="clip0_868_20">
<rect width="377" height="374" fill="white"/>
</clipPath>
<clipPath id="clip1_868_20">
<rect width="590" height="292" fill="white" transform="translate(-182 119)"/>
</clipPath>
</defs>
</svg>
