<svg width="740" height="317" viewBox="0 0 740 317" fill="none" xmlns="http://www.w3.org/2000/svg">
<g clip-path="url(#clip0_1398_284)">
<rect width="740" height="317" fill="white"/>
<path d="M0 0H740V317H0V0Z" fill="url(#paint0_linear_1398_284)"/>
<circle cx="411" cy="179" r="30" fill="#FEBE01"/>
<path d="M147.553 129.332C158.359 128.571 162.78 128.111 157.358 132.455C151.909 136.82 142.117 138.106 137.592 138.123C137.244 138.124 136.919 138.02 136.589 137.928C133.209 136.989 121.08 139.803 114.871 136.421C108.32 132.853 100.423 136.676 94.3223 133.391C85.8435 128.825 105.454 125.031 108.161 124.536C108.369 124.498 108.56 124.493 108.767 124.518C111.114 124.802 126.343 126.57 123.476 124.258C120.444 121.814 138.296 109.565 145.523 128.06C145.836 128.861 146.649 129.395 147.553 129.332Z" fill="url(#paint1_linear_1398_284)"/>
<path d="M307.241 45.0581C275.631 43.0992 213.207 48.7258 210.6 49.7919C207.994 50.858 197.155 36.2436 214.866 39.0257C225.937 30.0907 239.359 32.7312 248.27 37.2353C272.385 34.5311 293.086 31.8837 289.245 39.7828C308.213 38.1461 319.095 37.7406 307.241 45.0581Z" fill="url(#paint2_linear_1398_284)"/>
<path d="M66.8841 104.165C46.9726 100.362 6.88217 98.8794 5.14116 99.3453C3.40015 99.8112 -2.29855 89.6545 8.72107 92.8549C16.4742 88.0784 24.7822 90.8417 30.0755 94.423C45.6055 94.6587 58.9633 94.654 55.8848 99.3583C68.0613 99.855 75.0028 100.479 66.8841 104.165Z" fill="url(#paint3_linear_1398_284)"/>
<path d="M746.495 151.406C710.565 148.962 634.215 158.594 630.555 160.262C626.895 161.93 622.497 139.863 641.671 143.797C659.722 130.004 673.95 133.795 681.834 140.501C711.63 135.972 737.393 131.588 728.403 143.681C751.562 140.865 764.543 140.062 746.495 151.406Z" fill="url(#paint4_linear_1398_284)"/>
<path d="M606.65 90.6827C609.756 85.6519 664.386 91.9035 661.747 89.2864C659.108 86.6692 669.375 90.6468 652.688 92.8477C636 95.0486 609.165 98.1017 605.998 92.9932C605.793 92.6622 605.604 92.3855 605.431 92.1561C603.57 93.5617 603.33 89.3699 605.431 92.1561C605.781 91.8914 606.189 91.4283 606.65 90.6827Z" fill="url(#paint5_linear_1398_284)"/>
<path d="M140.755 63.7434C135.557 57.5339 112.149 65.309 110.144 68.5557C108.139 71.8024 100.415 70.6707 102.458 73.9675C104.502 77.2643 129.086 71.3732 139.855 69.9529C150.625 68.5325 145.954 69.9529 140.755 63.7434Z" fill="url(#paint6_linear_1398_284)"/>
<path d="M220.196 105.665C223.303 100.634 277.933 106.885 275.294 104.268C272.655 101.651 282.922 105.629 266.234 107.83C249.547 110.03 222.711 113.084 219.545 107.975C219.34 107.644 219.151 107.367 218.978 107.138C217.117 108.544 216.876 104.352 218.978 107.138C219.328 106.873 219.736 106.41 220.196 105.665Z" fill="url(#paint7_linear_1398_284)"/>
<path d="M689.064 40.8687C699.87 40.1083 704.292 39.6482 698.869 43.9917C693.42 48.3567 683.628 49.643 679.103 49.6601C678.755 49.6614 678.43 49.5569 678.1 49.4653C674.721 48.5263 662.591 51.3403 656.382 47.9584C649.831 44.3904 641.934 48.2128 635.834 44.9278C627.355 40.3622 646.965 36.5681 649.672 36.073C649.88 36.0351 650.072 36.0302 650.278 36.0552C652.625 36.3392 667.854 38.1069 664.987 35.7954C661.955 33.3508 679.807 21.1018 687.034 39.5969C687.347 40.3979 688.16 40.9324 689.064 40.8687Z" fill="url(#paint8_linear_1398_284)"/>
<path d="M427.427 20.7434C422.228 14.5339 398.821 22.309 396.816 25.5557C394.811 28.8024 387.086 27.6707 389.13 30.9675C391.173 34.2643 415.757 28.3732 426.527 26.9529C437.296 25.5325 432.626 26.9529 427.427 20.7434Z" fill="url(#paint9_linear_1398_284)"/>
<path d="M483.094 2.86871C493.899 2.10831 498.321 1.64822 492.899 5.99168C487.449 10.3567 477.657 11.643 473.132 11.6601C472.784 11.6614 472.459 11.5569 472.129 11.4653C468.75 10.5263 456.62 13.3403 450.411 9.95836C443.861 6.3904 435.964 10.2128 429.863 6.92775C421.384 2.36216 440.995 -1.43191 443.702 -1.92698C443.909 -1.96493 444.101 -1.96977 444.308 -1.94479C446.655 -1.66075 461.884 0.106942 459.017 -2.20456C455.985 -4.64921 473.836 -16.8982 481.064 1.59695C481.377 2.39793 482.189 2.93236 483.094 2.86871Z" fill="url(#paint10_linear_1398_284)"/>
<path d="M739.921 172.574C740.818 171.882 740.675 171.569 740.195 171.479C740.051 171.452 739.921 171.529 739.921 171.621V172.574C738.86 173.392 736.345 174.738 731.213 176.867C721.059 181.078 711.083 178.662 707.289 176.899C707.242 176.878 707.187 176.867 707.129 176.867H676.199C676.115 176.867 676.035 176.842 675.986 176.801L654.472 158.923C654.422 158.882 654.343 158.857 654.259 158.857H631.302C631.22 158.857 631.143 158.834 631.093 158.796L607.986 140.874C607.964 140.856 607.936 140.842 607.905 140.832L584.766 133.09C584.743 133.083 584.723 133.073 584.705 133.062L575.265 127.202C575.255 127.196 575.245 127.191 575.234 127.186L562.781 121.592C562.713 121.561 562.673 121.513 562.673 121.462V119.233C562.673 119.143 562.554 119.071 562.408 119.071H555.294C555.192 119.071 555.099 119.035 555.055 118.979L551.867 114.872C551.847 114.847 551.817 114.825 551.78 114.809L547.261 112.862C547.217 112.843 547.163 112.833 547.109 112.833H545.136C544.989 112.833 544.871 112.76 544.871 112.671V110.666C544.871 110.621 544.841 110.579 544.787 110.548L538.654 107.044C538.557 106.988 538.409 106.985 538.305 107.036L522.665 114.811C522.634 114.826 522.598 114.837 522.56 114.842L494.198 119.068C494.182 119.07 494.165 119.073 494.15 119.078L455.393 129.986C455.321 130.007 455.24 130.006 455.168 129.986C452.97 129.361 447.737 128.537 443.475 130.018C439.152 131.521 428.565 135.804 423.774 137.772C423.75 137.782 423.729 137.795 423.711 137.809L415.245 144.715C415.231 144.726 415.215 144.736 415.197 144.745L385.643 158.846C385.627 158.853 385.609 158.86 385.59 158.865L376.019 161.543C375.97 161.557 375.929 161.579 375.902 161.607C374.589 162.954 371.549 165.567 369.558 165.567C367.603 165.567 364.76 164.456 363.475 163.853C363.406 163.821 363.317 163.81 363.234 163.827C362.116 164.048 359.506 164.663 356.98 165.567C354.36 166.504 350.371 164.797 348.681 163.814C348.666 163.805 348.651 163.798 348.633 163.792L342.624 161.621C342.528 161.587 342.412 161.591 342.327 161.632L316.379 173.907C316.358 173.918 316.332 173.927 316.3 173.933L309.22 175.33C309.198 175.334 309.177 175.34 309.156 175.349L285.257 184.962C285.215 184.979 285.162 184.989 285.109 184.989C285.056 184.989 277.785 184.989 277.785 184.989C277.701 184.989 277.616 184.961 277.568 184.915L275.593 183.061C275.545 183.016 275.461 182.988 275.371 182.988C275.281 182.988 264.393 182.988 264.393 182.988C264.33 182.988 264.266 182.973 264.218 182.947L255.851 178.437C255.804 178.411 255.74 178.397 255.677 178.397H253.177C253.108 178.397 253.039 178.413 252.992 178.441L245.324 182.878C245.218 182.939 245.054 182.937 244.953 182.874L237.915 178.478C237.836 178.43 237.714 178.416 237.614 178.445L230.449 180.456C230.327 180.49 230.184 180.463 230.115 180.394L228.108 178.397C227.139 177.377 224.587 175.337 222.108 175.337C219.01 175.337 223.464 173.924 214.562 173.924C207.562 173.924 203.982 172.256 203.002 171.38C202.97 171.35 202.954 171.315 202.96 171.279C202.97 170.855 202.425 170.342 200.047 171.334C197.58 172.368 182.434 177.865 175.132 180.5C175.1 180.511 175.079 180.524 175.058 180.541L172.044 182.947C172.007 182.974 171.965 182.993 171.912 183.003L161.776 184.981C161.75 184.986 161.724 184.989 161.697 184.989H156.052C155.978 184.989 155.904 185.009 155.851 185.044L152.308 187.524C152.186 187.608 151.969 187.595 151.879 187.498L150.163 185.655C150.026 185.503 149.189 185.527 148.998 185.657C148.231 186.183 146.531 186.912 143.163 187.696C138 188.897 134.272 190.423 132.979 191.073C132.926 191.097 132.868 191.11 132.81 191.11H121.679H119.036C118.994 191.11 118.952 191.103 118.915 191.091L114.159 189.587C114.143 189.582 114.127 189.576 114.117 189.57L110.394 187.758C110.315 187.72 110.209 187.712 110.119 187.737L103.605 189.548C103.531 189.568 103.452 189.568 103.383 189.548L87.4326 184.989L79.2776 183.072C79.1029 183.032 78.9175 183.109 78.9175 183.223V183.905C78.9175 183.986 78.8168 184.055 78.6845 184.065L66.865 184.978C66.7802 184.985 66.7007 185.017 66.6637 185.064L64.5561 187.517C64.482 187.609 64.2807 187.632 64.1536 187.565L51.3013 180.896C51.2643 180.878 51.2377 180.856 51.2218 180.83C50.7347 180.058 48.9819 178.13 45.6352 176.278C42.2407 174.401 35.1023 174.161 31.9303 174.276V174.276C31.8852 174.277 31.8419 174.26 31.8047 174.235L23.0157 168.228C20.5502 166.543 17.4607 166.048 14.5922 166.878L10.8321 167.967C5.10603 169.624 -2.95058 163.733 -7.7158 167.315C-7.85519 167.419 -7.99331 167.526 -8.12978 167.634C-10.6367 169.623 -13.9727 171.418 -17.1515 171.783C-52.0772 175.799 -70.3918 191.22 -34.5094 185.518C-32.7108 185.233 -31.4575 189.298 -31.8346 191.079V191.079C-31.8604 191.201 -31.8229 191.171 -31.7926 191.292L-0.909992 314.643C-0.711141 315.437 -0.287405 315.847 0.531343 315.852C14.3458 315.935 148.858 316 148.998 316H889C889.147 316 739.921 315.928 739.921 315.839V172.574Z" fill="url(#paint11_linear_1398_284)"/>
<path d="M457.159 218.784C468.583 225.004 458.673 233.837 458.673 218.438C458.672 229.523 473.63 230.948 462.478 224.712C460.719 223.728 459.191 222.347 458.193 220.597L457.159 218.784C472.434 227.1 441.633 205.893 437.589 208.348C429.589 213.204 421.73 210.418 418.74 208.385C418.703 208.36 418.66 208.348 418.614 208.348H394.245C394.179 208.348 394.116 208.32 394.077 208.272L377.127 187.657C377.088 187.609 377.025 187.581 376.959 187.581H358.871C358.807 187.581 358.747 187.554 358.707 187.51L340.501 166.844C340.484 166.824 340.462 166.808 340.438 166.795L322.207 157.869C322.19 157.86 322.173 157.849 322.159 157.836L314.722 151.079C314.714 151.072 314.706 151.066 314.696 151.06L304.885 144.609C304.832 144.574 304.8 144.519 304.8 144.46V141.889C304.8 141.787 304.707 141.703 304.592 141.703H298.987C298.906 141.703 298.833 141.662 298.798 141.597L296.286 136.861C296.271 136.832 296.248 136.807 296.218 136.789L292.658 134.544C292.623 134.521 292.581 134.509 292.538 134.509H290.983C290.868 134.509 290.775 134.426 290.775 134.323V132.011C290.775 131.96 290.75 131.911 290.708 131.875L285.876 127.834C285.8 127.77 285.683 127.767 285.602 127.826L273.279 136.79C273.254 136.808 273.226 136.82 273.196 136.827L250.851 141.699C250.837 141.702 250.825 141.706 250.813 141.711L220.277 154.289C220.22 154.313 220.156 154.313 220.1 154.289C218.368 153.569 214.245 152.619 210.888 154.326C207.481 156.059 199.139 160.998 195.366 163.268C195.346 163.279 195.33 163.293 195.316 163.31L188.646 171.273C188.635 171.286 188.622 171.298 188.607 171.308L165.322 187.568C165.31 187.576 165.297 187.584 165.281 187.59L157.738 190.678C157.7 190.694 157.671 190.719 157.646 190.752C156.612 192.305 154.219 195.318 152.651 195.318C151.108 195.318 148.869 194.037 147.856 193.341C147.802 193.304 147.731 193.292 147.668 193.311C146.784 193.566 144.729 194.275 142.74 195.318C140.676 196.399 137.532 194.43 136.202 193.296C136.189 193.286 136.177 193.278 136.164 193.271L131.428 190.767C131.353 190.728 131.261 190.733 131.194 190.78L110.755 204.934C110.734 204.948 110.713 204.958 110.688 204.965L105.109 206.576C105.092 206.581 105.076 206.588 105.059 206.597L86.2292 217.683C86.1958 217.703 86.1582 217.713 86.1165 217.713H80.3458C80.2749 217.713 80.2082 217.681 80.1707 217.629L78.6154 215.491C78.5779 215.438 78.5112 215.406 78.4444 215.406H69.7925C69.7425 215.406 69.6925 215.389 69.655 215.359L63.0629 210.159C63.0254 210.129 62.9753 210.113 62.9252 210.113H60.953C60.8988 210.113 60.8488 210.131 60.8112 210.164L54.7695 215.28C54.6861 215.35 54.5568 215.348 54.4776 215.275L48.9279 210.206C48.8695 210.15 48.7736 210.135 48.6944 210.167L43.0488 212.487C42.9529 212.526 42.8403 212.495 42.7861 212.415L41.2059 210.113C40.4428 208.936 38.4289 206.583 36.4775 206.583C34.0383 206.583 37.545 204.955 30.5317 204.955C25.0195 204.955 22.1925 203.032 21.4253 202.02C21.3961 201.986 21.3877 201.946 21.3877 201.905C21.4002 201.416 20.9666 200.824 19.0986 201.968C17.1514 203.161 5.22216 209.499 -0.536059 212.538C-0.556907 212.55 -0.577745 212.565 -0.594423 212.584L-2.96694 215.36C-2.99612 215.39 -3.02947 215.412 -3.07117 215.424L-11.0559 217.705C-11.0767 217.71 -11.0976 217.713 -11.1227 217.713H-15.5675C-15.6258 217.713 -15.6842 217.737 -15.7259 217.777L-18.5195 220.637C-18.6112 220.734 -18.7864 220.718 -18.8573 220.607L-20.204 218.481C-20.3166 218.306 -20.9754 218.333 -21.1255 218.484C-21.7301 219.09 -23.0685 219.931 -25.7246 220.835C-29.7941 222.22 -32.7253 223.979 -33.7469 224.729C-33.7844 224.757 -33.8303 224.772 -33.8803 224.772H-42.6448H-44.7296C-44.7629 224.772 -44.7963 224.764 -44.8255 224.751L-48.574 223.016C-48.5865 223.01 -48.599 223.003 -48.6073 222.996L-51.5427 220.907C-51.6011 220.863 -51.6886 220.854 -51.7595 220.883L-56.8882 222.971C-56.9466 222.994 -57.0091 222.994 -57.0633 222.971L-69.6305 217.713L-76.0558 215.504C-76.1934 215.456 -76.3394 215.546 -76.3394 215.677V216.464C-76.3394 216.557 -76.4185 216.636 -76.5228 216.648L-85.8377 217.701C-85.9044 217.709 -85.9628 217.745 -85.9962 217.799L-87.6514 220.629C-87.714 220.735 -87.8725 220.762 -87.9725 220.684L-98.1004 212.995C-98.1255 212.974 -98.1463 212.948 -98.1588 212.918C-98.5424 212.027 -99.9226 209.804 -102.562 207.669C-105.235 205.505 -110.859 205.228 -113.361 205.361C-113.378 205.361 -113.395 205.36 -113.411 205.358L-122.23 203.869L-130.098 202.679C-130.215 202.661 -130.323 202.732 -130.352 202.833C-130.615 203.778 -131.803 205.362 -134.881 205.362C-138.174 205.362 -139 206.9 -139 207.669V368.598C-139 368.7 -138.904 368.784 -138.792 368.784H444.242C444.357 368.784 444.45 368.7 444.45 368.598L457.159 218.784Z" fill="url(#paint12_linear_1398_284)"/>
<path d="M-151.412 169.359H-160.907C-161.142 169.359 -161.332 169.463 -161.332 169.592V278.767C-161.332 278.895 -161.142 279 -160.907 279H750.572C750.807 279 751 278.895 751 278.767V181.791C751 181.68 750.854 181.584 750.655 181.563L713.364 177.569C713.322 177.565 713.285 177.557 713.249 177.547L670.294 165.372C670.185 165.341 670.054 165.337 669.939 165.363L628.771 174.531C628.667 174.554 628.547 174.554 628.442 174.529L606.5 169.379V169.379C606.402 169.354 606.32 169.289 606.244 169.223L587.13 152.76C586.694 152.385 586.201 152.279 585.659 152.473C585.266 152.614 584.764 152.796 584.232 152.99C582.004 153.804 579.684 154.964 577.608 156.111C565.553 162.772 557.771 161.664 555.364 162.979C543.834 169.271 519.656 179.43 515.518 175.978C515.377 175.86 515.084 175.806 514.865 175.88L485.859 185.712C485.755 185.746 485.635 185.755 485.52 185.741C479.637 184.982 467.229 191.153 453.249 193.319C440.052 195.363 410.206 203.667 408.748 205.102C408.628 205.221 408.806 205.408 408.722 205.536L394.914 226.865C394.846 226.97 394.653 227.033 394.454 227.018L376.038 225.618C375.981 225.614 375.924 225.616 375.866 225.625L356.249 228.592C356.183 228.602 356.113 228.603 356.047 228.595L330.909 225.618C330.876 225.614 330.844 225.608 330.813 225.6L315.71 221.607C315.632 221.586 315.544 221.579 315.458 221.587L299.367 223.008L267.677 225.608C267.65 225.611 267.619 225.612 267.591 225.611C260.084 225.396 261.167 225.734 247.594 221.575C239.752 219.172 226.915 213.924 211.943 213.893C211.855 213.892 211.769 213.878 211.697 213.85L199.512 209.117C199.44 209.09 199.354 209.075 199.266 209.075H165.453C165.344 209.075 165.24 209.097 165.162 209.138L144.173 219.949C144.094 219.99 143.99 220.013 143.882 220.013H118.839C118.788 220.013 118.736 220.018 118.688 220.028L98.9514 224.131C98.8087 224.161 98.6473 224.147 98.5297 224.093L76.1732 213.946C76.0969 213.911 76.0008 213.892 75.9021 213.892H44.801H13.571C13.4541 213.892 -7.85673 176.537 -19.5411 156.059C-23.0851 149.847 -30.2793 150.196 -33.245 156.703L-55.8511 206.306C-56.6859 208.137 -58.1327 209.721 -59.8545 210.765C-111.966 242.341 -77.757 224.009 -15.5737 208.774C-7.48011 206.791 -4.86875 196.369 -11.233 190.99L-56.3656 152.845C-56.8756 152.414 -57.3499 152.343 -57.8959 152.728C-67.1075 159.217 -154.322 222.4 -23.2205 189.129C-151.222 204.291 -172.22 137.259 -191.271 131.228C-210.21 125.233 -187.965 239.197 -191.271 241.558C-191.307 241.584 -191.258 201.417 -191.247 175.559C-191.244 168.829 -177.599 159.391 -171.301 161.765L-151.402 169.267C-151.345 169.288 -151.352 169.359 -151.412 169.359V169.359Z" fill="url(#paint13_linear_1398_284)"/>
<path d="M-13.3339 246.958C-14.2031 246.577 -14.1126 246.394 -13.6806 246.333C-13.5015 246.308 -13.3339 246.365 -13.3339 246.432V246.958C-12.2551 247.432 -9.69672 248.212 -4.47584 249.444C5.83748 251.879 15.9697 250.488 19.8434 249.468C19.9036 249.452 19.9739 249.444 20.0482 249.444H51.4539C51.5614 249.444 51.6628 249.426 51.7263 249.396L73.571 239.065C73.6345 239.035 73.7359 239.017 73.8434 239.017H97.1291C97.2332 239.017 97.3312 239 97.3948 238.972L120.873 228.608C120.901 228.596 120.935 228.586 120.976 228.578L144.493 224.1C144.522 224.094 144.548 224.087 144.572 224.079L154.163 220.69C154.176 220.686 154.19 220.682 154.204 220.678L166.84 217.448C166.926 217.426 166.977 217.39 166.977 217.353V216.099C166.977 216.034 167.128 215.981 167.315 215.981H174.441C174.571 215.981 174.69 215.955 174.746 215.914L177.963 213.556C177.988 213.537 178.026 213.522 178.073 213.51L182.638 212.391C182.694 212.377 182.763 212.369 182.832 212.369H184.749C184.936 212.369 185.087 212.317 185.087 212.252V211.125C185.087 211.093 185.126 211.062 185.194 211.039L191.367 209.032C191.491 208.992 191.681 208.989 191.812 209.026L207.665 213.511C207.704 213.522 207.75 213.53 207.798 213.534L236.629 215.978C236.65 215.98 236.671 215.983 236.69 215.986L276.083 222.296C276.171 222.311 276.279 222.311 276.367 222.296C278.624 221.935 283.917 221.466 288.236 222.319C292.63 223.189 303.39 225.666 308.264 226.807C308.298 226.814 308.325 226.823 308.345 226.833L316.949 230.826C316.963 230.834 316.983 230.842 317.01 230.848L347.062 239.008C347.082 239.014 347.103 239.019 347.13 239.022L356.836 240.569C356.904 240.579 356.951 240.595 356.985 240.615C358.33 241.397 361.412 242.901 363.433 242.901C365.407 242.901 368.266 242.268 369.591 241.917C369.679 241.893 369.794 241.886 369.895 241.898C371.051 242.029 373.68 242.383 376.222 242.901C378.885 243.444 382.94 242.458 384.664 241.888C384.677 241.882 384.698 241.877 384.725 241.872L390.788 240.625C390.91 240.6 391.058 240.604 391.173 240.633L417.514 247.728C417.548 247.736 417.582 247.742 417.622 247.747L424.801 248.553C424.834 248.556 424.861 248.561 424.882 248.567L449.168 254.127C449.229 254.14 449.29 254.147 449.357 254.147H456.745C456.86 254.147 456.968 254.126 457.029 254.093L458.996 253.041C459.057 253.008 459.165 252.988 459.28 252.988H470.385C470.466 252.988 470.548 252.978 470.608 252.959L479.078 250.359C479.139 250.341 479.22 250.33 479.301 250.33H481.795C481.883 250.33 481.964 250.342 482.032 250.362L489.757 252.908C489.893 252.953 490.109 252.951 490.237 252.905L497.314 250.389C497.416 250.354 497.571 250.344 497.7 250.365L504.885 251.513C505.04 251.538 505.229 251.519 505.317 251.468L507.325 250.33C508.312 249.739 510.907 248.558 513.428 248.558C516.578 248.558 512.05 247.74 521.107 247.74C528.191 247.74 531.841 246.783 532.855 246.274C532.895 246.252 532.909 246.227 532.909 246.201C532.909 245.957 533.483 245.673 535.869 246.241C538.384 246.839 553.768 250.019 561.203 251.546C561.244 251.553 561.271 251.563 561.298 251.575L564.346 252.959C564.387 252.978 564.448 252.992 564.508 252.999L574.789 254.141C574.823 254.145 574.864 254.147 574.898 254.147H580.596C580.69 254.147 580.785 254.161 580.852 254.187L584.374 255.589C584.523 255.65 584.807 255.64 584.921 255.57L586.456 254.631C586.632 254.52 587.767 254.526 588.024 254.615C588.896 254.911 590.606 255.3 593.742 255.714C598.967 256.406 602.746 257.284 604.077 257.664C604.138 257.681 604.219 257.69 604.294 257.69H615.588H618.265C618.319 257.69 618.373 257.686 618.421 257.677L623.24 256.81C623.26 256.806 623.274 256.802 623.294 256.797L627.039 255.759C627.14 255.731 627.275 255.726 627.39 255.744L633.953 256.782C634.041 256.796 634.143 256.796 634.237 256.782L650.433 254.147L658.632 253.049C658.855 253.02 659.091 253.077 659.091 253.159V253.498C659.091 253.557 659.22 253.607 659.389 253.614L671.319 254.139C671.427 254.144 671.528 254.167 671.576 254.201L673.658 255.584C673.759 255.65 674.016 255.668 674.178 255.619L687.176 251.781C687.217 251.768 687.25 251.752 687.271 251.733C687.778 251.282 689.562 250.171 692.949 249.103C696.403 248.018 703.649 247.878 706.886 247.944C706.913 247.944 706.94 247.944 706.967 247.942L718.343 247.195L728.435 246.602C728.624 246.591 728.8 246.635 728.847 246.698C729.226 247.175 730.767 247.945 734.68 247.945C738.932 247.945 740 248.717 740 249.103V329.883C740 329.948 739.845 330 739.662 330H-12.9959C-13.1825 330 -13.3339 329.948 -13.3339 329.883V246.958Z" fill="#125773"/>
<path d="M-14 230.462V330L61.6647 329.578H756V217.387V209.462C721.405 206.984 539.391 215.278 539.391 215.278L437.021 217.387C430.124 220.118 344.324 225.772 200.383 224.557H117.301C124.995 227.186 47.9484 233.158 -14 230.462Z" fill="url(#paint14_linear_1398_284)" stroke="#01577A"/>
<path d="M637.01 218.84C637.01 218.84 638.409 223.037 638.26 224.59C638.111 226.142 637.171 228.166 637.01 229.876C636.849 231.586 636.232 252.265 636.544 253.975C636.855 255.685 637.632 261.282 639.809 260.816C641.985 260.35 640.897 237.339 641.985 232.052C643.072 226.766 649.759 222.257 649.759 222.257L685.674 222.412C685.674 222.412 692.049 231.586 693.136 239.36C694.224 247.134 694.069 259.882 695.469 260.505C696.869 261.127 698.112 253.2 698.112 248.225C698.112 243.25 699.201 219.617 696.862 216.041C694.524 212.465 637.01 218.84 637.01 218.84Z" fill="#E86B3D"/>
<path d="M625.888 193.689C628.183 205.928 620.024 228.874 619.513 236.013C619.001 243.151 622.706 255.819 627.416 258.959C631.241 261.509 630.986 258.066 628.819 254.243C626.651 250.419 624.23 245.446 624.613 240.603C624.995 235.759 634.301 222.373 637.238 222.118C640.174 221.863 640.935 224.413 648.966 224.668C656.998 224.923 674.786 222.703 674.841 224.543C675.224 236.654 681.598 239.968 682.363 246.724C683.128 253.48 682.363 260.619 684.913 261.001C687.463 261.384 687.845 248.89 687.718 244.046C687.59 239.203 685.931 230.8 685.931 225.941C685.931 225.941 703.396 227.854 699.056 199.17C699.056 199.17 737.725 175.039 700.459 151.748C694.334 147.923 687.201 149.198 687.201 149.198C687.201 149.198 690.776 150.09 691.414 152.125C691.414 152.125 683.255 148.938 679.43 151.615C679.43 151.615 683.255 151.49 684.401 153.018C684.401 153.018 675.35 151.615 673.565 157.861C673.565 157.861 677.39 155.439 678.919 156.586C678.919 156.586 671.525 162.323 671.398 169.211C675.35 163.348 686.313 161.563 686.313 161.563C686.313 161.563 684.655 162.2 682.233 164.24C682.233 164.24 729.273 161.563 697.658 196.875C697.658 196.875 674.456 194.325 660.943 194.708C647.429 195.09 635.318 196.238 628.693 194.07C622.068 191.903 625.888 193.689 625.888 193.689Z" fill="url(#paint15_linear_1398_284)"/>
<path d="M611.2 156.026C611.2 156.026 619.125 162.25 620.063 166.444C620.063 166.444 629.703 162.556 634.523 162.556C634.523 162.556 636.233 148.719 638.876 149.03C638.876 149.03 643.696 152.606 644.785 159.757C645.874 166.909 646.805 188.987 630.79 201.426C611.978 194.896 609.179 175 609.335 170.175C609.491 165.35 611.2 156.026 611.2 156.026Z" fill="#C95313"/>
<path d="M611.2 156.026C611.2 156.026 619.125 162.25 620.063 166.444C620.063 166.444 629.703 162.556 634.523 162.556C634.523 162.556 636.233 148.719 638.876 149.03C638.876 149.03 643.696 152.606 644.785 159.757C644.928 160.694 645.068 161.882 645.166 163.276C640.903 164.716 630.468 171.125 632.008 200.445C632.029 200.856 629.713 200.352 629.713 200.764C625.511 169.824 612.439 172.271 609.338 170.176C609.49 165.355 611.2 156.026 611.2 156.026Z" fill="url(#paint16_linear_1398_284)"/>
<path d="M612.28 180.016C613.725 177.748 620.725 178.516 619.036 181.891C617.25 184.35 616.274 180.489 612.28 180.016ZM644.291 174.958C642.019 173.519 636.01 177.191 638.975 179.531C641.634 181 640.875 177.083 644.291 174.958Z" fill="#0C0023"/>
<path d="M639.465 154.934C639.465 154.934 636.979 158.854 637.266 160.957C637.266 160.957 640.9 159.81 641.951 159.906C641.951 159.906 641.186 156.655 639.465 154.934ZM613.171 161.817C613.171 161.817 616.231 163.227 617.569 166.12C617.569 166.12 612.597 167.65 611.545 167.745C611.546 167.75 611.451 163.539 613.171 161.817Z" fill="#C95313"/>
<path d="M630.928 202.405C632.443 202.184 633.66 200.328 633.345 199.143C633.03 197.958 627.674 198.834 627.766 199.721C627.91 201.116 629.413 202.625 630.928 202.405Z" fill="#0C0023"/>
</g>
<defs>
<linearGradient id="paint0_linear_1398_284" x1="370" y1="317" x2="370" y2="0" gradientUnits="userSpaceOnUse">
<stop offset="0.403785" stop-color="#E3AA01"/>
<stop offset="0.675079" stop-color="#C95313"/>
<stop offset="1" stop-color="#01577A"/>
</linearGradient>
<linearGradient id="paint1_linear_1398_284" x1="138.15" y1="119.288" x2="122.589" y2="160.179" gradientUnits="userSpaceOnUse">
<stop offset="0.158654" stop-color="#E3AA01"/>
<stop offset="0.730769" stop-color="#F0D074"/>
</linearGradient>
<linearGradient id="paint2_linear_1398_284" x1="254.774" y1="92.6352" x2="277.616" y2="26.2012" gradientUnits="userSpaceOnUse">
<stop offset="0.269231" stop-color="#F0D074"/>
<stop offset="0.841346" stop-color="#E3AA01"/>
</linearGradient>
<linearGradient id="paint3_linear_1398_284" x1="49.6011" y1="89.7934" x2="29.7192" y2="130.125" gradientUnits="userSpaceOnUse">
<stop offset="0.158654" stop-color="#E3AA01"/>
<stop offset="0.730769" stop-color="#F0D074"/>
</linearGradient>
<linearGradient id="paint4_linear_1398_284" x1="657.798" y1="157.148" x2="719.243" y2="196.188" gradientUnits="userSpaceOnUse">
<stop offset="0.269231" stop-color="#F0D074"/>
<stop offset="0.841346" stop-color="#E3AA01"/>
</linearGradient>
<linearGradient id="paint5_linear_1398_284" x1="618.353" y1="86.7067" x2="656" y2="99.6507" gradientUnits="userSpaceOnUse">
<stop offset="0.269231" stop-color="#F0D074"/>
<stop offset="0.841346" stop-color="#E3AA01"/>
</linearGradient>
<linearGradient id="paint6_linear_1398_284" x1="117.697" y1="65.9897" x2="141.993" y2="74.3432" gradientUnits="userSpaceOnUse">
<stop offset="0.269231" stop-color="#F0D074"/>
<stop offset="0.841346" stop-color="#E3AA01"/>
</linearGradient>
<linearGradient id="paint7_linear_1398_284" x1="231.899" y1="101.689" x2="269.547" y2="114.633" gradientUnits="userSpaceOnUse">
<stop offset="0.269231" stop-color="#F0D074"/>
<stop offset="0.841346" stop-color="#E3AA01"/>
</linearGradient>
<linearGradient id="paint8_linear_1398_284" x1="666.657" y1="72.6895" x2="682.218" y2="31.798" gradientUnits="userSpaceOnUse">
<stop offset="0.269231" stop-color="#F0D074"/>
<stop offset="0.841346" stop-color="#E3AA01"/>
</linearGradient>
<linearGradient id="paint9_linear_1398_284" x1="404.369" y1="22.9897" x2="428.665" y2="31.3432" gradientUnits="userSpaceOnUse">
<stop offset="0.269231" stop-color="#F0D074"/>
<stop offset="0.841346" stop-color="#E3AA01"/>
</linearGradient>
<linearGradient id="paint10_linear_1398_284" x1="446.257" y1="7.255" x2="487.148" y2="22.8163" gradientUnits="userSpaceOnUse">
<stop offset="0.269231" stop-color="#F0D074"/>
<stop offset="0.841346" stop-color="#E3AA01"/>
</linearGradient>
<linearGradient id="paint11_linear_1398_284" x1="331.406" y1="319.951" x2="331.406" y2="110.898" gradientUnits="userSpaceOnUse">
<stop offset="0.471154" stop-color="#016C98"/>
<stop offset="0.677885" stop-color="#336995"/>
<stop offset="0.841346" stop-color="#606693"/>
<stop offset="1" stop-color="#AA618F"/>
</linearGradient>
<linearGradient id="paint12_linear_1398_284" x1="136.213" y1="352" x2="136.213" y2="111" gradientUnits="userSpaceOnUse">
<stop stop-color="#003845"/>
<stop offset="0.514423" stop-color="#004150"/>
<stop offset="0.913462" stop-color="#605073"/>
<stop offset="1" stop-color="#B05D8F"/>
</linearGradient>
<linearGradient id="paint13_linear_1398_284" x1="-161.332" y1="215.598" x2="751" y2="215.598" gradientUnits="userSpaceOnUse">
<stop stop-color="#B05D8F"/>
<stop offset="0.644231" stop-color="#015E84"/>
</linearGradient>
<linearGradient id="paint14_linear_1398_284" x1="371" y1="209" x2="371" y2="330" gradientUnits="userSpaceOnUse">
<stop offset="0.139423" stop-color="#6AA550"/>
<stop offset="0.461538" stop-color="#50935C"/>
<stop offset="0.875" stop-color="#3A8367"/>
<stop offset="1" stop-color="#01577A"/>
</linearGradient>
<linearGradient id="paint15_linear_1398_284" x1="668.065" y1="148.994" x2="668.065" y2="261.01" gradientUnits="userSpaceOnUse">
<stop offset="0.394231" stop-color="#C32522"/>
<stop offset="1" stop-color="#5D1210"/>
</linearGradient>
<linearGradient id="paint16_linear_1398_284" x1="627.252" y1="149.025" x2="627.252" y2="200.764" gradientUnits="userSpaceOnUse">
<stop offset="0.394231" stop-color="#C32522"/>
<stop offset="1" stop-color="#5D1210"/>
</linearGradient>
<clipPath id="clip0_1398_284">
<rect width="740" height="317" fill="white"/>
</clipPath>
</defs>
</svg>
