<svg width="47" height="43" viewBox="0 0 47 43" fill="none" xmlns="http://www.w3.org/2000/svg">
<g filter="url(#filter0_d_1197_36)">
<path d="M21.7214 6.8616V0H25.2657V6.8616H21.7214ZM33.5061 11.579L31.0251 9.17739L36.0314 4.2885L38.5124 6.73295L33.5061 11.579ZM35.8985 20.5848V17.154H42.9871V20.5848H35.8985ZM36.0314 33.4074L31.0251 28.5614L33.5061 26.1599L38.5567 30.963L36.0314 33.4074ZM13.4809 11.579L8.47465 6.73295L10.9999 4.2885L15.9619 9.17739L13.4809 11.579ZM12.8607 30.8772H20.8353C21.5737 30.8772 22.2013 30.627 22.7182 30.1267C23.2351 29.6264 23.4935 29.0189 23.4935 28.3041C23.4935 27.5894 23.2425 26.9818 22.7404 26.4815C22.2383 25.9812 21.618 25.731 20.8796 25.731H18.6201L17.7341 23.6725C17.3206 22.7291 16.6708 21.9786 15.7847 21.4211C14.8987 20.8636 13.924 20.5848 12.8607 20.5848C11.3839 20.5848 10.1286 21.0851 9.0949 22.0858C8.06115 23.0864 7.54428 24.3015 7.54428 25.731C7.54428 27.1605 8.06115 28.3756 9.0949 29.3762C10.1286 30.3769 11.3839 30.8772 12.8607 30.8772ZM12.8607 34.308C10.4092 34.308 8.31959 33.4718 6.59175 31.7992C4.86392 30.1267 4 28.104 4 25.731C4 23.358 4.86392 21.3353 6.59175 19.6628C8.31959 17.9903 10.4092 17.154 12.8607 17.154C14.6328 17.154 16.2499 17.6186 17.7119 18.5478C19.1739 19.4769 20.2594 20.7278 20.9682 22.3002C22.6813 22.3002 24.1212 22.9149 25.2878 24.1443C26.4545 25.3736 27.0378 26.846 27.0378 28.5614C26.9787 30.191 26.3511 31.5562 25.1549 32.6569C23.9587 33.7577 22.5189 34.308 20.8353 34.308H12.8607ZM27.0378 28.5614C26.8901 27.9896 26.7425 27.4321 26.5948 26.8889C26.4471 26.3457 26.2994 25.7882 26.1517 25.2164C27.4808 24.6732 28.5515 23.8298 29.3637 22.6862C30.176 21.5426 30.5821 20.2703 30.5821 18.8694C30.5821 16.9825 29.888 15.3671 28.4998 14.0234C27.1116 12.6797 25.4429 12.0078 23.4935 12.0078C21.7214 12.0078 20.1708 12.5653 18.8417 13.6803C17.5126 14.7953 16.7299 16.2105 16.4936 17.9259C15.9029 17.783 15.2974 17.6543 14.6771 17.54C14.0569 17.4256 13.4514 17.297 12.8607 17.154C13.2742 14.6381 14.4925 12.5796 16.5157 10.9786C18.5389 9.37752 20.8649 8.577 23.4935 8.577C26.4471 8.577 28.9576 9.57765 31.0251 11.579C33.0926 13.5803 34.1264 16.0104 34.1264 18.8694C34.1264 21.0708 33.4766 23.0507 32.177 24.809C30.8774 26.5673 29.1644 27.8181 27.0378 28.5614Z" fill="#F2F2F2"/>
</g>
<defs>
<filter id="filter0_d_1197_36" x="0" y="0" width="46.9868" height="42.3076" filterUnits="userSpaceOnUse" color-interpolation-filters="sRGB">
<feFlood flood-opacity="0" result="BackgroundImageFix"/>
<feColorMatrix in="SourceAlpha" type="matrix" values="0 0 0 0 0 0 0 0 0 0 0 0 0 0 0 0 0 0 127 0" result="hardAlpha"/>
<feOffset dy="4"/>
<feGaussianBlur stdDeviation="2"/>
<feComposite in2="hardAlpha" operator="out"/>
<feColorMatrix type="matrix" values="0 0 0 0 0 0 0 0 0 0 0 0 0 0 0 0 0 0 0.25 0"/>
<feBlend mode="normal" in2="BackgroundImageFix" result="effect1_dropShadow_1197_36"/>
<feBlend mode="normal" in="SourceGraphic" in2="effect1_dropShadow_1197_36" result="shape"/>
</filter>
</defs>
</svg>
