<svg width="33" height="35" viewBox="0 0 33 35" fill="none" xmlns="http://www.w3.org/2000/svg">
<g filter="url(#filter0_d_1196_42)">
<path d="M21.6841 26.5754C19.9367 26.5705 18.449 25.9506 17.2208 24.7156C15.9927 23.4806 15.381 21.9894 15.3859 20.2421C15.3907 18.4947 16.0107 17.007 17.2457 15.7788C18.4807 14.5507 19.9719 13.939 21.7192 13.9439C23.4666 13.9487 24.9543 14.5687 26.1825 15.8037C27.4106 17.0387 28.0223 18.5298 28.0174 20.2772C28.0126 22.0246 27.3926 23.5123 26.1576 24.7405C24.9226 25.9686 23.4314 26.5803 21.6841 26.5754ZM23.8091 23.2655L24.6958 22.3838L22.3339 20.0088L22.3438 16.4719L21.0806 16.4684L21.0694 20.5105L23.8091 23.2655ZM6.52976 25.2701C5.83502 25.2682 5.24098 25.0191 4.74762 24.523C4.25426 24.0269 4.00855 23.4315 4.01048 22.7368L4.05967 5.05261C4.06161 4.35788 4.31063 3.76383 4.80674 3.27047C5.30285 2.77711 5.89827 2.5314 6.59301 2.53333L11.8667 2.548C12.1003 1.81181 12.5546 1.20781 13.2296 0.735999C13.9046 0.264191 14.6421 0.0293996 15.4421 0.031625C16.2842 0.0339676 17.0362 0.272902 17.698 0.74843C18.3599 1.22396 18.8055 1.83046 19.0351 2.56795L24.2772 2.58253C24.9719 2.58446 25.5659 2.83348 26.0593 3.32959C26.5527 3.82571 26.7984 4.42113 26.7964 5.11586L26.7745 13.0106C26.3963 12.7358 25.9969 12.5031 25.5764 12.3125C25.1559 12.1218 24.7142 11.9522 24.2515 11.8035L24.2701 5.10883L21.7438 5.10181L21.7333 8.89127L9.10175 8.85613L9.11229 5.06667L6.58598 5.05964L6.53679 22.7438L13.2315 22.7624C13.3776 23.226 13.5448 23.6685 13.7331 24.0901C13.9214 24.5117 14.1518 24.9123 14.4245 25.292L6.52976 25.2701ZM15.4281 5.08424C15.7859 5.08523 16.0863 4.96501 16.3291 4.72358C16.5718 4.48215 16.6937 4.18249 16.6947 3.8246C16.6957 3.4667 16.5755 3.16637 16.3341 2.92359C16.0926 2.68081 15.793 2.55893 15.4351 2.55793C15.0772 2.55694 14.7769 2.67715 14.5341 2.91858C14.2913 3.16001 14.1694 3.45968 14.1684 3.81757C14.1674 4.17546 14.2876 4.4758 14.5291 4.71858C14.7705 4.96135 15.0702 5.08324 15.4281 5.08424Z" fill="#F2F2F2"/>
</g>
<defs>
<filter id="filter0_d_1196_42" x="0.0102539" y="0.03125" width="32.0073" height="34.5439" filterUnits="userSpaceOnUse" color-interpolation-filters="sRGB">
<feFlood flood-opacity="0" result="BackgroundImageFix"/>
<feColorMatrix in="SourceAlpha" type="matrix" values="0 0 0 0 0 0 0 0 0 0 0 0 0 0 0 0 0 0 127 0" result="hardAlpha"/>
<feOffset dy="4"/>
<feGaussianBlur stdDeviation="2"/>
<feComposite in2="hardAlpha" operator="out"/>
<feColorMatrix type="matrix" values="0 0 0 0 0 0 0 0 0 0 0 0 0 0 0 0 0 0 0.25 0"/>
<feBlend mode="normal" in2="BackgroundImageFix" result="effect1_dropShadow_1196_42"/>
<feBlend mode="normal" in="SourceGraphic" in2="effect1_dropShadow_1196_42" result="shape"/>
</filter>
</defs>
</svg>
