<svg width="740" height="225" viewBox="0 0 740 225" fill="none" xmlns="http://www.w3.org/2000/svg">
<g clip-path="url(#clip0_1398_284)">
<rect width="740" height="225" fill="white"/>
<path d="M0 0H740V317H0V0Z" fill="url(#paint0_linear_1398_284)"/>
<circle cx="411" cy="179" r="30" fill="#FEBE01"/>
<path d="M147.553 129.332C158.359 128.571 162.78 128.111 157.358 132.455C151.909 136.82 142.117 138.106 137.592 138.123C137.244 138.124 136.919 138.02 136.589 137.928C133.209 136.989 121.08 139.803 114.871 136.421C108.32 132.853 100.423 136.676 94.3223 133.391C85.8435 128.825 105.454 125.031 108.161 124.536C108.369 124.498 108.56 124.493 108.767 124.518C111.114 124.802 126.343 126.57 123.476 124.258C120.444 121.814 138.296 109.565 145.523 128.06C145.836 128.861 146.649 129.395 147.553 129.332Z" fill="url(#paint1_linear_1398_284)"/>
<path d="M307.241 45.0581C275.631 43.0992 213.207 48.7258 210.6 49.7919C207.994 50.858 197.155 36.2436 214.866 39.0257C225.937 30.0907 239.359 32.7312 248.27 37.2353C272.385 34.5311 293.086 31.8837 289.245 39.7828C308.213 38.1461 319.095 37.7406 307.241 45.0581Z" fill="url(#paint2_linear_1398_284)"/>
<path d="M66.8841 104.165C46.9726 100.362 6.88217 98.8794 5.14116 99.3453C3.40015 99.8112 -2.29855 89.6545 8.72107 92.8549C16.4742 88.0784 24.7822 90.8417 30.0755 94.423C45.6055 94.6587 58.9633 94.654 55.8848 99.3583C68.0613 99.855 75.0028 100.479 66.8841 104.165Z" fill="url(#paint3_linear_1398_284)"/>
<path d="M746.495 151.406C710.565 148.962 634.215 158.594 630.555 160.262C626.895 161.93 622.497 139.863 641.671 143.797C659.722 130.004 673.95 133.795 681.834 140.501C711.63 135.972 737.393 131.588 728.403 143.681C751.562 140.865 764.543 140.062 746.495 151.406Z" fill="url(#paint4_linear_1398_284)"/>
<path d="M606.65 90.6827C609.756 85.6519 664.386 91.9035 661.747 89.2864C659.108 86.6692 669.375 90.6468 652.688 92.8477C636 95.0486 609.165 98.1017 605.998 92.9932C605.793 92.6622 605.604 92.3855 605.431 92.1561C603.57 93.5617 603.33 89.3699 605.431 92.1561C605.781 91.8914 606.189 91.4283 606.65 90.6827Z" fill="url(#paint5_linear_1398_284)"/>
<path d="M140.755 63.7434C135.557 57.5339 112.149 65.309 110.144 68.5557C108.139 71.8024 100.415 70.6707 102.458 73.9675C104.502 77.2643 129.086 71.3732 139.855 69.9529C150.625 68.5325 145.954 69.9529 140.755 63.7434Z" fill="url(#paint6_linear_1398_284)"/>
<path d="M220.196 105.665C223.303 100.634 277.933 106.885 275.294 104.268C272.655 101.651 282.922 105.629 266.234 107.83C249.547 110.03 222.711 113.084 219.545 107.975C219.34 107.644 219.151 107.367 218.978 107.138C217.117 108.544 216.876 104.352 218.978 107.138C219.328 106.873 219.736 106.41 220.196 105.665Z" fill="url(#paint7_linear_1398_284)"/>
<path d="M689.064 40.8687C699.87 40.1083 704.292 39.6482 698.869 43.9917C693.42 48.3567 683.628 49.643 679.103 49.6601C678.755 49.6614 678.43 49.5569 678.1 49.4653C674.721 48.5263 662.591 51.3403 656.382 47.9584C649.831 44.3904 641.934 48.2128 635.834 44.9278C627.355 40.3622 646.965 36.5681 649.672 36.073C649.88 36.0351 650.072 36.0302 650.278 36.0552C652.625 36.3392 667.854 38.1069 664.987 35.7954C661.955 33.3508 679.807 21.1018 687.034 39.5969C687.347 40.3979 688.16 40.9324 689.064 40.8687Z" fill="url(#paint8_linear_1398_284)"/>
<path d="M427.427 20.7434C422.228 14.5339 398.821 22.309 396.816 25.5557C394.811 28.8024 387.086 27.6707 389.13 30.9675C391.173 34.2643 415.757 28.3732 426.527 26.9529C437.296 25.5325 432.626 26.9529 427.427 20.7434Z" fill="url(#paint9_linear_1398_284)"/>
<path d="M483.094 2.86871C493.899 2.10831 498.321 1.64822 492.899 5.99168C487.449 10.3567 477.657 11.643 473.132 11.6601C472.784 11.6614 472.459 11.5569 472.129 11.4653C468.75 10.5263 456.62 13.3403 450.411 9.95836C443.861 6.3904 435.964 10.2128 429.863 6.92775C421.384 2.36216 440.995 -1.43191 443.702 -1.92698C443.909 -1.96493 444.101 -1.96977 444.308 -1.94479C446.655 -1.66075 461.884 0.106942 459.017 -2.20456C455.985 -4.64921 473.836 -16.8982 481.064 1.59695C481.377 2.39793 482.189 2.93236 483.094 2.86871Z" fill="url(#paint10_linear_1398_284)"/>
<path d="M739.921 122.489C740.818 121.999 740.675 121.776 740.195 121.712C740.051 121.693 739.921 121.748 739.921 121.813V122.489C738.86 123.07 736.345 124.026 731.213 125.536C721.059 128.526 711.083 126.811 707.289 125.559C707.242 125.544 707.187 125.536 707.129 125.536H676.199C676.115 125.536 676.035 125.519 675.986 125.49L654.472 112.8C654.422 112.771 654.343 112.754 654.259 112.754H631.302C631.22 112.754 631.143 112.737 631.093 112.71L607.986 99.9891C607.964 99.977 607.936 99.9669 607.905 99.9594L584.766 94.4646C584.743 94.4593 584.723 94.4525 584.705 94.4445L575.265 90.2857C575.255 90.2813 575.245 90.2773 575.234 90.2737L562.781 86.3032C562.713 86.2816 562.673 86.2473 562.673 86.211V84.6289C562.673 84.5656 562.554 84.5143 562.408 84.5143H555.294C555.192 84.5143 555.099 84.4888 555.055 84.4488L551.867 81.5338C551.847 81.516 551.817 81.5006 551.78 81.4892L547.261 80.1073C547.217 80.0936 547.163 80.0863 547.109 80.0863H545.136C544.989 80.0863 544.871 80.035 544.871 79.9717V78.5485C544.871 78.5168 544.841 78.4866 544.787 78.4649L538.654 75.9774C538.557 75.9382 538.409 75.9359 538.305 75.9722L522.665 81.4902C522.634 81.501 522.598 81.5087 522.56 81.5127L494.198 84.5117C494.182 84.5134 494.165 84.5159 494.15 84.519L455.393 92.2616C455.321 92.276 455.24 92.2759 455.168 92.2615C452.97 91.818 447.737 91.233 443.475 92.2843C439.152 93.351 428.565 96.3907 423.774 97.7879C423.75 97.7951 423.729 97.8037 423.711 97.814L415.245 102.716C415.231 102.724 415.215 102.731 415.197 102.737L385.643 112.745C385.627 112.751 385.609 112.755 385.59 112.759L376.019 114.66C375.97 114.67 375.929 114.685 375.902 114.706C374.589 115.662 371.549 117.516 369.558 117.516C367.603 117.516 364.76 116.728 363.475 116.3C363.406 116.277 363.317 116.269 363.234 116.281C362.116 116.438 359.506 116.874 356.98 117.516C354.36 118.181 350.371 116.969 348.681 116.271C348.666 116.265 348.651 116.26 348.633 116.256L342.624 114.715C342.528 114.691 342.412 114.694 342.327 114.723L316.379 123.435C316.358 123.444 316.332 123.45 316.3 123.454L309.22 124.446C309.198 124.449 309.177 124.453 309.156 124.459L285.257 131.282C285.215 131.295 285.162 131.301 285.109 131.301C285.056 131.301 277.785 131.301 277.785 131.301C277.701 131.301 277.616 131.282 277.568 131.249L275.593 129.933C275.545 129.901 275.461 129.881 275.371 129.881C275.281 129.881 264.393 129.881 264.393 129.881C264.33 129.881 264.266 129.871 264.218 129.852L255.851 126.651C255.804 126.633 255.74 126.623 255.677 126.623H253.177C253.108 126.623 253.039 126.634 252.992 126.654L245.324 129.803C245.218 129.846 245.054 129.845 244.953 129.8L237.915 126.68C237.836 126.646 237.714 126.636 237.614 126.656L230.449 128.084C230.327 128.108 230.184 128.089 230.115 128.04L228.108 126.623C227.139 125.899 224.587 124.45 222.108 124.45C219.01 124.45 223.464 123.448 214.562 123.448C207.562 123.448 203.982 122.264 203.002 121.642V121.642C202.953 121.609 202.966 121.539 202.947 121.484C202.85 121.21 202.199 120.972 200.047 121.61C197.58 122.344 182.434 126.245 175.132 128.115C175.1 128.123 175.079 128.132 175.058 128.144L172.044 129.852C172.007 129.871 171.965 129.885 171.912 129.892L161.776 131.296C161.75 131.299 161.724 131.301 161.697 131.301H156.052C155.978 131.301 155.904 131.316 155.851 131.341L152.308 133.101C152.186 133.16 151.969 133.151 151.879 133.082L150.163 131.774C150.026 131.666 149.189 131.683 148.998 131.776C148.231 132.149 146.531 132.666 143.163 133.223C138 134.075 134.272 135.158 132.979 135.619C132.926 135.637 132.868 135.646 132.81 135.646H121.679H119.036C118.994 135.646 118.952 135.641 118.915 135.633L114.159 134.565C114.143 134.561 114.127 134.557 114.117 134.553L110.394 133.267C110.315 133.24 110.209 133.234 110.119 133.252L103.605 134.538C103.531 134.552 103.452 134.551 103.383 134.537L87.4326 131.301L79.2776 129.941C79.1029 129.912 78.9175 129.967 78.9175 130.048V130.532C78.9175 130.589 78.8168 130.638 78.6845 130.646L66.865 131.294C66.7802 131.298 66.7007 131.321 66.6637 131.354L64.5561 133.096C64.482 133.161 64.2807 133.177 64.1536 133.13L51.3013 128.397C51.2643 128.384 51.2377 128.368 51.2218 128.35C50.7347 127.801 48.9819 126.433 45.6352 125.119C42.2407 123.786 35.1023 123.616 31.9303 123.698V123.698C31.8849 123.698 31.8405 123.686 31.7996 123.666L22.1755 118.997C20.1954 118.036 17.9538 117.756 15.798 118.199L9.55254 119.482C4.30517 120.561 -3.17734 116.28 -7.88029 118.845C-8.33802 119.095 -8.78021 119.359 -9.19338 119.62C-10.944 120.726 -13.186 121.634 -15.2515 121.783C-51.793 124.408 -71.461 136.045 -33.3012 131.538C-32.102 131.396 -31.4917 134.466 -31.8347 135.624V135.624C-31.8662 135.731 -31.8193 135.699 -31.7824 135.804L-1.18007 222.561C-0.803156 223.63 -0.0378172 224.184 1.09525 224.188C17.6337 224.245 148.859 224.29 148.998 224.29H889C889.147 224.29 739.921 224.239 739.921 224.176V122.489Z" fill="url(#paint11_linear_1398_284)"/>
<path d="M457.159 155.288C468.583 159.703 458.673 165.972 458.673 155.043C458.672 162.92 473.666 163.924 462.437 159.479C460.685 158.786 459.099 157.703 457.919 156.234L457.159 155.288C472.434 161.191 441.633 146.139 437.589 147.881C429.589 151.328 421.73 149.351 418.74 147.908C418.703 147.89 418.66 147.881 418.614 147.881H394.245C394.179 147.881 394.116 147.861 394.077 147.827L377.127 133.195C377.088 133.161 377.025 133.141 376.959 133.141H358.871C358.807 133.141 358.747 133.122 358.707 133.091L340.501 118.422C340.484 118.408 340.462 118.397 340.438 118.388L322.207 112.052C322.19 112.046 322.173 112.038 322.159 112.029L314.722 107.233C314.714 107.228 314.706 107.223 314.696 107.219L304.885 102.641C304.832 102.616 304.8 102.576 304.8 102.535V100.71C304.8 100.637 304.707 100.578 304.592 100.578H298.987C298.906 100.578 298.833 100.549 298.798 100.503L296.286 97.1412C296.271 97.1206 296.248 97.1029 296.218 97.0897L292.658 95.4963C292.623 95.4805 292.581 95.4721 292.538 95.4721H290.983C290.868 95.4721 290.775 95.4129 290.775 95.34V93.6988C290.775 93.6623 290.75 93.6274 290.708 93.6025L285.876 90.734C285.8 90.6888 285.683 90.6862 285.602 90.728L273.279 97.0911C273.254 97.1035 273.226 97.1122 273.196 97.1169L250.851 100.575C250.837 100.577 250.825 100.58 250.813 100.583L220.277 109.512C220.22 109.528 220.156 109.528 220.1 109.512C218.368 109 214.245 108.325 210.888 109.538C207.481 110.768 199.139 114.273 195.366 115.884C195.346 115.892 195.33 115.902 195.316 115.914L188.646 121.566C188.635 121.575 188.622 121.584 188.607 121.591L165.322 133.132C165.31 133.138 165.297 133.143 165.281 133.147L157.738 135.34C157.7 135.351 157.671 135.369 157.646 135.392C156.612 136.494 154.219 138.632 152.651 138.632C151.108 138.632 148.869 137.723 147.856 137.23C147.802 137.203 147.731 137.195 147.668 137.208C146.784 137.389 144.729 137.893 142.74 138.632C140.676 139.4 137.532 138.002 136.202 137.198C136.189 137.19 136.177 137.185 136.164 137.18L131.428 135.403C131.353 135.375 131.261 135.379 131.194 135.412L110.755 145.458C110.734 145.468 110.713 145.475 110.688 145.48L105.109 146.623C105.092 146.627 105.076 146.632 105.059 146.638L86.2292 154.507C86.1958 154.521 86.1582 154.529 86.1165 154.529H80.3458C80.2749 154.529 80.2082 154.506 80.1707 154.468L78.6154 152.951C78.5779 152.914 78.5112 152.891 78.4444 152.891H69.7925C69.7425 152.891 69.6925 152.879 69.655 152.858L63.0629 149.167C63.0254 149.145 62.9753 149.134 62.9252 149.134H60.953C60.8988 149.134 60.8488 149.147 60.8112 149.17L54.7695 152.801C54.6861 152.851 54.5568 152.849 54.4776 152.798L48.9279 149.2C48.8695 149.16 48.7736 149.149 48.6944 149.172L43.0488 150.819C42.9529 150.847 42.8403 150.825 42.7861 150.768L41.2059 149.134C40.4428 148.299 38.4289 146.629 36.4775 146.629C34.0383 146.629 37.545 145.473 30.5317 145.473C25.0195 145.473 22.1925 144.108 21.4253 143.39C21.3961 143.366 21.3877 143.337 21.3877 143.308C21.4002 142.961 20.9666 142.541 19.0986 143.353C17.1514 144.199 5.22216 148.698 -0.536059 150.855C-0.556907 150.863 -0.577745 150.875 -0.594423 150.888L-2.96694 152.858C-2.99612 152.879 -3.02947 152.895 -3.07117 152.903L-11.0559 154.522C-11.0767 154.526 -11.0976 154.529 -11.1227 154.529H-15.5675C-15.6258 154.529 -15.6842 154.545 -15.7259 154.574L-18.5195 156.604C-18.6112 156.672 -18.7864 156.661 -18.8573 156.582L-20.204 155.073C-20.3166 154.949 -20.9754 154.969 -21.1255 155.075C-21.7301 155.506 -23.0685 156.103 -25.7246 156.744C-29.7941 157.727 -32.7253 158.976 -33.7469 159.508C-33.7844 159.528 -33.8303 159.538 -33.8803 159.538H-42.6448H-44.7296C-44.7629 159.538 -44.7963 159.533 -44.8255 159.523L-48.574 158.292C-48.5865 158.288 -48.599 158.283 -48.6073 158.278L-51.5427 156.795C-51.6011 156.764 -51.6886 156.757 -51.7595 156.778L-56.8882 158.26C-56.9466 158.277 -57.0091 158.276 -57.0633 158.26L-69.6305 154.529L-76.0558 152.96C-76.1934 152.926 -76.3394 152.99 -76.3394 153.083V153.642C-76.3394 153.708 -76.4185 153.764 -76.5228 153.773L-85.8377 154.52C-85.9044 154.525 -85.9628 154.551 -85.9962 154.59L-87.6514 156.598C-87.714 156.673 -87.8725 156.692 -87.9725 156.637L-98.1004 151.179C-98.1255 151.164 -98.1463 151.146 -98.1588 151.125C-98.5424 150.493 -99.9226 148.915 -102.562 147.399C-105.235 145.863 -110.859 145.667 -113.361 145.761C-113.378 145.761 -113.395 145.76 -113.411 145.759L-122.23 144.702L-130.098 143.857C-130.215 143.845 -130.323 143.895 -130.352 143.967C-130.615 144.637 -131.803 145.761 -134.881 145.761C-138.174 145.761 -139 146.853 -139 147.399V261.623C-139 261.696 -138.904 261.755 -138.792 261.755H444.242C444.357 261.755 444.45 261.696 444.45 261.623L457.159 155.288Z" fill="url(#paint12_linear_1398_284)"/>
<path d="M-151.412 120.208H-160.907C-161.142 120.208 -161.332 120.282 -161.332 120.373V197.863C-161.332 197.954 -161.142 198.028 -160.907 198.028H750.572C750.807 198.028 751 197.954 751 197.863V129.032C751 128.952 750.854 128.884 750.655 128.869L713.364 126.035C713.322 126.032 713.285 126.027 713.249 126.019L670.294 117.377C670.185 117.355 670.054 117.353 669.939 117.371L628.771 123.879C628.667 123.895 628.547 123.895 628.442 123.877L606.5 120.221V120.221C606.404 120.205 606.317 120.156 606.234 120.105L587.106 108.411C586.686 108.155 586.234 108.076 585.757 108.197C585.149 108.351 584.239 108.588 583.362 108.815C581.669 109.255 579.94 109.865 578.318 110.521C565.858 115.564 557.818 114.727 555.364 115.679C543.834 120.145 519.656 127.355 515.518 124.906C515.377 124.822 515.084 124.783 514.865 124.836L485.859 131.814C485.755 131.839 485.635 131.845 485.52 131.835C479.637 131.296 467.229 135.677 453.249 137.213C440.052 138.664 410.206 144.559 408.748 145.577C408.628 145.662 408.806 145.794 408.722 145.885L394.914 161.024C394.846 161.098 394.653 161.144 394.454 161.133L376.038 160.139C375.981 160.136 375.924 160.138 375.866 160.144L356.249 162.25C356.183 162.257 356.113 162.257 356.047 162.252L330.909 160.139C330.876 160.136 330.844 160.132 330.813 160.126L315.71 157.292C315.632 157.277 315.544 157.272 315.458 157.278L299.367 158.286L267.677 160.132C267.65 160.134 267.619 160.134 267.591 160.134C260.084 159.981 261.167 160.221 247.594 157.269C239.752 155.564 226.915 151.839 211.943 151.817C211.855 151.816 211.769 151.806 211.697 151.786L199.512 148.427C199.44 148.407 199.354 148.397 199.266 148.397H165.453C165.344 148.397 165.24 148.413 165.162 148.442L144.173 156.115C144.094 156.144 143.99 156.16 143.882 156.16H118.839C118.788 156.16 118.736 156.164 118.688 156.171L98.9514 159.084C98.8087 159.105 98.6473 159.095 98.5297 159.057L76.1732 151.854C76.0969 151.83 76.0008 151.816 75.9021 151.816H44.801H13.571C13.4519 151.816 -8.65718 124.306 -20.1832 109.968C-23.8541 105.402 -29.7193 105.733 -32.885 110.664L-55.477 145.849C-56.5559 147.529 -58.1921 148.881 -60.0265 149.67C-109.741 171.055 -80.375 160.001 -23.1468 149.535C-13.9099 147.845 -11.4797 135.413 -19.532 130.582L-56.4053 108.462C-56.8893 108.172 -57.324 108.117 -57.8289 108.369C-66.6747 112.786 -154.646 157.914 -23.2205 134.24C-151.222 145.001 -172.22 97.4238 -191.271 93.1432C-210.21 88.8879 -187.965 169.777 -191.271 171.453C-191.303 171.469 -191.266 148.169 -191.251 130.137C-191.247 125.064 -176.201 113.506 -171.3 114.818L-151.406 120.141C-151.361 120.153 -151.365 120.208 -151.412 120.208V120.208Z" fill="url(#paint13_linear_1398_284)"/>
<path d="M-13.3339 175.286C-14.2031 175.015 -14.1126 174.886 -13.6806 174.842C-13.5015 174.824 -13.3339 174.865 -13.3339 174.912V175.286C-12.2551 175.622 -9.69672 176.176 -4.47584 177.05C5.83748 178.778 15.9697 177.791 19.8434 177.067C19.9036 177.056 19.9739 177.05 20.0482 177.05H51.4539C51.5614 177.05 51.6628 177.038 51.7263 177.016L73.571 169.683C73.6345 169.662 73.7359 169.649 73.8434 169.649H97.1291C97.2332 169.649 97.3312 169.637 97.3948 169.617L120.873 162.261C120.901 162.253 120.935 162.245 120.976 162.24L144.493 159.061C144.522 159.057 144.548 159.052 144.572 159.047L154.163 156.641C154.176 156.638 154.19 156.635 154.204 156.633L166.84 154.34C166.926 154.324 166.977 154.299 166.977 154.273V153.382C166.977 153.336 167.128 153.299 167.315 153.299H174.441C174.571 153.299 174.69 153.281 174.746 153.251L177.963 151.577C177.988 151.564 178.026 151.553 178.073 151.545L182.638 150.75C182.694 150.741 182.763 150.735 182.832 150.735H184.749C184.936 150.735 185.087 150.698 185.087 150.652V149.852C185.087 149.829 185.126 149.807 185.194 149.791L191.367 148.366C191.491 148.338 191.681 148.336 191.812 148.363L207.665 151.546C207.704 151.554 207.75 151.559 207.798 151.562L236.629 153.297C236.65 153.298 236.671 153.3 236.69 153.302L276.083 157.781C276.171 157.792 276.279 157.792 276.367 157.781C278.624 157.525 283.917 157.192 288.236 157.798C292.63 158.415 303.39 160.173 308.264 160.983C308.298 160.988 308.325 160.994 308.345 161.002L316.949 163.835C316.963 163.841 316.983 163.847 317.01 163.851L347.062 169.643C347.082 169.647 347.103 169.65 347.13 169.653L356.836 170.751C356.904 170.758 356.951 170.769 356.985 170.784C358.33 171.339 361.412 172.406 363.433 172.406C365.407 172.406 368.266 171.957 369.591 171.708C369.679 171.691 369.794 171.686 369.895 171.694C371.051 171.787 373.68 172.039 376.222 172.406C378.885 172.791 382.94 172.091 384.664 171.687C384.677 171.683 384.698 171.679 384.725 171.676L390.788 170.791C390.91 170.773 391.058 170.775 391.173 170.796L417.514 175.832C417.548 175.838 417.582 175.842 417.622 175.845L424.801 176.418C424.834 176.42 424.861 176.424 424.882 176.428L449.168 180.374C449.229 180.383 449.29 180.388 449.357 180.388H456.745C456.86 180.388 456.968 180.374 457.029 180.35L458.996 179.604C459.057 179.58 459.165 179.566 459.28 179.566H470.385C470.466 179.566 470.548 179.558 470.608 179.545L479.078 177.7C479.139 177.687 479.22 177.679 479.301 177.679H481.795C481.883 177.679 481.964 177.687 482.032 177.702L489.757 179.509C489.893 179.54 490.109 179.539 490.237 179.507L497.314 177.721C497.416 177.696 497.571 177.689 497.7 177.704L504.885 178.519C505.04 178.536 505.229 178.523 505.317 178.487L507.325 177.679C508.312 177.26 510.907 176.421 513.428 176.421C516.578 176.421 512.05 175.841 521.107 175.841C528.191 175.841 531.841 175.162 532.855 174.8C532.895 174.785 532.909 174.767 532.909 174.748C532.909 174.575 533.483 174.373 535.869 174.777C538.384 175.201 553.768 177.458 561.203 178.542C561.244 178.547 561.271 178.554 561.298 178.563L564.346 179.545C564.387 179.558 564.448 179.568 564.508 179.574L574.789 180.384C574.823 180.387 574.864 180.388 574.898 180.388H580.596C580.69 180.388 580.785 180.398 580.852 180.417L584.374 181.412C584.523 181.455 584.807 181.448 584.921 181.398L586.456 180.732C586.632 180.653 587.767 180.658 588.024 180.721C588.896 180.931 590.606 181.206 593.742 181.501C598.967 181.992 602.746 182.615 604.077 182.884C604.138 182.897 604.219 182.903 604.294 182.903H615.588H618.265C618.319 182.903 618.373 182.9 618.421 182.894L623.24 182.278C623.26 182.276 623.274 182.273 623.294 182.269L627.039 181.532C627.14 181.513 627.275 181.509 627.39 181.522L633.953 182.259C634.041 182.269 634.143 182.269 634.237 182.258L650.433 180.388L658.632 179.609C658.855 179.588 659.091 179.629 659.091 179.687V179.928C659.091 179.97 659.22 180.005 659.389 180.01L671.319 180.383C671.427 180.386 671.528 180.402 671.576 180.427L673.658 181.408C673.759 181.455 674.016 181.468 674.178 181.433L687.176 178.709C687.217 178.7 687.25 178.688 687.271 178.675C687.778 178.354 689.562 177.566 692.949 176.808C696.403 176.038 703.649 175.938 706.886 175.985C706.913 175.986 706.94 175.985 706.967 175.984L718.343 175.454L728.435 175.033C728.624 175.025 728.8 175.056 728.847 175.101C729.226 175.44 730.767 175.986 734.68 175.986C738.932 175.986 740 176.534 740 176.808V234.144C740 234.19 739.845 234.227 739.662 234.227H-12.9959C-13.1825 234.227 -13.3339 234.19 -13.3339 234.144V175.286Z" fill="#125773"/>
<path d="M-14 202.493V330L61.6647 329.46H756V185.744V175.592C721.405 172.418 539.391 183.043 539.391 183.043L437.021 185.744C430.124 189.242 344.324 196.485 200.383 194.929H117.301C124.995 198.296 47.9484 205.947 -14 202.493Z" fill="url(#paint14_linear_1398_284)" stroke="#01577A"/>
<path d="M661.01 168.84C661.01 168.84 662.409 173.038 662.26 174.59C662.111 176.143 661.171 178.166 661.01 179.876C660.849 181.586 660.232 202.265 660.544 203.975C660.855 205.685 661.632 211.283 663.809 210.816C665.985 210.35 664.897 187.339 665.985 182.053C667.072 176.766 673.759 172.258 673.759 172.258L709.674 172.413C709.674 172.413 716.049 181.586 717.136 189.36C718.224 197.134 718.069 209.883 719.469 210.505C720.869 211.128 722.112 203.2 722.112 198.225C722.112 193.25 723.201 169.618 720.862 166.041C718.524 162.465 661.01 168.84 661.01 168.84Z" fill="#E86B3D"/>
<path d="M649.888 143.689C652.183 155.928 644.024 178.874 643.513 186.013C643.001 193.151 646.706 205.819 651.416 208.959C655.241 211.509 654.986 208.066 652.819 204.243C650.651 200.419 648.23 195.446 648.613 190.603C648.995 185.759 658.301 172.373 661.238 172.118C664.174 171.863 664.935 174.413 672.966 174.668C680.998 174.923 698.786 172.703 698.841 174.543C699.224 186.654 705.598 189.968 706.363 196.724C707.128 203.48 706.363 210.619 708.913 211.001C711.463 211.384 711.845 198.89 711.718 194.046C711.59 189.203 709.931 180.8 709.931 175.941C709.931 175.941 727.396 177.854 723.056 149.17C723.056 149.17 761.725 125.039 724.459 101.748C718.334 97.9225 711.201 99.1975 711.201 99.1975C711.201 99.1975 714.776 100.09 715.414 102.125C715.414 102.125 707.255 98.9375 703.43 101.615C703.43 101.615 707.255 101.49 708.401 103.018C708.401 103.018 699.35 101.615 697.565 107.861C697.565 107.861 701.39 105.439 702.919 106.586C702.919 106.586 695.525 112.323 695.398 119.211C699.35 113.348 710.313 111.563 710.313 111.563C710.313 111.563 708.655 112.2 706.233 114.24C706.233 114.24 753.273 111.563 721.658 146.875C721.658 146.875 698.456 144.325 684.943 144.708C671.429 145.09 659.318 146.238 652.693 144.07C646.068 141.903 649.888 143.689 649.888 143.689Z" fill="url(#paint15_linear_1398_284)"/>
<path d="M635.2 106.026C635.2 106.026 643.125 112.25 644.063 116.444C644.063 116.444 653.703 112.556 658.523 112.556C658.523 112.556 660.233 98.7187 662.876 99.03C662.876 99.03 667.696 102.606 668.785 109.757C669.874 116.909 670.805 138.987 654.79 151.426C635.978 144.896 633.179 125 633.335 120.175C633.491 115.35 635.2 106.026 635.2 106.026Z" fill="#C95313"/>
<path d="M635.2 106.026C635.2 106.026 643.125 112.25 644.063 116.444C644.063 116.444 653.703 112.556 658.523 112.556C658.523 112.556 660.233 98.7187 662.876 99.03C662.876 99.03 667.696 102.606 668.785 109.757C668.928 110.694 669.068 111.882 669.166 113.276C664.903 114.716 654.468 121.125 656.008 150.445C656.029 150.856 653.713 150.352 653.713 150.764C649.511 119.824 636.439 122.271 633.338 120.176C633.49 115.355 635.2 106.026 635.2 106.026Z" fill="url(#paint16_linear_1398_284)"/>
<path d="M636.28 130.016C637.725 127.747 644.725 128.516 643.036 131.891C641.25 134.35 640.274 130.489 636.28 130.016ZM668.291 124.957C666.019 123.519 660.01 127.191 662.975 129.531C665.634 131 664.875 127.082 668.291 124.957Z" fill="#0C0023"/>
<path d="M663.465 104.934C663.465 104.934 660.979 108.854 661.266 110.957C661.266 110.957 664.9 109.81 665.951 109.906C665.951 109.906 665.186 106.655 663.465 104.934ZM637.171 111.817C637.171 111.817 640.231 113.227 641.569 116.12C641.569 116.12 636.597 117.65 635.545 117.745C635.546 117.75 635.451 113.539 637.171 111.817Z" fill="#C95313"/>
<path d="M654.928 152.405C656.443 152.184 657.66 150.328 657.345 149.143C657.03 147.958 651.674 148.834 651.766 149.721C651.91 151.116 653.413 152.625 654.928 152.405Z" fill="#0C0023"/>
</g>
<defs>
<linearGradient id="paint0_linear_1398_284" x1="370" y1="317" x2="370" y2="0" gradientUnits="userSpaceOnUse">
<stop offset="0.403785" stop-color="#E3AA01"/>
<stop offset="0.675079" stop-color="#C95313"/>
<stop offset="1" stop-color="#01577A"/>
</linearGradient>
<linearGradient id="paint1_linear_1398_284" x1="138.15" y1="119.288" x2="122.589" y2="160.179" gradientUnits="userSpaceOnUse">
<stop offset="0.158654" stop-color="#E3AA01"/>
<stop offset="0.730769" stop-color="#F0D074"/>
</linearGradient>
<linearGradient id="paint2_linear_1398_284" x1="254.774" y1="92.6352" x2="277.616" y2="26.2012" gradientUnits="userSpaceOnUse">
<stop offset="0.269231" stop-color="#F0D074"/>
<stop offset="0.841346" stop-color="#E3AA01"/>
</linearGradient>
<linearGradient id="paint3_linear_1398_284" x1="49.6011" y1="89.7934" x2="29.7192" y2="130.125" gradientUnits="userSpaceOnUse">
<stop offset="0.158654" stop-color="#E3AA01"/>
<stop offset="0.730769" stop-color="#F0D074"/>
</linearGradient>
<linearGradient id="paint4_linear_1398_284" x1="657.798" y1="157.148" x2="719.243" y2="196.188" gradientUnits="userSpaceOnUse">
<stop offset="0.269231" stop-color="#F0D074"/>
<stop offset="0.841346" stop-color="#E3AA01"/>
</linearGradient>
<linearGradient id="paint5_linear_1398_284" x1="618.353" y1="86.7067" x2="656" y2="99.6507" gradientUnits="userSpaceOnUse">
<stop offset="0.269231" stop-color="#F0D074"/>
<stop offset="0.841346" stop-color="#E3AA01"/>
</linearGradient>
<linearGradient id="paint6_linear_1398_284" x1="117.697" y1="65.9897" x2="141.993" y2="74.3432" gradientUnits="userSpaceOnUse">
<stop offset="0.269231" stop-color="#F0D074"/>
<stop offset="0.841346" stop-color="#E3AA01"/>
</linearGradient>
<linearGradient id="paint7_linear_1398_284" x1="231.899" y1="101.689" x2="269.547" y2="114.633" gradientUnits="userSpaceOnUse">
<stop offset="0.269231" stop-color="#F0D074"/>
<stop offset="0.841346" stop-color="#E3AA01"/>
</linearGradient>
<linearGradient id="paint8_linear_1398_284" x1="666.657" y1="72.6895" x2="682.218" y2="31.798" gradientUnits="userSpaceOnUse">
<stop offset="0.269231" stop-color="#F0D074"/>
<stop offset="0.841346" stop-color="#E3AA01"/>
</linearGradient>
<linearGradient id="paint9_linear_1398_284" x1="404.369" y1="22.9897" x2="428.665" y2="31.3432" gradientUnits="userSpaceOnUse">
<stop offset="0.269231" stop-color="#F0D074"/>
<stop offset="0.841346" stop-color="#E3AA01"/>
</linearGradient>
<linearGradient id="paint10_linear_1398_284" x1="446.257" y1="7.255" x2="487.148" y2="22.8163" gradientUnits="userSpaceOnUse">
<stop offset="0.269231" stop-color="#F0D074"/>
<stop offset="0.841346" stop-color="#E3AA01"/>
</linearGradient>
<linearGradient id="paint11_linear_1398_284" x1="331.406" y1="227.094" x2="331.406" y2="78.713" gradientUnits="userSpaceOnUse">
<stop offset="0.471154" stop-color="#016C98"/>
<stop offset="0.677885" stop-color="#336995"/>
<stop offset="0.841346" stop-color="#606693"/>
<stop offset="1" stop-color="#AA618F"/>
</linearGradient>
<linearGradient id="paint12_linear_1398_284" x1="136.213" y1="249.842" x2="136.213" y2="78.7855" gradientUnits="userSpaceOnUse">
<stop stop-color="#003845"/>
<stop offset="0.514423" stop-color="#004150"/>
<stop offset="0.913462" stop-color="#605073"/>
<stop offset="1" stop-color="#B05D8F"/>
</linearGradient>
<linearGradient id="paint13_linear_1398_284" x1="-161.332" y1="153.027" x2="751" y2="153.027" gradientUnits="userSpaceOnUse">
<stop stop-color="#B05D8F"/>
<stop offset="0.644231" stop-color="#015E84"/>
</linearGradient>
<linearGradient id="paint14_linear_1398_284" x1="371" y1="175" x2="371" y2="330" gradientUnits="userSpaceOnUse">
<stop offset="0.139423" stop-color="#6AA550"/>
<stop offset="0.461538" stop-color="#50935C"/>
<stop offset="0.875" stop-color="#3A8367"/>
<stop offset="1" stop-color="#01577A"/>
</linearGradient>
<linearGradient id="paint15_linear_1398_284" x1="692.065" y1="98.9935" x2="692.065" y2="211.01" gradientUnits="userSpaceOnUse">
<stop offset="0.394231" stop-color="#C32522"/>
<stop offset="1" stop-color="#5D1210"/>
</linearGradient>
<linearGradient id="paint16_linear_1398_284" x1="651.252" y1="99.0248" x2="651.252" y2="150.764" gradientUnits="userSpaceOnUse">
<stop offset="0.394231" stop-color="#C32522"/>
<stop offset="1" stop-color="#5D1210"/>
</linearGradient>
<clipPath id="clip0_1398_284">
<rect width="740" height="225" fill="white"/>
</clipPath>
</defs>
</svg>
